<svg xmlns="http://www.w3.org/2000/svg" xmlns:xlink="http://www.w3.org/1999/xlink" width="1056" zoomAndPan="magnify" viewBox="0 0 792 611.999999" height="816" preserveAspectRatio="xMidYMid meet" version="1.0"><defs><g/><clipPath id="8939684c06"><path d="M 307.445312 234 L 477 234 L 477 359.421875 L 307.445312 359.421875 Z M 307.445312 234 " clip-rule="nonzero"/></clipPath><clipPath id="ed4c1077f8"><path d="M 316 225.585938 L 484.839844 225.585938 L 484.839844 351 L 316 351 Z M 316 225.585938 " clip-rule="nonzero"/></clipPath><clipPath id="30dcd53984"><path d="M 362 199 L 426 199 L 426 278.804688 L 362 278.804688 Z M 362 199 " clip-rule="nonzero"/></clipPath><clipPath id="71d4c06626"><path d="M 366 194.859375 L 430.582031 194.859375 L 430.582031 275 L 366 275 Z M 366 194.859375 " clip-rule="nonzero"/></clipPath></defs><g clip-path="url(#8939684c06)"><path fill="#8c959d" d="M 426.328125 359.421875 L 357.121094 359.421875 C 353.21875 359.421875 350.054688 356.265625 350.054688 352.375 L 350.054688 348.160156 C 350.054688 342.671875 354.09375 338.105469 359.363281 337.269531 C 360.757812 333.292969 364.308594 330.320312 368.609375 329.757812 L 374.75 265.433594 C 372.898438 265.878906 371.125 266.617188 369.492188 267.632812 L 352.238281 278.386719 C 351.679688 278.738281 351.105469 279.070312 350.523438 279.390625 L 361.15625 298.976562 L 362.042969 298.976562 C 366.433594 298.976562 370.003906 302.539062 370.003906 306.917969 C 370.003906 315.335938 363.136719 322.183594 354.699219 322.183594 L 322.746094 322.183594 C 314.308594 322.183594 307.445312 315.335938 307.445312 306.917969 C 307.445312 302.539062 311.015625 298.976562 315.40625 298.976562 L 316.289062 298.976562 L 324.554688 283.757812 C 320.277344 282.800781 317.070312 278.984375 317.070312 274.433594 C 317.070312 269.160156 321.371094 264.875 326.652344 264.875 L 332.644531 264.875 C 335.988281 264.875 339.25 263.941406 342.082031 262.175781 L 359.335938 251.417969 C 364.621094 248.125 370.628906 246.230469 376.820312 245.878906 C 377.578125 243 379.167969 240.390625 381.429688 238.359375 C 384.28125 235.804688 387.953125 234.398438 391.769531 234.398438 C 392.164062 234.398438 392.5625 234.414062 392.957031 234.445312 C 399.386719 234.960938 404.832031 239.6875 406.578125 245.878906 C 412.789062 246.222656 418.8125 248.117188 424.113281 251.417969 L 441.367188 262.171875 C 444.199219 263.9375 447.460938 264.875 450.804688 264.875 L 456.796875 264.875 C 462.078125 264.875 466.378906 269.160156 466.378906 274.433594 C 466.378906 278.984375 463.171875 282.800781 458.894531 283.757812 L 467.160156 298.976562 L 468.042969 298.976562 C 472.433594 298.976562 476.007812 302.539062 476.007812 306.917969 C 476.007812 315.335938 469.140625 322.183594 460.703125 322.183594 L 428.75 322.183594 C 420.3125 322.183594 413.445312 315.335938 413.445312 306.917969 C 413.445312 302.539062 417.019531 298.976562 421.410156 298.976562 L 422.292969 298.976562 L 432.929688 279.390625 C 432.34375 279.070312 431.769531 278.734375 431.210938 278.386719 L 413.957031 267.632812 C 412.324219 266.617188 410.550781 265.878906 408.699219 265.433594 L 414.839844 329.757812 C 419.140625 330.320312 422.695312 333.292969 424.085938 337.269531 C 429.355469 338.105469 433.394531 342.671875 433.394531 348.160156 L 433.394531 352.375 C 433.394531 356.265625 430.230469 359.421875 426.328125 359.421875 " fill-opacity="1" fill-rule="nonzero"/></g><g clip-path="url(#ed4c1077f8)"><path fill="#feebda" d="M 476.875 290.164062 L 475.992188 290.164062 L 467.726562 274.945312 C 472.003906 273.988281 475.210938 270.171875 475.210938 265.621094 C 475.210938 260.351562 470.910156 256.0625 465.628906 256.0625 L 459.636719 256.0625 C 456.292969 256.0625 453.03125 255.128906 450.199219 253.359375 L 432.945312 242.609375 C 427.644531 239.304688 421.621094 237.410156 415.410156 237.066406 C 413.664062 230.875 408.21875 226.148438 401.789062 225.632812 C 401.394531 225.601562 400.996094 225.585938 400.601562 225.585938 C 396.785156 225.585938 393.113281 226.992188 390.261719 229.550781 C 387.996094 231.578125 386.410156 234.191406 385.652344 237.070312 C 379.460938 237.421875 373.453125 239.316406 368.167969 242.609375 L 350.914062 253.363281 C 348.082031 255.128906 344.820312 256.0625 341.476562 256.0625 L 335.484375 256.0625 C 330.203125 256.0625 325.902344 260.351562 325.902344 265.621094 C 325.902344 270.171875 329.109375 273.988281 333.386719 274.945312 L 325.121094 290.164062 L 324.238281 290.164062 C 319.847656 290.164062 316.273438 293.726562 316.273438 298.105469 C 316.273438 306.523438 323.140625 313.375 331.578125 313.375 L 363.53125 313.375 C 371.96875 313.375 378.835938 306.523438 378.835938 298.105469 C 378.835938 293.726562 375.261719 290.164062 370.875 290.164062 L 369.988281 290.164062 L 359.351562 270.578125 C 359.9375 270.257812 360.507812 269.925781 361.070312 269.574219 L 378.320312 258.824219 C 379.957031 257.804688 381.730469 257.066406 383.582031 256.621094 L 377.441406 320.945312 C 373.140625 321.511719 369.589844 324.484375 368.195312 328.457031 C 362.925781 329.296875 358.886719 333.859375 358.886719 339.347656 L 358.886719 343.5625 C 358.886719 347.457031 362.050781 350.613281 365.953125 350.613281 L 435.160156 350.613281 C 439.0625 350.613281 442.226562 347.457031 442.226562 343.5625 L 442.226562 339.347656 C 442.226562 333.859375 438.1875 329.296875 432.917969 328.457031 C 431.527344 324.484375 427.972656 321.511719 423.671875 320.945312 L 417.53125 256.621094 C 419.382812 257.066406 421.15625 257.804688 422.789062 258.824219 L 440.042969 269.574219 C 440.601562 269.925781 441.175781 270.257812 441.761719 270.578125 L 431.125 290.164062 L 430.238281 290.164062 C 425.851562 290.164062 422.277344 293.726562 422.277344 298.105469 C 422.277344 306.523438 429.144531 313.375 437.582031 313.375 L 469.535156 313.375 C 477.972656 313.375 484.839844 306.523438 484.839844 298.105469 C 484.839844 293.726562 481.265625 290.164062 476.875 290.164062 " fill-opacity="1" fill-rule="nonzero"/></g><path fill="#d00000" d="M 452.039062 267.140625 L 452.082031 267.148438 C 452.785156 267.332031 453.496094 267.488281 454.210938 267.621094 L 454.25 267.628906 C 455.703125 267.890625 457.179688 268.050781 458.667969 268.097656 L 458.675781 268.097656 C 458.996094 268.109375 459.316406 268.132812 459.636719 268.132812 L 465.628906 268.132812 C 467.015625 268.132812 468.144531 267.007812 468.144531 265.621094 C 468.144531 264.238281 467.015625 263.109375 465.628906 263.109375 L 459.636719 263.109375 C 454.96875 263.109375 450.410156 261.808594 446.453125 259.339844 L 429.203125 248.585938 C 424.441406 245.621094 418.960938 244.054688 413.351562 244.054688 L 412.398438 244.054688 L 412.878906 249.074219 L 413.351562 249.074219 C 418.015625 249.074219 422.578125 250.378906 426.535156 252.84375 L 443.785156 263.597656 C 445.722656 264.804688 447.78125 265.765625 449.917969 266.5 L 449.921875 266.5 C 450.621094 266.738281 451.328125 266.953125 452.039062 267.140625 " fill-opacity="1" fill-rule="nonzero"/><path fill="#d00000" d="M 334.597656 297.214844 L 324.238281 297.214844 C 323.742188 297.214844 323.339844 297.613281 323.339844 298.105469 C 323.339844 302.636719 327.035156 306.324219 331.578125 306.324219 L 363.53125 306.324219 C 368.074219 306.324219 371.769531 302.636719 371.769531 298.105469 C 371.769531 297.613281 371.367188 297.214844 370.875 297.214844 L 334.597656 297.214844 " fill-opacity="1" fill-rule="nonzero"/><path fill="#d00000" d="M 452.171875 271.03125 C 452.285156 270.828125 452.4375 270.65625 452.617188 270.519531 C 451.792969 270.34375 450.980469 270.128906 450.171875 269.886719 L 437.039062 294.066406 L 439.660156 294.066406 L 452.171875 271.03125 " fill-opacity="1" fill-rule="nonzero"/><path fill="#d00000" d="M 400.558594 250.695312 C 397.289062 250.695312 394.632812 248.042969 394.632812 244.785156 C 394.632812 241.527344 397.289062 238.875 400.558594 238.875 C 403.824219 238.875 406.480469 241.527344 406.480469 244.785156 C 406.480469 248.042969 403.824219 250.695312 400.558594 250.695312 Z M 401.246094 232.660156 C 396.722656 232.3125 392.679688 235.667969 392.25 240.167969 L 384.34375 322.988281 C 384.285156 323.621094 384.105469 324.207031 383.855469 324.753906 L 402.25 324.753906 C 403.121094 324.753906 403.824219 325.457031 403.824219 326.324219 C 403.824219 327.191406 403.121094 327.898438 402.25 327.898438 L 378.933594 327.898438 C 376.558594 327.898438 374.625 329.824219 374.625 332.195312 L 374.625 332.226562 L 380.921875 332.226562 C 381.792969 332.226562 382.5 332.929688 382.5 333.796875 C 382.5 334.664062 381.792969 335.367188 380.921875 335.367188 L 369.941406 335.367188 C 367.742188 335.367188 365.953125 337.152344 365.953125 339.347656 L 365.953125 343.5625 L 435.160156 343.5625 L 435.160156 339.347656 C 435.160156 337.152344 433.371094 335.367188 431.171875 335.367188 L 390.445312 335.367188 C 389.574219 335.367188 388.871094 334.664062 388.871094 333.796875 C 388.871094 332.929688 389.574219 332.226562 390.445312 332.226562 L 426.488281 332.226562 L 426.488281 332.195312 C 426.488281 329.824219 424.554688 327.898438 422.179688 327.898438 L 409.136719 327.898438 C 408.265625 327.898438 407.558594 327.191406 407.558594 326.324219 C 407.558594 325.457031 408.265625 324.753906 409.136719 324.753906 L 417.257812 324.753906 C 417.007812 324.207031 416.828125 323.621094 416.769531 322.988281 L 409.34375 245.195312 L 409.097656 242.628906 L 408.894531 240.492188 C 408.496094 236.34375 405.210938 232.980469 401.246094 232.660156 " fill-opacity="1" fill-rule="nonzero"/><path fill="#d00000" d="M 440.601562 297.214844 L 430.238281 297.214844 C 429.746094 297.214844 429.34375 297.613281 429.34375 298.105469 C 429.34375 302.636719 433.039062 306.324219 437.582031 306.324219 L 469.535156 306.324219 C 474.078125 306.324219 477.773438 302.636719 477.773438 298.105469 C 477.773438 297.613281 477.371094 297.214844 476.875 297.214844 L 440.601562 297.214844 " fill-opacity="1" fill-rule="nonzero"/><path fill="#d00000" d="M 467.457031 294.066406 L 470.078125 294.066406 L 457.664062 271.207031 C 456.730469 271.152344 455.804688 271.0625 454.882812 270.929688 C 454.90625 270.964844 454.925781 270.996094 454.945312 271.03125 L 467.457031 294.066406 " fill-opacity="1" fill-rule="nonzero"/><path fill="#d00000" d="M 348.941406 271.03125 L 361.453125 294.066406 L 364.074219 294.066406 L 350.941406 269.886719 C 350.132812 270.128906 349.320312 270.34375 348.496094 270.519531 C 348.675781 270.65625 348.828125 270.828125 348.941406 271.03125 " fill-opacity="1" fill-rule="nonzero"/><path fill="#d00000" d="M 346.863281 267.628906 L 346.902344 267.621094 C 347.617188 267.488281 348.332031 267.332031 349.035156 267.148438 L 349.070312 267.140625 C 349.785156 266.953125 350.492188 266.738281 351.191406 266.5 L 351.195312 266.5 C 353.332031 265.765625 355.390625 264.804688 357.328125 263.597656 L 374.578125 252.84375 C 378.539062 250.378906 383.097656 249.074219 387.761719 249.074219 L 388.234375 249.074219 L 388.714844 244.054688 L 387.761719 244.054688 C 382.152344 244.054688 376.671875 245.621094 371.914062 248.585938 L 354.660156 259.339844 C 350.703125 261.808594 346.144531 263.109375 341.476562 263.109375 L 335.484375 263.109375 C 334.097656 263.109375 332.96875 264.238281 332.96875 265.621094 C 332.96875 267.007812 334.097656 268.132812 335.484375 268.132812 L 341.476562 268.132812 C 341.796875 268.132812 342.117188 268.109375 342.4375 268.097656 L 342.445312 268.097656 C 343.933594 268.050781 345.410156 267.890625 346.863281 267.628906 " fill-opacity="1" fill-rule="nonzero"/><path fill="#d00000" d="M 346.167969 271.03125 C 346.1875 270.996094 346.210938 270.964844 346.230469 270.929688 C 345.308594 271.0625 344.382812 271.152344 343.453125 271.207031 L 331.035156 294.066406 L 333.65625 294.066406 L 346.167969 271.03125 " fill-opacity="1" fill-rule="nonzero"/><g clip-path="url(#30dcd53984)"><path fill="#8a9f80" d="M 366.929688 278.808594 C 366.65625 278.808594 366.378906 278.785156 366.105469 278.738281 C 363.464844 278.289062 361.679688 275.785156 362.132812 273.15625 L 362.136719 273.140625 C 362.144531 273.097656 362.15625 273.039062 362.164062 272.996094 L 362.167969 272.976562 C 363.085938 268.621094 364.652344 264.164062 366.820312 259.726562 C 368.644531 256.015625 370.851562 252.332031 373.570312 248.484375 C 371.019531 248.339844 368.71875 247.582031 366.878906 246.273438 C 364.859375 244.835938 363.457031 242.761719 362.9375 240.441406 C 362.421875 238.15625 362.785156 235.734375 363.957031 233.621094 C 364.308594 232.984375 364.726562 232.386719 365.207031 231.824219 C 364.703125 231.292969 364.257812 230.714844 363.871094 230.097656 C 362.582031 228.027344 362.082031 225.597656 362.46875 223.261719 C 362.859375 220.882812 364.148438 218.722656 366.09375 217.179688 C 368.09375 215.59375 370.722656 214.6875 373.699219 214.566406 C 373.863281 214.558594 374.03125 214.554688 374.199219 214.554688 C 375.082031 214.554688 375.976562 214.652344 376.875 214.84375 C 376.59375 213.84375 376.417969 212.804688 376.390625 211.726562 C 376.285156 208.027344 377.4375 204.753906 379.640625 202.503906 C 381.496094 200.601562 383.960938 199.554688 386.570312 199.554688 C 389.003906 199.554688 391.28125 200.4375 393.160156 202.035156 C 395.085938 200.21875 397.542969 199.1875 400.203125 199.1875 C 402.914062 199.1875 405.449219 200.289062 407.339844 202.292969 C 409.28125 204.347656 410.378906 207.179688 410.515625 210.484375 C 410.5625 211.527344 410.46875 212.578125 410.238281 213.644531 C 411.242188 213.363281 412.289062 213.191406 413.375 213.160156 C 413.53125 213.15625 413.691406 213.152344 413.847656 213.152344 C 416.757812 213.152344 419.382812 213.925781 421.441406 215.390625 C 423.460938 216.828125 424.863281 218.898438 425.382812 221.222656 C 425.894531 223.507812 425.53125 225.929688 424.363281 228.042969 C 424.011719 228.675781 423.59375 229.277344 423.109375 229.839844 C 423.617188 230.371094 424.0625 230.949219 424.445312 231.566406 C 425.738281 233.636719 426.238281 236.066406 425.851562 238.402344 C 425.460938 240.78125 424.171875 242.9375 422.222656 244.484375 C 420.226562 246.070312 417.597656 246.976562 414.621094 247.097656 C 414.453125 247.105469 414.285156 247.109375 414.121094 247.109375 C 413.234375 247.109375 412.34375 247.011719 411.445312 246.820312 C 411.726562 247.820312 411.898438 248.859375 411.929688 249.9375 C 412.035156 253.636719 410.878906 256.910156 408.679688 259.160156 C 406.820312 261.0625 404.359375 262.109375 401.746094 262.109375 C 399.3125 262.109375 397.039062 261.226562 395.15625 259.628906 C 393.230469 261.445312 390.777344 262.476562 388.117188 262.476562 C 385.402344 262.476562 382.871094 261.371094 380.980469 259.371094 C 380.15625 258.5 379.484375 257.484375 378.972656 256.355469 C 377.503906 258.820312 376.257812 261.210938 375.203125 263.59375 C 373.515625 267.402344 372.34375 271.167969 371.722656 274.78125 L 371.71875 274.800781 C 371.3125 277.125 369.300781 278.808594 366.929688 278.808594 " fill-opacity="1" fill-rule="nonzero"/></g><g clip-path="url(#71d4c06626)"><path fill="#fdfcd3" d="M 428.792969 227.242188 C 428.410156 226.625 427.960938 226.050781 427.457031 225.515625 C 427.9375 224.957031 428.359375 224.355469 428.707031 223.71875 C 429.878906 221.605469 430.242188 219.183594 429.730469 216.898438 C 429.207031 214.578125 427.808594 212.503906 425.785156 211.066406 C 423.730469 209.605469 421.105469 208.832031 418.191406 208.832031 C 418.035156 208.832031 417.878906 208.832031 417.71875 208.835938 C 416.636719 208.867188 415.589844 209.039062 414.582031 209.320312 C 414.8125 208.257812 414.90625 207.203125 414.863281 206.160156 C 414.726562 202.859375 413.625 200.023438 411.683594 197.96875 C 409.796875 195.96875 407.261719 194.867188 404.546875 194.867188 C 401.886719 194.867188 399.433594 195.894531 397.507812 197.710938 C 395.628906 196.113281 393.351562 195.230469 390.917969 195.230469 C 388.304688 195.230469 385.84375 196.277344 383.984375 198.179688 C 381.785156 200.429688 380.632812 203.703125 380.734375 207.402344 C 380.765625 208.480469 380.9375 209.523438 381.222656 210.519531 C 380.320312 210.328125 379.429688 210.230469 378.546875 210.230469 C 378.378906 210.230469 378.210938 210.234375 378.046875 210.242188 C 375.070312 210.367188 372.441406 211.269531 370.441406 212.855469 C 368.496094 214.402344 367.207031 216.5625 366.8125 218.9375 C 366.429688 221.277344 366.925781 223.703125 368.21875 225.777344 C 368.601562 226.394531 369.050781 226.96875 369.554688 227.5 C 369.074219 228.0625 368.65625 228.664062 368.304688 229.296875 C 367.132812 231.414062 366.769531 233.835938 367.28125 236.117188 C 367.804688 238.441406 369.203125 240.511719 371.226562 241.953125 C 373.066406 243.261719 375.367188 244.019531 377.917969 244.164062 C 375.199219 248.011719 372.988281 251.691406 371.167969 255.40625 C 369 259.84375 367.433594 264.300781 366.515625 268.65625 L 366.507812 268.675781 C 366.5 268.71875 366.488281 268.777344 366.480469 268.820312 L 366.480469 268.832031 C 366.027344 271.460938 367.808594 273.964844 370.453125 274.414062 C 370.726562 274.460938 371 274.484375 371.273438 274.484375 C 373.644531 274.484375 375.65625 272.800781 376.0625 270.480469 L 376.066406 270.460938 C 376.691406 266.84375 377.859375 263.078125 379.546875 259.269531 C 380.605469 256.890625 381.851562 254.5 383.320312 252.035156 C 383.832031 253.164062 384.503906 254.175781 385.328125 255.050781 C 387.214844 257.050781 389.75 258.152344 392.464844 258.152344 C 395.125 258.152344 397.578125 257.125 399.503906 255.308594 C 401.382812 256.902344 403.660156 257.785156 406.09375 257.785156 C 408.707031 257.785156 411.167969 256.738281 413.027344 254.839844 C 415.226562 252.589844 416.382812 249.3125 416.277344 245.617188 C 416.246094 244.539062 416.074219 243.496094 415.789062 242.496094 C 416.691406 242.691406 417.582031 242.785156 418.464844 242.785156 C 418.632812 242.785156 418.800781 242.78125 418.96875 242.777344 C 421.945312 242.652344 424.574219 241.75 426.570312 240.164062 C 428.519531 238.617188 429.804688 236.457031 430.199219 234.082031 C 430.582031 231.742188 430.085938 229.3125 428.792969 227.242188 " fill-opacity="1" fill-rule="nonzero"/></g><path fill="#359a3c" d="M 421.53125 225.691406 C 429.632812 221.90625 427.363281 212.027344 417.816406 212.292969 C 412.574219 212.441406 407.824219 217.382812 405.441406 220.644531 C 403.757812 222.953125 401.042969 224.800781 399.152344 225.785156 C 400.074219 223.824219 401.859375 220.96875 403.875 219.15625 C 406.917969 216.414062 411.609375 211.519531 411.390625 206.304688 C 410.988281 196.792969 400.761719 195.644531 397.683594 203.613281 C 393.878906 195.554688 383.945312 197.8125 384.210938 207.304688 C 384.359375 212.519531 389.328125 217.246094 392.609375 219.613281 C 394.929688 221.285156 396.789062 223.988281 397.78125 225.867188 C 395.808594 224.949219 392.9375 223.175781 391.109375 221.171875 C 388.355469 218.144531 383.429688 213.480469 378.191406 213.695312 C 368.625 214.09375 367.46875 224.265625 375.480469 227.328125 C 367.378906 231.113281 369.648438 240.992188 379.195312 240.722656 C 384.4375 240.578125 389.191406 235.636719 391.570312 232.375 C 392.8125 230.671875 394.617188 229.21875 396.238281 228.175781 C 393.835938 230.582031 391.488281 233.042969 389.226562 235.582031 C 386.34375 238.816406 383.597656 242.183594 381.066406 245.722656 C 378.539062 249.261719 376.226562 252.980469 374.296875 256.917969 C 372.371094 260.851562 370.835938 265.019531 369.917969 269.363281 C 369.914062 269.378906 369.910156 269.402344 369.90625 269.417969 C 369.777344 270.167969 370.285156 270.878906 371.039062 271.007812 C 371.792969 271.136719 372.511719 270.628906 372.640625 269.878906 L 372.640625 269.875 C 373.347656 265.765625 374.65625 261.738281 376.367188 257.875 C 378.085938 254.003906 380.199219 250.296875 382.546875 246.730469 C 384.902344 243.164062 387.488281 239.738281 390.21875 236.429688 C 392.46875 233.707031 394.8125 231.0625 397.21875 228.476562 C 396.226562 230.273438 394.757812 232.40625 393.136719 233.863281 C 390.09375 236.605469 385.402344 241.5 385.621094 246.710938 C 386.023438 256.226562 396.25 257.375 399.328125 249.40625 C 403.136719 257.464844 413.066406 255.207031 412.800781 245.714844 C 412.652344 240.5 407.683594 235.773438 404.402344 233.40625 C 402.085938 231.734375 400.222656 229.03125 399.230469 227.152344 C 401.203125 228.070312 404.078125 229.84375 405.902344 231.847656 C 408.65625 234.875 413.582031 239.539062 418.820312 239.320312 C 428.390625 238.921875 429.542969 228.753906 421.53125 225.691406 " fill-opacity="1" fill-rule="nonzero"/><g fill="#000000" fill-opacity="1"><g transform="translate(287.324872, 408.315628)"><g><path d="M 3.1875 0.5 C 2.945312 0.5 2.578125 0.460938 2.078125 0.390625 C 1.703125 -0.015625 1.367188 -0.5625 1.078125 -1.25 C 0.785156 -1.945312 0.5625 -2.691406 0.40625 -3.484375 C 0.25 -4.273438 0.175781 -5.0625 0.1875 -5.84375 C 0.207031 -6.632812 0.34375 -7.335938 0.59375 -7.953125 C 0.59375 -7.972656 0.703125 -8.253906 0.921875 -8.796875 C 1.148438 -9.335938 1.441406 -10.023438 1.796875 -10.859375 C 2.148438 -11.703125 2.550781 -12.632812 3 -13.65625 C 3.445312 -14.6875 3.894531 -15.695312 4.34375 -16.6875 C 4.789062 -17.675781 5.21875 -18.578125 5.625 -19.390625 C 6.039062 -20.203125 6.40625 -20.832031 6.71875 -21.28125 C 6.925781 -21.613281 7.117188 -21.929688 7.296875 -22.234375 C 7.472656 -22.546875 7.644531 -22.832031 7.8125 -23.09375 C 8.070312 -23.507812 8.3125 -23.898438 8.53125 -24.265625 C 8.757812 -24.628906 9.007812 -24.957031 9.28125 -25.25 C 9.550781 -25.550781 9.847656 -25.8125 10.171875 -26.03125 C 10.503906 -26.257812 10.910156 -26.457031 11.390625 -26.625 C 11.671875 -26.5 11.914062 -26.375 12.125 -26.25 C 12.332031 -26.125 12.519531 -25.96875 12.6875 -25.78125 L 12.796875 -25.28125 C 12.847656 -25.113281 12.925781 -25 13.03125 -24.9375 C 13.132812 -24.882812 13.222656 -24.859375 13.296875 -24.859375 C 13.597656 -24.785156 13.859375 -24.707031 14.078125 -24.625 C 14.304688 -24.539062 14.550781 -24.488281 14.8125 -24.46875 C 14.90625 -24.320312 14.992188 -24.175781 15.078125 -24.03125 C 15.160156 -23.894531 15.25 -23.769531 15.34375 -23.65625 C 15.8125 -22.96875 16.195312 -22.304688 16.5 -21.671875 C 16.8125 -21.035156 16.816406 -20.34375 16.515625 -19.59375 L 16.546875 -19.203125 C 16.660156 -19.035156 16.71875 -18.878906 16.71875 -18.734375 C 16.71875 -18.597656 16.695312 -18.398438 16.65625 -18.140625 C 16.625 -17.953125 16.601562 -17.742188 16.59375 -17.515625 C 16.582031 -17.296875 16.613281 -17.054688 16.6875 -16.796875 L 16.9375 -16.515625 C 17.3125 -16.328125 17.675781 -16.234375 18.03125 -16.234375 C 18.5 -16.234375 18.921875 -16.335938 19.296875 -16.546875 C 19.679688 -16.753906 20.035156 -16.96875 20.359375 -17.1875 C 20.617188 -17.375 20.859375 -17.523438 21.078125 -17.640625 C 21.304688 -17.753906 21.53125 -17.835938 21.75 -17.890625 C 22.238281 -18.359375 22.6875 -18.773438 23.09375 -19.140625 C 23.507812 -19.503906 23.941406 -19.878906 24.390625 -20.265625 C 25.242188 -20.941406 26.070312 -21.675781 26.875 -22.46875 C 27.675781 -23.257812 28.3125 -24.242188 28.78125 -25.421875 C 29.039062 -25.585938 29.332031 -25.671875 29.65625 -25.671875 C 29.988281 -25.671875 30.316406 -25.601562 30.640625 -25.46875 C 30.972656 -25.34375 31.304688 -25.195312 31.640625 -25.03125 C 31.710938 -24.976562 31.773438 -24.941406 31.828125 -24.921875 C 31.890625 -24.898438 31.957031 -24.863281 32.03125 -24.8125 C 32.03125 -24.5625 32.132812 -24.328125 32.34375 -24.109375 C 32.46875 -24.015625 32.550781 -23.957031 32.59375 -23.9375 C 32.644531 -23.914062 32.691406 -23.890625 32.734375 -23.859375 C 32.921875 -23.742188 33.078125 -23.640625 33.203125 -23.546875 C 33.335938 -23.453125 33.441406 -23.320312 33.515625 -23.15625 C 33.722656 -22.519531 34.078125 -22.023438 34.578125 -21.671875 C 34.523438 -21.410156 34.535156 -21.15625 34.609375 -20.90625 C 34.679688 -20.664062 34.765625 -20.425781 34.859375 -20.1875 C 34.910156 -20.09375 34.945312 -20.003906 34.96875 -19.921875 C 34.988281 -19.835938 35.023438 -19.738281 35.078125 -19.625 L 34.296875 -19.6875 L 34.40625 -18.921875 C 34.46875 -18.515625 34.4375 -18.0625 34.3125 -17.5625 C 34.1875 -17.070312 34.039062 -16.6875 33.875 -16.40625 C 33.914062 -15.695312 33.9375 -15.132812 33.9375 -14.71875 C 33.9375 -14.3125 33.910156 -13.929688 33.859375 -13.578125 C 33.816406 -13.222656 33.742188 -12.882812 33.640625 -12.5625 C 33.535156 -12.25 33.398438 -11.914062 33.234375 -11.5625 C 33.328125 -9.769531 33.117188 -8.128906 32.609375 -6.640625 C 32.109375 -5.160156 31.5625 -3.769531 30.96875 -2.46875 C 30.894531 -2.3125 30.820312 -2.160156 30.75 -2.015625 C 30.6875 -1.867188 30.628906 -1.726562 30.578125 -1.59375 C 30.316406 -1.519531 30.082031 -1.4375 29.875 -1.34375 C 29.664062 -1.25 29.46875 -1.144531 29.28125 -1.03125 C 29.019531 -0.863281 28.757812 -0.722656 28.5 -0.609375 C 28.238281 -0.503906 27.96875 -0.453125 27.6875 -0.453125 C 26.550781 -1.285156 25.960938 -2.710938 25.921875 -4.734375 C 25.890625 -6.765625 26.320312 -9.347656 27.21875 -12.484375 C 27.382812 -12.597656 27.457031 -12.773438 27.4375 -13.015625 L 27.4375 -13.40625 L 27.078125 -13.4375 C 26.960938 -13.4375 26.859375 -13.421875 26.765625 -13.390625 C 26.671875 -13.367188 26.597656 -13.265625 26.546875 -13.078125 C 25.796875 -12.535156 24.976562 -11.972656 24.09375 -11.390625 C 23.207031 -10.816406 22.289062 -10.289062 21.34375 -9.8125 C 20.40625 -9.332031 19.445312 -8.929688 18.46875 -8.609375 C 17.488281 -8.285156 16.539062 -8.125 15.625 -8.125 C 13.269531 -8.125 11.488281 -9.328125 10.28125 -11.734375 L 9.96875 -12.375 L 9.609375 -11.8125 C 9.546875 -11.6875 9.425781 -11.453125 9.25 -11.109375 C 9.070312 -10.773438 8.894531 -10.382812 8.71875 -9.9375 C 8.539062 -9.488281 8.382812 -9.023438 8.25 -8.546875 C 8.125 -8.078125 8.082031 -7.664062 8.125 -7.3125 C 7.84375 -7.050781 7.566406 -6.753906 7.296875 -6.421875 C 7.023438 -6.097656 6.832031 -5.722656 6.71875 -5.296875 C 6.664062 -5.179688 6.648438 -5.070312 6.671875 -4.96875 C 6.703125 -4.863281 6.738281 -4.75 6.78125 -4.625 C 6.757812 -4.46875 6.710938 -4.351562 6.640625 -4.28125 C 6.578125 -4.207031 6.5 -4.132812 6.40625 -4.0625 C 6.28125 -3.945312 6.160156 -3.820312 6.046875 -3.6875 C 5.929688 -3.5625 5.828125 -3.414062 5.734375 -3.25 C 5.679688 -3.113281 5.644531 -2.96875 5.625 -2.8125 C 5.601562 -2.65625 5.578125 -2.519531 5.546875 -2.40625 C 5.546875 -2.144531 5.507812 -1.96875 5.4375 -1.875 C 5.207031 -1.375 5.003906 -0.960938 4.828125 -0.640625 C 4.648438 -0.328125 4.476562 -0.09375 4.3125 0.0625 C 4.144531 0.226562 3.972656 0.34375 3.796875 0.40625 C 3.617188 0.46875 3.414062 0.5 3.1875 0.5 Z M 3.1875 0.5 "/></g></g></g><g fill="#000000" fill-opacity="1"><g transform="translate(322.564625, 408.315628)"><g><path d="M 20.609375 -10.609375 C 20.585938 -10.328125 20.609375 -10.054688 20.671875 -9.796875 C 20.742188 -9.535156 20.832031 -9.28125 20.9375 -9.03125 C 21.050781 -8.78125 21.15625 -8.523438 21.25 -8.265625 C 21.34375 -8.015625 21.410156 -7.757812 21.453125 -7.5 C 21.503906 -7.164062 21.503906 -6.800781 21.453125 -6.40625 C 21.410156 -6.019531 21.328125 -5.644531 21.203125 -5.28125 C 21.085938 -4.914062 20.9375 -4.585938 20.75 -4.296875 C 20.5625 -4.003906 20.335938 -3.785156 20.078125 -3.640625 C 19.753906 -3.210938 19.351562 -2.878906 18.875 -2.640625 C 18.40625 -2.410156 17.972656 -2.128906 17.578125 -1.796875 C 17.316406 -1.640625 17.023438 -1.523438 16.703125 -1.453125 C 16.390625 -1.378906 16.066406 -1.304688 15.734375 -1.234375 C 15.472656 -1.097656 15.164062 -0.953125 14.8125 -0.796875 C 14.457031 -0.640625 14.09375 -0.492188 13.71875 -0.359375 C 13.34375 -0.234375 12.960938 -0.140625 12.578125 -0.078125 C 12.203125 -0.0234375 11.875 -0.0078125 11.59375 -0.03125 C 10.882812 0.226562 10.191406 0.394531 9.515625 0.46875 C 8.847656 0.550781 8.066406 0.5 7.171875 0.3125 C 6.328125 0.4375 5.546875 0.398438 4.828125 0.203125 C 4.109375 0.015625 3.46875 -0.28125 2.90625 -0.6875 C 2.351562 -1.101562 1.867188 -1.597656 1.453125 -2.171875 C 1.046875 -2.753906 0.710938 -3.363281 0.453125 -4 C 0.265625 -5.34375 0.3125 -6.5625 0.59375 -7.65625 C 0.882812 -8.75 1.289062 -9.757812 1.8125 -10.6875 C 2.34375 -11.625 2.953125 -12.484375 3.640625 -13.265625 C 4.328125 -14.054688 4.988281 -14.832031 5.625 -15.59375 C 5.757812 -15.539062 5.867188 -15.546875 5.953125 -15.609375 C 6.035156 -15.671875 6.113281 -15.753906 6.1875 -15.859375 C 6.257812 -15.960938 6.335938 -16.0625 6.421875 -16.15625 C 6.503906 -16.25 6.601562 -16.304688 6.71875 -16.328125 C 6.882812 -16.679688 7.125 -16.945312 7.4375 -17.125 C 7.757812 -17.300781 8.015625 -17.554688 8.203125 -17.890625 C 8.410156 -17.929688 8.582031 -18 8.71875 -18.09375 C 8.863281 -18.195312 9 -18.304688 9.125 -18.421875 C 9.257812 -18.535156 9.398438 -18.644531 9.546875 -18.75 C 9.691406 -18.863281 9.859375 -18.941406 10.046875 -18.984375 L 10.046875 -19.375 C 10.460938 -19.5625 10.769531 -19.78125 10.96875 -20.03125 C 11.175781 -20.28125 11.421875 -20.582031 11.703125 -20.9375 C 11.910156 -20.957031 12.078125 -20.96875 12.203125 -20.96875 C 12.335938 -20.96875 12.535156 -20.988281 12.796875 -21.03125 C 12.984375 -21.363281 13.15625 -21.613281 13.3125 -21.78125 C 13.46875 -21.945312 13.695312 -22.125 14 -22.3125 C 14.28125 -22.164062 14.59375 -22.066406 14.9375 -22.015625 C 15.28125 -21.972656 15.582031 -21.820312 15.84375 -21.5625 C 15.863281 -21.332031 15.929688 -21.148438 16.046875 -21.015625 C 16.171875 -20.890625 16.300781 -20.769531 16.4375 -20.65625 C 16.582031 -20.550781 16.71875 -20.441406 16.84375 -20.328125 C 16.976562 -20.210938 17.066406 -20.046875 17.109375 -19.828125 C 17.203125 -19.804688 17.265625 -19.816406 17.296875 -19.859375 C 17.335938 -19.910156 17.40625 -19.925781 17.5 -19.90625 C 17.570312 -19.570312 17.65625 -19.351562 17.75 -19.25 C 17.84375 -19.144531 17.9375 -18.9375 18.03125 -18.625 C 17.914062 -18.394531 17.828125 -18.15625 17.765625 -17.90625 C 17.703125 -17.65625 17.554688 -17.472656 17.328125 -17.359375 C 17.296875 -17.191406 17.335938 -17.101562 17.453125 -17.09375 C 17.578125 -17.082031 17.648438 -17.019531 17.671875 -16.90625 C 17.703125 -16.6875 17.671875 -16.53125 17.578125 -16.4375 C 18.140625 -15.519531 18.644531 -14.546875 19.09375 -13.515625 C 19.539062 -12.492188 20.046875 -11.523438 20.609375 -10.609375 Z M 16.1875 -7.25 C 16.28125 -7.507812 16.40625 -7.71875 16.5625 -7.875 C 16.71875 -8.039062 16.804688 -8.289062 16.828125 -8.625 C 16.710938 -8.8125 16.640625 -8.957031 16.609375 -9.0625 C 16.585938 -9.175781 16.578125 -9.347656 16.578125 -9.578125 C 16.054688 -10.304688 15.609375 -11.085938 15.234375 -11.921875 C 14.859375 -12.765625 14.4375 -13.550781 13.96875 -14.28125 C 13.914062 -14.1875 13.832031 -14.09375 13.71875 -14 C 13.601562 -13.90625 13.472656 -13.929688 13.328125 -14.078125 C 13.285156 -13.878906 13.203125 -13.738281 13.078125 -13.65625 C 12.960938 -13.582031 12.832031 -13.550781 12.6875 -13.5625 C 12.550781 -13.570312 12.40625 -13.601562 12.25 -13.65625 C 12.09375 -13.71875 11.957031 -13.796875 11.84375 -13.890625 C 11.15625 -13.347656 10.46875 -12.816406 9.78125 -12.296875 C 9.101562 -11.785156 8.492188 -11.1875 7.953125 -10.5 C 7.859375 -10.445312 7.800781 -10.425781 7.78125 -10.4375 C 7.757812 -10.457031 7.6875 -10.441406 7.5625 -10.390625 C 7.375 -9.941406 7.144531 -9.535156 6.875 -9.171875 C 6.601562 -8.804688 6.335938 -8.4375 6.078125 -8.0625 C 5.816406 -7.6875 5.59375 -7.285156 5.40625 -6.859375 C 5.21875 -6.429688 5.113281 -5.9375 5.09375 -5.375 C 5.488281 -5.039062 5.957031 -4.835938 6.5 -4.765625 C 7.039062 -4.703125 7.597656 -4.691406 8.171875 -4.734375 C 8.753906 -4.785156 9.320312 -4.863281 9.875 -4.96875 C 10.4375 -5.070312 10.953125 -5.125 11.421875 -5.125 C 12.410156 -5.363281 13.257812 -5.675781 13.96875 -6.0625 C 14.675781 -6.445312 15.414062 -6.84375 16.1875 -7.25 Z M 16.1875 -7.25 "/></g></g></g><g fill="#000000" fill-opacity="1"><g transform="translate(345.327313, 408.315628)"><g><path d="M 5.6875 -3.671875 C 5.425781 -2.734375 5.195312 -2.019531 5 -1.53125 C 4.800781 -1.050781 4.5 -0.550781 4.09375 -0.03125 C 3.789062 -0.0820312 3.578125 -0.0507812 3.453125 0.0625 C 3.335938 0.1875 3.210938 0.296875 3.078125 0.390625 C 2.859375 0.429688 2.703125 0.425781 2.609375 0.375 C 2.515625 0.332031 2.429688 0.28125 2.359375 0.21875 C 2.296875 0.164062 2.207031 0.109375 2.09375 0.046875 C 1.988281 -0.00390625 1.832031 -0.03125 1.625 -0.03125 C 1.582031 -0.21875 1.53125 -0.394531 1.46875 -0.5625 C 1.40625 -0.726562 1.242188 -0.789062 0.984375 -0.75 C 1.035156 -0.9375 1.046875 -1.09375 1.015625 -1.21875 C 0.992188 -1.351562 0.96875 -1.472656 0.9375 -1.578125 C 0.90625 -1.679688 0.875 -1.785156 0.84375 -1.890625 C 0.820312 -1.992188 0.835938 -2.128906 0.890625 -2.296875 C 0.765625 -2.296875 0.664062 -2.378906 0.59375 -2.546875 C 0.53125 -2.710938 0.453125 -2.878906 0.359375 -3.046875 C 0.421875 -3.460938 0.488281 -3.859375 0.5625 -4.234375 C 0.632812 -4.617188 0.722656 -4.972656 0.828125 -5.296875 C 0.929688 -5.628906 1.019531 -5.957031 1.09375 -6.28125 C 1.164062 -6.613281 1.128906 -6.957031 0.984375 -7.3125 C 1.078125 -7.25 1.144531 -7.269531 1.1875 -7.375 C 1.238281 -7.476562 1.273438 -7.617188 1.296875 -7.796875 C 1.328125 -7.972656 1.34375 -8.148438 1.34375 -8.328125 C 1.34375 -8.503906 1.332031 -8.648438 1.3125 -8.765625 C 1.539062 -9.378906 1.734375 -10.007812 1.890625 -10.65625 C 2.046875 -11.300781 2.1875 -11.941406 2.3125 -12.578125 C 2.445312 -13.222656 2.582031 -13.847656 2.71875 -14.453125 C 2.863281 -15.066406 3.050781 -15.632812 3.28125 -16.15625 C 3.539062 -16.207031 3.828125 -16.175781 4.140625 -16.0625 C 4.460938 -15.957031 4.660156 -15.820312 4.734375 -15.65625 C 5.347656 -16.132812 5.890625 -16.707031 6.359375 -17.375 C 6.835938 -18.050781 7.320312 -18.707031 7.8125 -19.34375 C 8.3125 -19.976562 8.859375 -20.539062 9.453125 -21.03125 C 10.054688 -21.53125 10.816406 -21.828125 11.734375 -21.921875 C 12.203125 -21.566406 12.722656 -21.207031 13.296875 -20.84375 C 13.878906 -20.476562 14.363281 -20 14.75 -19.40625 C 14.9375 -19.3125 15.09375 -19.210938 15.21875 -19.109375 C 15.351562 -19.003906 15.515625 -18.890625 15.703125 -18.765625 L 15.703125 -18.34375 C 15.984375 -18.082031 16.210938 -17.78125 16.390625 -17.4375 C 16.566406 -17.101562 16.722656 -16.738281 16.859375 -16.34375 C 17.003906 -15.957031 17.144531 -15.566406 17.28125 -15.171875 C 17.425781 -14.785156 17.59375 -14.421875 17.78125 -14.078125 C 17.738281 -13.953125 17.71875 -13.847656 17.71875 -13.765625 C 17.71875 -13.679688 17.734375 -13.59375 17.765625 -13.5 C 17.796875 -13.40625 17.820312 -13.3125 17.84375 -13.21875 C 17.875 -13.125 17.878906 -12.992188 17.859375 -12.828125 C 17.785156 -11.796875 17.445312 -10.960938 16.84375 -10.328125 C 16.238281 -9.691406 15.515625 -9.164062 14.671875 -8.75 C 13.828125 -8.332031 12.921875 -7.984375 11.953125 -7.703125 C 10.984375 -7.421875 10.109375 -7.113281 9.328125 -6.78125 C 9.328125 -6.6875 9.367188 -6.640625 9.453125 -6.640625 C 9.535156 -6.640625 9.566406 -6.582031 9.546875 -6.46875 C 10.109375 -6.113281 10.554688 -5.828125 10.890625 -5.609375 C 11.222656 -5.398438 11.535156 -5.222656 11.828125 -5.078125 C 12.117188 -4.941406 12.4375 -4.820312 12.78125 -4.71875 C 13.125 -4.613281 13.601562 -4.488281 14.21875 -4.34375 C 14.820312 -4.207031 15.296875 -4.097656 15.640625 -4.015625 C 15.984375 -3.929688 16.296875 -3.859375 16.578125 -3.796875 C 16.859375 -3.742188 17.144531 -3.695312 17.4375 -3.65625 C 17.738281 -3.625 18.160156 -3.582031 18.703125 -3.53125 C 18.910156 -3.320312 19.09375 -3.066406 19.25 -2.765625 C 19.40625 -2.472656 19.503906 -2.179688 19.546875 -1.890625 C 19.597656 -1.597656 19.609375 -1.316406 19.578125 -1.046875 C 19.554688 -0.773438 19.476562 -0.554688 19.34375 -0.390625 C 19.363281 -0.316406 19.414062 -0.285156 19.5 -0.296875 C 19.582031 -0.304688 19.671875 -0.300781 19.765625 -0.28125 C 19.617188 -0.1875 19.5 -0.0703125 19.40625 0.0625 C 19.3125 0.207031 19.21875 0.347656 19.125 0.484375 C 19.03125 0.628906 18.921875 0.753906 18.796875 0.859375 C 18.679688 0.972656 18.519531 1.039062 18.3125 1.0625 C 17.582031 1.34375 16.660156 1.359375 15.546875 1.109375 C 14.441406 0.867188 13.039062 0.414062 11.34375 -0.25 C 10.5 -0.582031 9.8125 -0.867188 9.28125 -1.109375 C 8.75 -1.359375 8.285156 -1.609375 7.890625 -1.859375 C 7.503906 -2.109375 7.148438 -2.375 6.828125 -2.65625 C 6.515625 -2.9375 6.132812 -3.273438 5.6875 -3.671875 Z M 10.75 -15.796875 C 10.488281 -15.421875 10.195312 -15.078125 9.875 -14.765625 C 9.5625 -14.460938 9.253906 -14.148438 8.953125 -13.828125 C 8.660156 -13.515625 8.394531 -13.164062 8.15625 -12.78125 C 7.925781 -12.394531 7.765625 -11.941406 7.671875 -11.421875 C 8.492188 -11.515625 9.351562 -11.742188 10.25 -12.109375 C 11.144531 -12.472656 11.992188 -12.820312 12.796875 -13.15625 C 12.703125 -13.882812 12.445312 -14.472656 12.03125 -14.921875 C 11.625 -15.367188 11.195312 -15.660156 10.75 -15.796875 Z M 10.75 -15.796875 "/></g></g></g><g fill="#000000" fill-opacity="1"><g transform="translate(364.908881, 408.315628)"><g><path d="M 18.703125 -2.96875 C 18.554688 -2.570312 18.347656 -2.164062 18.078125 -1.75 C 17.804688 -1.332031 17.488281 -0.960938 17.125 -0.640625 C 16.757812 -0.328125 16.351562 -0.0664062 15.90625 0.140625 C 15.457031 0.347656 14.988281 0.46875 14.5 0.5 C 14.1875 0.425781 13.976562 0.347656 13.875 0.265625 C 13.769531 0.179688 13.660156 0.101562 13.546875 0.03125 C 13.472656 -0.0078125 13.40625 -0.046875 13.34375 -0.078125 C 13.289062 -0.117188 13.238281 -0.148438 13.1875 -0.171875 L 12.765625 -0.359375 L 12.90625 -0.8125 C 12.945312 -1 12.929688 -1.144531 12.859375 -1.25 C 12.796875 -1.363281 12.65625 -1.515625 12.4375 -1.703125 C 12.375 -1.765625 12.304688 -1.832031 12.234375 -1.90625 C 12.160156 -1.976562 12.101562 -2.050781 12.0625 -2.125 L 11.453125 -2.796875 L 12.40625 -3.046875 C 13 -3.203125 13.394531 -3.410156 13.59375 -3.671875 C 13.789062 -3.929688 13.867188 -4.367188 13.828125 -4.984375 C 13.347656 -5.078125 12.945312 -5.085938 12.625 -5.015625 C 12.3125 -4.953125 11.992188 -4.867188 11.671875 -4.765625 C 11.242188 -4.648438 10.8125 -4.550781 10.375 -4.46875 C 9.9375 -4.382812 9.457031 -4.34375 8.9375 -4.34375 C 8.75 -4.34375 8.570312 -4.347656 8.40625 -4.359375 C 8.25 -4.378906 8.078125 -4.398438 7.890625 -4.421875 L 7.53125 -4.484375 C 7.476562 -4.742188 7.425781 -4.890625 7.375 -4.921875 C 7.332031 -4.960938 7.289062 -5.007812 7.25 -5.0625 C 7.132812 -5.175781 7.007812 -5.332031 6.875 -5.53125 C 6.75 -5.726562 6.71875 -5.984375 6.78125 -6.296875 C 6.664062 -6.503906 6.597656 -6.710938 6.578125 -6.921875 C 6.429688 -6.640625 6.320312 -6.347656 6.25 -6.046875 L 6.109375 -5.6875 L 5.765625 -5.625 C 5.710938 -5.601562 5.675781 -5.550781 5.65625 -5.46875 C 5.632812 -5.382812 5.625 -5.316406 5.625 -5.265625 L 5.4375 -4.671875 C 5.394531 -4.617188 5.347656 -4.570312 5.296875 -4.53125 C 5.253906 -4.5 5.207031 -4.460938 5.15625 -4.421875 C 5.113281 -4.203125 5.054688 -3.988281 4.984375 -3.78125 C 4.910156 -3.570312 4.835938 -3.375 4.765625 -3.1875 C 4.648438 -2.875 4.550781 -2.570312 4.46875 -2.28125 C 4.382812 -1.988281 4.359375 -1.703125 4.390625 -1.421875 L 4.25 -1.03125 C 4.125 -0.882812 3.988281 -0.769531 3.84375 -0.6875 C 3.707031 -0.601562 3.566406 -0.523438 3.421875 -0.453125 C 3.378906 -0.410156 3.316406 -0.367188 3.234375 -0.328125 C 3.148438 -0.296875 3.085938 -0.269531 3.046875 -0.25 L 2.9375 0.140625 L 2.515625 0.21875 C 2.253906 0.257812 2.066406 0.289062 1.953125 0.3125 C 1.847656 0.34375 1.726562 0.359375 1.59375 0.359375 L 1.234375 0.3125 C 0.972656 0.101562 0.769531 -0.0625 0.625 -0.1875 C 0.488281 -0.320312 0.328125 -0.445312 0.140625 -0.5625 C -0.0664062 -0.84375 -0.179688 -1.054688 -0.203125 -1.203125 C -0.234375 -1.347656 -0.257812 -1.476562 -0.28125 -1.59375 C -0.332031 -1.726562 -0.363281 -1.84375 -0.375 -1.9375 C -0.382812 -2.03125 -0.410156 -2.101562 -0.453125 -2.15625 L -0.921875 -2.578125 L -0.53125 -2.90625 L -0.5 -3.5 C -0.0195312 -4.695312 0.476562 -5.847656 1 -6.953125 C 1.53125 -8.066406 2.082031 -9.203125 2.65625 -10.359375 C 2.84375 -10.734375 3.023438 -11.109375 3.203125 -11.484375 C 3.378906 -11.867188 3.5625 -12.25 3.75 -12.625 C 3.726562 -12.695312 3.71875 -12.78125 3.71875 -12.875 C 3.71875 -12.96875 3.738281 -13.070312 3.78125 -13.1875 C 4.039062 -13.582031 4.253906 -13.941406 4.421875 -14.265625 C 4.585938 -14.585938 4.753906 -14.910156 4.921875 -15.234375 C 5.109375 -15.640625 5.300781 -16.03125 5.5 -16.40625 C 5.695312 -16.78125 5.945312 -17.171875 6.25 -17.578125 L 6.828125 -17.8125 C 6.890625 -17.84375 6.96875 -17.875 7.0625 -17.90625 C 7.164062 -17.9375 7.273438 -17.953125 7.390625 -17.953125 L 7.921875 -17.890625 C 8.578125 -18.191406 9.148438 -18.617188 9.640625 -19.171875 C 10.140625 -19.734375 10.648438 -20.398438 11.171875 -21.171875 L 11.53125 -21.671875 L 11.984375 -21.390625 C 12.097656 -21.316406 12.257812 -21.25 12.46875 -21.1875 C 12.6875 -21.132812 12.914062 -21.070312 13.15625 -21 C 13.570312 -20.90625 13.96875 -20.796875 14.34375 -20.671875 C 14.726562 -20.554688 15.035156 -20.382812 15.265625 -20.15625 C 15.410156 -19.78125 15.492188 -19.492188 15.515625 -19.296875 C 15.546875 -19.109375 15.582031 -18.921875 15.625 -18.734375 C 15.695312 -18.335938 15.757812 -17.9375 15.8125 -17.53125 C 15.875 -17.132812 15.914062 -16.6875 15.9375 -16.1875 C 16.0625 -15.789062 16.164062 -15.394531 16.25 -15 C 16.332031 -14.613281 16.40625 -14.222656 16.46875 -13.828125 C 16.59375 -13.253906 16.710938 -12.703125 16.828125 -12.171875 C 16.941406 -11.648438 17.09375 -11.148438 17.28125 -10.671875 C 17.476562 -10.671875 17.597656 -10.660156 17.640625 -10.640625 C 17.753906 -10.691406 17.875 -10.726562 18 -10.75 C 18.132812 -10.769531 18.285156 -10.789062 18.453125 -10.8125 L 18.84375 -10.859375 L 18.984375 -10.5 C 19.003906 -10.382812 19.125 -10.265625 19.34375 -10.140625 C 19.644531 -10.117188 19.863281 -10.054688 20 -9.953125 C 20.144531 -9.847656 20.28125 -9.734375 20.40625 -9.609375 C 20.5 -9.515625 20.59375 -9.445312 20.6875 -9.40625 L 21.21875 -9.1875 L 20.9375 -8.65625 C 20.695312 -8.238281 20.359375 -7.832031 19.921875 -7.4375 C 19.484375 -7.050781 18.992188 -6.726562 18.453125 -6.46875 C 18.472656 -6.320312 18.488281 -6.1875 18.5 -6.0625 C 18.519531 -5.9375 18.550781 -5.800781 18.59375 -5.65625 C 18.664062 -5.257812 18.722656 -4.847656 18.765625 -4.421875 C 18.816406 -3.992188 18.816406 -3.554688 18.765625 -3.109375 Z M 8.484375 -9.09375 C 9.191406 -9.132812 9.832031 -9.179688 10.40625 -9.234375 C 10.988281 -9.296875 11.632812 -9.398438 12.34375 -9.546875 C 12.175781 -10.253906 12 -10.988281 11.8125 -11.75 C 11.625 -12.519531 11.421875 -13.28125 11.203125 -14.03125 L 11 -13.6875 C 10.519531 -13.1875 10.0625 -12.628906 9.625 -12.015625 C 9.195312 -11.398438 8.828125 -10.820312 8.515625 -10.28125 C 8.378906 -10.070312 8.238281 -9.859375 8.09375 -9.640625 C 7.957031 -9.429688 7.828125 -9.222656 7.703125 -9.015625 C 7.847656 -9.035156 7.984375 -9.046875 8.109375 -9.046875 C 8.242188 -9.046875 8.367188 -9.0625 8.484375 -9.09375 Z M 8.484375 -9.09375 "/></g></g></g><g fill="#000000" fill-opacity="1"><g transform="translate(385.939626, 408.315628)"><g><path d="M 9.328125 -0.390625 C 8.671875 -0.179688 7.953125 0.0234375 7.171875 0.234375 C 6.398438 0.453125 5.625 0.5625 4.84375 0.5625 C 3.664062 0.5625 2.734375 0.269531 2.046875 -0.3125 C 1.929688 -0.570312 1.828125 -0.75 1.734375 -0.84375 C 1.660156 -0.9375 1.59375 -1.035156 1.53125 -1.140625 C 1.476562 -1.253906 1.441406 -1.40625 1.421875 -1.59375 C 1.128906 -1.914062 0.898438 -2.296875 0.734375 -2.734375 C 0.578125 -3.171875 0.46875 -3.617188 0.40625 -4.078125 C 0.34375 -4.535156 0.328125 -5 0.359375 -5.46875 C 0.398438 -5.945312 0.476562 -6.398438 0.59375 -6.828125 C 0.644531 -6.921875 0.675781 -7.015625 0.6875 -7.109375 C 0.695312 -7.203125 0.71875 -7.304688 0.75 -7.421875 C 0.84375 -7.796875 0.941406 -8.160156 1.046875 -8.515625 C 1.148438 -8.867188 1.296875 -9.175781 1.484375 -9.4375 C 1.390625 -9.65625 1.390625 -9.890625 1.484375 -10.140625 C 1.578125 -10.398438 1.679688 -10.640625 1.796875 -10.859375 C 2.128906 -11.753906 2.40625 -12.515625 2.625 -13.140625 C 2.851562 -13.765625 3.085938 -14.378906 3.328125 -14.984375 C 3.722656 -16.046875 4.097656 -17.09375 4.453125 -18.125 C 4.804688 -19.164062 5.125 -20.289062 5.40625 -21.5 C 5.59375 -21.613281 5.734375 -21.695312 5.828125 -21.75 C 5.972656 -21.789062 6.09375 -21.820312 6.1875 -21.84375 C 6.613281 -21.632812 7.109375 -21.429688 7.671875 -21.234375 C 8.234375 -21.035156 8.707031 -20.9375 9.09375 -20.9375 C 9.28125 -20.8125 9.394531 -20.71875 9.4375 -20.65625 C 9.488281 -20.601562 9.535156 -20.550781 9.578125 -20.5 C 9.835938 -20.195312 10.0625 -19.882812 10.25 -19.5625 C 10.4375 -19.25 10.492188 -18.832031 10.421875 -18.3125 C 10.285156 -18.101562 10.179688 -18 10.109375 -18 C 9.992188 -17.519531 9.867188 -17.113281 9.734375 -16.78125 C 9.609375 -16.457031 9.472656 -16.128906 9.328125 -15.796875 C 9.171875 -15.441406 9.019531 -15.085938 8.875 -14.734375 C 8.726562 -14.390625 8.609375 -13.957031 8.515625 -13.4375 C 8.421875 -13.320312 8.351562 -13.210938 8.3125 -13.109375 C 8.28125 -13.015625 8.242188 -12.910156 8.203125 -12.796875 C 8.148438 -12.679688 8.09375 -12.554688 8.03125 -12.421875 C 7.976562 -12.296875 7.894531 -12.1875 7.78125 -12.09375 C 7.707031 -11.476562 7.59375 -10.984375 7.4375 -10.609375 C 7.289062 -10.234375 7.132812 -9.851562 6.96875 -9.46875 C 6.6875 -8.789062 6.429688 -8.109375 6.203125 -7.421875 C 5.984375 -6.742188 5.847656 -5.96875 5.796875 -5.09375 C 5.910156 -5.132812 6.019531 -5.15625 6.125 -5.15625 C 6.238281 -5.15625 6.34375 -5.15625 6.4375 -5.15625 C 6.644531 -5.15625 6.890625 -5.125 7.171875 -5.0625 C 7.878906 -5.4375 8.648438 -5.65625 9.484375 -5.71875 C 10.328125 -5.789062 11.160156 -5.84375 11.984375 -5.875 C 12.316406 -5.875 12.644531 -5.875 12.96875 -5.875 C 13.300781 -5.875 13.609375 -5.894531 13.890625 -5.9375 C 14.109375 -5.820312 14.242188 -5.757812 14.296875 -5.75 C 14.359375 -5.738281 14.445312 -5.734375 14.5625 -5.734375 C 14.726562 -5.734375 14.867188 -5.71875 14.984375 -5.6875 C 15.273438 -5.425781 15.546875 -5.238281 15.796875 -5.125 C 16.054688 -5.007812 16.328125 -4.90625 16.609375 -4.8125 C 16.867188 -4.71875 17.125 -4.613281 17.375 -4.5 C 17.625 -4.394531 17.867188 -4.25 18.109375 -4.0625 L 18.34375 -2.546875 C 18.507812 -2.335938 18.582031 -2.195312 18.5625 -2.125 C 18.5625 -1.9375 18.515625 -1.796875 18.421875 -1.703125 L 18.484375 -1.3125 C 18.128906 -1.238281 17.890625 -1.15625 17.765625 -1.0625 C 17.640625 -0.96875 17.515625 -0.863281 17.390625 -0.75 C 17.203125 -0.71875 17.066406 -0.703125 16.984375 -0.703125 C 16.898438 -0.703125 16.828125 -0.703125 16.765625 -0.703125 C 16.429688 -0.703125 16.03125 -0.644531 15.5625 -0.53125 C 14.914062 -0.738281 14.253906 -0.84375 13.578125 -0.84375 C 13.316406 -0.84375 13.046875 -0.832031 12.765625 -0.8125 C 12.484375 -0.789062 12.203125 -0.769531 11.921875 -0.75 C 11.628906 -0.695312 11.335938 -0.65625 11.046875 -0.625 C 10.753906 -0.601562 10.453125 -0.59375 10.140625 -0.59375 Z M 9.328125 -0.390625 "/></g></g></g><g fill="#000000" fill-opacity="1"><g transform="translate(405.238428, 408.315628)"><g/></g></g><g fill="#000000" fill-opacity="1"><g transform="translate(418.634483, 408.315628)"><g><path d="M 2.015625 -1.3125 C 1.921875 -1.40625 1.835938 -1.515625 1.765625 -1.640625 C 1.691406 -1.773438 1.632812 -1.945312 1.59375 -2.15625 C 1.257812 -2.550781 1 -3.007812 0.8125 -3.53125 C 0.625 -4.050781 0.492188 -4.585938 0.421875 -5.140625 C 0.347656 -5.691406 0.332031 -6.25 0.375 -6.8125 C 0.425781 -7.382812 0.515625 -7.921875 0.640625 -8.421875 C 0.710938 -8.648438 0.769531 -8.894531 0.8125 -9.15625 C 0.925781 -9.601562 1.039062 -10.046875 1.15625 -10.484375 C 1.28125 -10.921875 1.460938 -11.28125 1.703125 -11.5625 C 1.609375 -11.820312 1.617188 -12.101562 1.734375 -12.40625 C 1.847656 -12.71875 1.960938 -13.003906 2.078125 -13.265625 C 2.128906 -13.328125 2.164062 -13.390625 2.1875 -13.453125 C 2.21875 -13.515625 2.242188 -13.566406 2.265625 -13.609375 C 2.546875 -14.429688 2.820312 -15.222656 3.09375 -15.984375 C 3.363281 -16.753906 3.628906 -17.492188 3.890625 -18.203125 C 4.359375 -19.503906 4.8125 -20.78125 5.25 -22.03125 C 5.6875 -23.28125 6.082031 -24.609375 6.4375 -26.015625 C 6.625 -26.160156 6.785156 -26.253906 6.921875 -26.296875 C 6.972656 -26.328125 7.035156 -26.351562 7.109375 -26.375 C 7.179688 -26.394531 7.265625 -26.40625 7.359375 -26.40625 C 7.847656 -26.144531 8.425781 -25.898438 9.09375 -25.671875 C 9.769531 -25.453125 10.34375 -25.34375 10.8125 -25.34375 L 11.421875 -24.8125 C 11.722656 -24.457031 11.984375 -24.085938 12.203125 -23.703125 C 12.429688 -23.316406 12.5 -22.816406 12.40625 -22.203125 C 12.269531 -21.992188 12.15625 -21.863281 12.0625 -21.8125 C 11.914062 -21.269531 11.757812 -20.789062 11.59375 -20.375 C 11.425781 -19.96875 11.257812 -19.578125 11.09375 -19.203125 C 10.90625 -18.773438 10.726562 -18.347656 10.5625 -17.921875 C 10.40625 -17.492188 10.265625 -16.976562 10.140625 -16.375 C 10.003906 -16.207031 9.914062 -16.0625 9.875 -15.9375 C 9.84375 -15.820312 9.804688 -15.707031 9.765625 -15.59375 C 9.710938 -15.445312 9.648438 -15.296875 9.578125 -15.140625 C 9.503906 -14.992188 9.398438 -14.863281 9.265625 -14.75 C 9.171875 -14.007812 9.03125 -13.410156 8.84375 -12.953125 C 8.65625 -12.492188 8.460938 -12.039062 8.265625 -11.59375 C 7.941406 -10.769531 7.632812 -9.953125 7.34375 -9.140625 C 7.0625 -8.328125 6.898438 -7.398438 6.859375 -6.359375 C 7.140625 -6.429688 7.398438 -6.46875 7.640625 -6.46875 C 7.941406 -6.46875 8.234375 -6.421875 8.515625 -6.328125 C 9.367188 -6.753906 10.296875 -7.015625 11.296875 -7.109375 C 12.296875 -7.203125 13.289062 -7.257812 14.28125 -7.28125 C 15.101562 -7.28125 15.867188 -7.316406 16.578125 -7.390625 C 16.816406 -7.222656 16.96875 -7.132812 17.03125 -7.125 C 17.101562 -7.113281 17.222656 -7.109375 17.390625 -7.109375 C 17.460938 -7.109375 17.535156 -7.109375 17.609375 -7.109375 C 17.679688 -7.109375 17.773438 -7.097656 17.890625 -7.078125 C 18.222656 -6.742188 18.539062 -6.507812 18.84375 -6.375 C 19.144531 -6.25 19.472656 -6.128906 19.828125 -6.015625 C 20.140625 -5.890625 20.441406 -5.757812 20.734375 -5.625 C 21.023438 -5.5 21.316406 -5.332031 21.609375 -5.125 L 21.921875 -3.328125 C 22.109375 -3.066406 22.191406 -2.890625 22.171875 -2.796875 C 22.171875 -2.609375 22.125 -2.441406 22.03125 -2.296875 L 22.09375 -1.84375 C 21.644531 -1.75 21.347656 -1.644531 21.203125 -1.53125 C 21.066406 -1.425781 20.914062 -1.289062 20.75 -1.125 C 20.488281 -1.101562 20.242188 -1.09375 20.015625 -1.09375 C 19.535156 -1.09375 19.050781 -1.023438 18.5625 -0.890625 C 17.851562 -1.140625 17.078125 -1.265625 16.234375 -1.265625 C 15.898438 -1.265625 15.5625 -1.253906 15.21875 -1.234375 C 14.875 -1.210938 14.539062 -1.175781 14.21875 -1.125 C 13.863281 -1.082031 13.507812 -1.039062 13.15625 -1 C 12.800781 -0.96875 12.445312 -0.953125 12.09375 -0.953125 C 11.8125 -0.910156 11.609375 -0.875 11.484375 -0.84375 C 11.367188 -0.820312 11.253906 -0.789062 11.140625 -0.75 C 10.335938 -0.488281 9.46875 -0.226562 8.53125 0.03125 C 7.601562 0.289062 6.671875 0.421875 5.734375 0.421875 C 4.335938 0.421875 3.21875 0.0664062 2.375 -0.640625 C 2.28125 -0.847656 2.207031 -0.988281 2.15625 -1.0625 C 2.101562 -1.132812 2.054688 -1.21875 2.015625 -1.3125 Z M 2.015625 -1.3125 "/></g></g></g><g fill="#000000" fill-opacity="1"><g transform="translate(441.538554, 408.315628)"><g><path d="M 20.859375 -20.109375 C 20.910156 -19.597656 20.992188 -19.148438 21.109375 -18.765625 C 21.222656 -18.390625 21.351562 -18.023438 21.5 -17.671875 C 21.613281 -17.347656 21.722656 -17.023438 21.828125 -16.703125 C 21.929688 -16.390625 22.007812 -16.007812 22.0625 -15.5625 C 21.875 -14.945312 21.738281 -14.378906 21.65625 -13.859375 C 21.570312 -13.335938 21.484375 -12.796875 21.390625 -12.234375 C 21.015625 -11.410156 20.648438 -10.679688 20.296875 -10.046875 C 19.941406 -9.410156 19.65625 -8.851562 19.4375 -8.375 C 19.320312 -8.257812 19.222656 -8.125 19.140625 -7.96875 C 19.054688 -7.820312 18.96875 -7.664062 18.875 -7.5 C 18.832031 -7.425781 18.773438 -7.316406 18.703125 -7.171875 C 18.628906 -7.035156 18.570312 -6.941406 18.53125 -6.890625 L 17.8125 -7.140625 L 17.671875 -6.25 L 17.1875 -6.109375 L 16.828125 -5.6875 C 16.378906 -4.914062 15.90625 -4.265625 15.40625 -3.734375 C 14.914062 -3.203125 14.359375 -2.726562 13.734375 -2.3125 C 13.109375 -1.90625 12.398438 -1.523438 11.609375 -1.171875 C 10.816406 -0.816406 9.925781 -0.425781 8.9375 0 C 8.539062 -0.0507812 8.191406 -0.0820312 7.890625 -0.09375 C 7.597656 -0.101562 7.328125 -0.117188 7.078125 -0.140625 C 6.628906 -0.140625 6.070312 -0.175781 5.40625 -0.25 C 5.332031 -0.4375 5.222656 -0.566406 5.078125 -0.640625 C 4.941406 -0.710938 4.816406 -0.75 4.703125 -0.75 C 4.296875 -0.9375 3.992188 -1.210938 3.796875 -1.578125 C 3.597656 -1.941406 3.40625 -2.332031 3.21875 -2.75 C 3.101562 -3.007812 2.984375 -3.25 2.859375 -3.46875 C 2.742188 -3.695312 2.613281 -3.929688 2.46875 -4.171875 L 3.078125 -4.34375 L 2.296875 -5.203125 C 2.253906 -5.265625 2.195312 -5.328125 2.125 -5.390625 C 2.050781 -5.453125 1.988281 -5.519531 1.9375 -5.59375 L 1.90625 -6.15625 C 1.832031 -7.78125 1.800781 -9.269531 1.8125 -10.625 C 1.832031 -11.976562 2.019531 -13.1875 2.375 -14.25 L 2.375 -14.640625 C 2.4375 -15.160156 2.503906 -15.585938 2.578125 -15.921875 C 2.648438 -16.265625 2.707031 -16.59375 2.75 -16.90625 C 2.820312 -17.414062 2.929688 -17.894531 3.078125 -18.34375 C 3.410156 -18.414062 3.65625 -18.550781 3.8125 -18.75 C 3.976562 -18.957031 4.125 -19.140625 4.25 -19.296875 C 4.570312 -19.328125 4.789062 -19.28125 4.90625 -19.15625 C 5.03125 -19.039062 5.148438 -18.851562 5.265625 -18.59375 C 5.378906 -18.382812 5.523438 -18.148438 5.703125 -17.890625 C 5.878906 -17.628906 6.144531 -17.425781 6.5 -17.28125 C 6.550781 -17.09375 6.617188 -16.898438 6.703125 -16.703125 C 6.785156 -16.503906 6.875 -16.285156 6.96875 -16.046875 C 7.15625 -15.648438 7.320312 -15.234375 7.46875 -14.796875 C 7.625 -14.359375 7.71875 -13.941406 7.75 -13.546875 C 7.507812 -13.097656 7.320312 -12.578125 7.1875 -11.984375 C 7.0625 -11.390625 6.976562 -10.789062 6.9375 -10.1875 C 6.90625 -9.59375 6.921875 -9.019531 6.984375 -8.46875 C 7.046875 -7.914062 7.144531 -7.453125 7.28125 -7.078125 L 7.5 -6.609375 L 8.09375 -6.6875 C 8.800781 -6.875 9.441406 -7.078125 10.015625 -7.296875 C 10.597656 -7.523438 11.132812 -7.789062 11.625 -8.09375 C 12.125 -8.40625 12.597656 -8.765625 13.046875 -9.171875 C 13.492188 -9.585938 13.960938 -10.066406 14.453125 -10.609375 C 14.953125 -11.148438 15.382812 -11.765625 15.75 -12.453125 C 16.113281 -13.148438 16.421875 -13.875 16.671875 -14.625 C 16.921875 -15.382812 17.109375 -16.132812 17.234375 -16.875 C 17.367188 -17.625 17.457031 -18.328125 17.5 -18.984375 C 17.90625 -19.128906 18.109375 -19.410156 18.109375 -19.828125 L 18.03125 -20.21875 C 17.9375 -20.363281 17.9375 -20.53125 18.03125 -20.71875 C 18.175781 -21.164062 18.503906 -21.507812 19.015625 -21.75 C 19.398438 -21.507812 19.738281 -21.25 20.03125 -20.96875 C 20.320312 -20.6875 20.597656 -20.398438 20.859375 -20.109375 Z M 20.859375 -20.109375 "/></g></g></g><g fill="#000000" fill-opacity="1"><g transform="translate(462.710683, 408.315628)"><g><path d="M 14.703125 0.078125 C 14.328125 0.0976562 13.863281 0.0820312 13.3125 0.03125 C 12.757812 -0.0078125 12.242188 0.0703125 11.765625 0.28125 C 10.523438 0.238281 9.253906 0.0859375 7.953125 -0.171875 C 6.660156 -0.429688 5.472656 -0.75 4.390625 -1.125 C 4.148438 -1.382812 3.910156 -1.625 3.671875 -1.84375 C 3.441406 -2.070312 3.125 -2.234375 2.71875 -2.328125 C 2.15625 -2.773438 1.695312 -3.320312 1.34375 -3.96875 C 0.988281 -4.625 0.703125 -5.316406 0.484375 -6.046875 C 0.273438 -6.773438 0.132812 -7.519531 0.0625 -8.28125 C 0 -9.050781 -0.0195312 -9.789062 0 -10.5 C 0.351562 -11.5625 0.851562 -12.472656 1.5 -13.234375 C 2.144531 -14.003906 2.8125 -14.765625 3.5 -15.515625 C 3.800781 -15.660156 4.03125 -15.804688 4.1875 -15.953125 C 4.34375 -16.109375 4.507812 -16.25 4.6875 -16.375 C 4.863281 -16.507812 5.039062 -16.640625 5.21875 -16.765625 C 5.394531 -16.898438 5.550781 -17.0625 5.6875 -17.25 C 6.1875 -17.375 6.617188 -17.546875 6.984375 -17.765625 C 7.347656 -17.992188 7.707031 -18.226562 8.0625 -18.46875 C 8.414062 -18.71875 8.78125 -18.945312 9.15625 -19.15625 C 9.53125 -19.375 9.96875 -19.539062 10.46875 -19.65625 C 10.65625 -19.863281 10.878906 -20.03125 11.140625 -20.15625 C 11.398438 -20.289062 11.664062 -20.421875 11.9375 -20.546875 C 12.207031 -20.679688 12.460938 -20.816406 12.703125 -20.953125 C 12.953125 -21.097656 13.148438 -21.289062 13.296875 -21.53125 C 13.410156 -21.34375 13.570312 -21.273438 13.78125 -21.328125 C 14 -21.390625 14.203125 -21.457031 14.390625 -21.53125 C 14.503906 -21.550781 14.601562 -21.523438 14.6875 -21.453125 C 14.769531 -21.390625 14.847656 -21.320312 14.921875 -21.25 C 14.992188 -21.175781 15.054688 -21.132812 15.109375 -21.125 C 15.171875 -21.113281 15.222656 -21.164062 15.265625 -21.28125 C 15.390625 -21.28125 15.425781 -21.222656 15.375 -21.109375 C 15.332031 -20.992188 15.296875 -20.910156 15.265625 -20.859375 C 15.460938 -20.878906 15.625 -20.835938 15.75 -20.734375 C 15.875 -20.628906 16.082031 -20.566406 16.375 -20.546875 C 16.46875 -20.421875 16.488281 -20.328125 16.4375 -20.265625 C 16.394531 -20.210938 16.375 -20.113281 16.375 -19.96875 C 17.082031 -19.757812 17.53125 -19.425781 17.71875 -18.96875 C 17.90625 -18.507812 17.914062 -18.03125 17.75 -17.53125 C 17.582031 -17.039062 17.285156 -16.582031 16.859375 -16.15625 C 16.441406 -15.726562 15.984375 -15.445312 15.484375 -15.3125 C 14.347656 -15 13.28125 -14.660156 12.28125 -14.296875 C 11.28125 -13.929688 10.460938 -13.394531 9.828125 -12.6875 C 9.265625 -12.519531 8.765625 -12.300781 8.328125 -12.03125 C 7.890625 -11.757812 7.472656 -11.453125 7.078125 -11.109375 C 6.691406 -10.773438 6.328125 -10.425781 5.984375 -10.0625 C 5.648438 -9.695312 5.296875 -9.335938 4.921875 -8.984375 C 4.941406 -8.648438 4.882812 -8.394531 4.75 -8.21875 C 4.625 -8.039062 4.503906 -7.859375 4.390625 -7.671875 C 4.429688 -7.316406 4.507812 -7.003906 4.625 -6.734375 C 4.75 -6.460938 4.878906 -6.195312 5.015625 -5.9375 C 6.578125 -5.46875 8.234375 -5.171875 9.984375 -5.046875 C 11.742188 -4.929688 13.503906 -4.863281 15.265625 -4.84375 C 15.429688 -4.601562 15.625 -4.382812 15.84375 -4.1875 C 16.070312 -3.988281 16.28125 -3.773438 16.46875 -3.546875 C 16.664062 -3.328125 16.820312 -3.082031 16.9375 -2.8125 C 17.050781 -2.539062 17.070312 -2.203125 17 -1.796875 C 16.675781 -1.441406 16.3125 -1.117188 15.90625 -0.828125 C 15.507812 -0.535156 15.109375 -0.234375 14.703125 0.078125 Z M 14.703125 0.078125 "/></g></g></g><g fill="#000000" fill-opacity="1"><g transform="translate(481.302568, 408.315628)"><g><path d="M 21.3125 -1.265625 C 20.1875 -1.222656 19.191406 -1.25 18.328125 -1.34375 C 17.472656 -1.4375 16.628906 -1.660156 15.796875 -2.015625 C 15.753906 -2.035156 15.707031 -2.09375 15.65625 -2.1875 C 15.613281 -2.28125 15.566406 -2.351562 15.515625 -2.40625 C 15.378906 -2.476562 15.207031 -2.503906 15 -2.484375 C 14.800781 -2.472656 14.632812 -2.492188 14.5 -2.546875 C 14.3125 -2.640625 14.015625 -2.820312 13.609375 -3.09375 C 13.210938 -3.363281 12.847656 -3.617188 12.515625 -3.859375 C 12.085938 -4.179688 11.6875 -4.507812 11.3125 -4.84375 C 10.9375 -5.175781 10.609375 -5.53125 10.328125 -5.90625 C 10.253906 -6 10.15625 -6.050781 10.03125 -6.0625 C 9.914062 -6.070312 9.8125 -6.101562 9.71875 -6.15625 C 9.039062 -5.726562 8.460938 -5.195312 7.984375 -4.5625 C 7.515625 -3.925781 7.066406 -3.273438 6.640625 -2.609375 C 6.222656 -1.953125 5.773438 -1.328125 5.296875 -0.734375 C 4.828125 -0.148438 4.226562 0.289062 3.5 0.59375 C 3.289062 0.59375 3.101562 0.554688 2.9375 0.484375 C 2.769531 0.421875 2.613281 0.335938 2.46875 0.234375 C 2.332031 0.128906 2.191406 0.03125 2.046875 -0.0625 C 1.910156 -0.164062 1.757812 -0.238281 1.59375 -0.28125 C 1.59375 -0.5625 1.535156 -0.820312 1.421875 -1.0625 C 1.316406 -1.300781 1.210938 -1.523438 1.109375 -1.734375 C 1.003906 -1.941406 0.925781 -2.144531 0.875 -2.34375 C 0.832031 -2.550781 0.882812 -2.75 1.03125 -2.9375 C 0.882812 -3.070312 0.671875 -3.222656 0.390625 -3.390625 C 0.523438 -3.535156 0.585938 -3.664062 0.578125 -3.78125 C 0.566406 -3.894531 0.535156 -4.007812 0.484375 -4.125 C 0.441406 -4.25 0.398438 -4.378906 0.359375 -4.515625 C 0.328125 -4.660156 0.359375 -4.804688 0.453125 -4.953125 C 0.578125 -4.953125 0.722656 -4.972656 0.890625 -5.015625 C 0.742188 -5.203125 0.675781 -5.3125 0.6875 -5.34375 C 0.695312 -5.382812 0.664062 -5.441406 0.59375 -5.515625 C 0.550781 -5.660156 0.578125 -5.75 0.671875 -5.78125 C 0.765625 -5.8125 0.859375 -5.851562 0.953125 -5.90625 C 1.046875 -7.0625 1.242188 -8.132812 1.546875 -9.125 C 1.859375 -10.113281 2.203125 -11.066406 2.578125 -11.984375 C 2.953125 -12.898438 3.320312 -13.828125 3.6875 -14.765625 C 4.0625 -15.710938 4.363281 -16.726562 4.59375 -17.8125 C 4.851562 -18.070312 5.054688 -18.378906 5.203125 -18.734375 C 5.359375 -19.085938 5.523438 -19.441406 5.703125 -19.796875 C 5.878906 -20.148438 6.078125 -20.5 6.296875 -20.84375 C 6.523438 -21.1875 6.84375 -21.460938 7.25 -21.671875 C 7.582031 -21.648438 7.875 -21.5625 8.125 -21.40625 C 8.382812 -21.25 8.707031 -21.1875 9.09375 -21.21875 C 9.15625 -21.09375 9.21875 -20.972656 9.28125 -20.859375 C 9.34375 -20.742188 9.421875 -20.625 9.515625 -20.5 L 10.046875 -20.609375 C 10.296875 -20.398438 10.519531 -20.132812 10.71875 -19.8125 C 10.925781 -19.5 11.066406 -19.164062 11.140625 -18.8125 C 11.210938 -18.457031 11.195312 -18.117188 11.09375 -17.796875 C 11 -17.484375 10.773438 -17.234375 10.421875 -17.046875 C 10.453125 -16.921875 10.457031 -16.828125 10.4375 -16.765625 C 10.425781 -16.710938 10.410156 -16.660156 10.390625 -16.609375 C 10.367188 -16.566406 10.359375 -16.519531 10.359375 -16.46875 C 10.359375 -16.425781 10.394531 -16.359375 10.46875 -16.265625 C 10 -15.910156 9.644531 -15.414062 9.40625 -14.78125 C 9.164062 -14.144531 9.035156 -13.578125 9.015625 -13.078125 C 9.296875 -13.359375 9.609375 -13.632812 9.953125 -13.90625 C 10.296875 -14.175781 10.648438 -14.441406 11.015625 -14.703125 C 11.378906 -14.960938 11.734375 -15.207031 12.078125 -15.4375 C 12.421875 -15.675781 12.734375 -15.914062 13.015625 -16.15625 C 13.785156 -16.863281 14.53125 -17.4375 15.25 -17.875 C 15.96875 -18.3125 16.726562 -18.800781 17.53125 -19.34375 C 17.71875 -19.382812 17.863281 -19.382812 17.96875 -19.34375 C 18.082031 -19.3125 18.195312 -19.273438 18.3125 -19.234375 C 18.3125 -19.367188 18.269531 -19.445312 18.1875 -19.46875 C 18.101562 -19.5 18.078125 -19.597656 18.109375 -19.765625 C 18.453125 -19.859375 18.753906 -19.96875 19.015625 -20.09375 C 19.273438 -20.226562 19.5625 -20.351562 19.875 -20.46875 C 20.082031 -20.257812 20.28125 -20.039062 20.46875 -19.8125 C 20.65625 -19.59375 20.914062 -19.457031 21.25 -19.40625 C 21.363281 -19.144531 21.503906 -18.945312 21.671875 -18.8125 C 21.835938 -18.6875 22.003906 -18.566406 22.171875 -18.453125 C 22.335938 -18.335938 22.484375 -18.195312 22.609375 -18.03125 C 22.734375 -17.863281 22.8125 -17.601562 22.84375 -17.25 C 22.75 -17.082031 22.644531 -16.90625 22.53125 -16.71875 C 22.425781 -16.53125 22.328125 -16.304688 22.234375 -16.046875 C 21.765625 -15.628906 21.285156 -15.253906 20.796875 -14.921875 C 20.316406 -14.585938 19.828125 -14.265625 19.328125 -13.953125 C 18.835938 -13.648438 18.332031 -13.347656 17.8125 -13.046875 C 17.300781 -12.742188 16.773438 -12.378906 16.234375 -11.953125 C 16.109375 -11.785156 15.957031 -11.632812 15.78125 -11.5 C 15.601562 -11.375 15.421875 -11.242188 15.234375 -11.109375 C 15.046875 -10.984375 14.867188 -10.847656 14.703125 -10.703125 C 14.535156 -10.566406 14.40625 -10.40625 14.3125 -10.21875 C 14.25 -10.195312 14.179688 -10.1875 14.109375 -10.1875 C 14.035156 -10.1875 13.960938 -10.171875 13.890625 -10.140625 C 13.816406 -9.984375 13.703125 -9.851562 13.546875 -9.75 C 13.398438 -9.65625 13.304688 -9.53125 13.265625 -9.375 C 13.609375 -8.613281 14.0625 -8.03125 14.625 -7.625 C 15.195312 -7.226562 15.835938 -6.941406 16.546875 -6.765625 C 17.253906 -6.585938 18.019531 -6.492188 18.84375 -6.484375 C 19.664062 -6.472656 20.523438 -6.46875 21.421875 -6.46875 C 21.515625 -6.488281 21.554688 -6.539062 21.546875 -6.625 C 21.535156 -6.707031 21.585938 -6.738281 21.703125 -6.71875 C 22.273438 -6.53125 22.710938 -6.265625 23.015625 -5.921875 C 23.316406 -5.578125 23.679688 -5.242188 24.109375 -4.921875 C 24.066406 -4.023438 23.796875 -3.28125 23.296875 -2.6875 C 22.804688 -2.09375 22.144531 -1.617188 21.3125 -1.265625 Z M 21.3125 -1.265625 "/></g></g></g></svg>