<svg xmlns="http://www.w3.org/2000/svg" xmlns:xlink="http://www.w3.org/1999/xlink" width="1056" zoomAndPan="magnify" viewBox="0 0 792 611.999999" height="816" preserveAspectRatio="xMidYMid meet" version="1.0"><defs><clipPath id="51e40b8510"><path d="M 97.464844 7.464844 L 694.464844 7.464844 L 694.464844 604.464844 L 97.464844 604.464844 Z M 97.464844 7.464844 " clip-rule="nonzero"/></clipPath></defs><g clip-path="url(#51e40b8510)"><path fill="#424446" d="M 395.964844 604.464844 C 316.675781 604.464844 240.886719 572.984375 184.917969 517.015625 C 128.949219 461.046875 97.464844 385.253906 97.464844 305.964844 C 97.464844 226.675781 128.949219 150.886719 184.917969 94.917969 C 240.886719 38.949219 316.675781 7.464844 395.964844 7.464844 C 475.253906 7.464844 551.046875 38.949219 607.015625 94.917969 C 662.984375 150.886719 694.464844 226.675781 694.464844 305.964844 C 694.464844 385.253906 662.984375 461.046875 607.015625 517.015625 C 551.046875 572.984375 475.253906 604.464844 395.964844 604.464844 Z M 395.964844 23.789062 C 240.886719 23.789062 113.789062 150.886719 113.789062 305.964844 C 113.789062 461.046875 240.886719 588.140625 395.964844 588.140625 C 551.046875 588.140625 678.140625 461.046875 678.140625 305.964844 C 678.140625 150.886719 551.046875 23.789062 395.964844 23.789062 Z M 395.964844 23.789062 " fill-opacity="1" fill-rule="evenodd"/></g><path fill="#424446" d="M 258.375 569.484375 C 257.210938 569.484375 256.042969 569.484375 254.878906 568.320312 C 251.378906 565.988281 249.046875 561.324219 251.378906 557.824219 L 541.71875 55.273438 C 544.050781 51.773438 548.714844 50.609375 553.378906 51.773438 C 556.875 54.105469 558.042969 59.9375 555.710938 63.433594 L 265.371094 565.988281 C 264.207031 568.320312 261.875 569.484375 258.375 569.484375 Z M 258.375 569.484375 " fill-opacity="1" fill-rule="evenodd"/><path fill="#424446" d="M 367.980469 498.359375 C 367.980469 498.359375 366.816406 498.359375 365.648438 498.359375 C 292.191406 498.359375 246.714844 459.878906 246.714844 399.246094 C 246.714844 378.257812 253.710938 359.601562 265.371094 342.113281 C 275.867188 326.953125 292.191406 314.128906 309.679688 308.296875 C 314.34375 307.132812 319.007812 309.464844 320.175781 314.128906 C 321.339844 318.792969 319.007812 323.457031 315.511719 324.621094 C 285.195312 333.949219 263.039062 365.433594 263.039062 399.246094 C 263.039062 475.039062 342.328125 482.035156 365.648438 482.035156 C 366.816406 482.035156 367.980469 482.035156 367.980469 482.035156 C 448.4375 482.035156 538.21875 433.0625 539.386719 360.769531 C 540.550781 312.960938 555.710938 296.636719 569.703125 282.644531 C 581.363281 270.984375 591.855469 259.324219 591.855469 224.34375 C 591.855469 171.875 549.878906 129.898438 498.574219 129.898438 C 446.105469 129.898438 404.128906 171.875 404.128906 224.34375 C 404.128906 231.339844 405.292969 237.171875 406.460938 244.167969 C 407.625 249.996094 408.792969 256.992188 408.792969 263.988281 L 408.792969 309.464844 C 408.792969 315.292969 413.457031 319.957031 419.285156 319.957031 L 482.25 319.957031 C 492.746094 319.957031 502.074219 328.121094 502.074219 339.78125 L 502.074219 352.605469 C 502.074219 357.269531 498.574219 360.769531 493.910156 360.769531 C 489.246094 360.769531 485.75 357.269531 485.75 352.605469 L 485.75 339.78125 C 485.75 337.449219 484.582031 336.28125 482.25 336.28125 L 419.285156 336.28125 C 405.292969 336.28125 392.46875 323.457031 392.46875 309.464844 L 392.46875 263.988281 C 392.46875 258.160156 391.300781 252.328125 390.136719 246.5 C 388.96875 240.667969 387.804688 232.507812 387.804688 224.34375 C 387.804688 162.546875 436.777344 113.574219 498.574219 113.574219 C 559.207031 113.574219 608.179688 162.546875 608.179688 224.34375 C 608.179688 266.320312 594.1875 280.3125 581.363281 294.304688 C 568.535156 307.132812 556.875 319.957031 555.710938 360.769531 C 554.542969 400.414062 532.390625 436.558594 491.578125 463.378906 C 456.597656 485.53125 411.125 498.359375 367.980469 498.359375 Z M 367.980469 498.359375 " fill-opacity="1" fill-rule="evenodd"/><path fill="#424446" d="M 345.828125 388.753906 C 341.164062 388.753906 337.664062 385.253906 337.664062 380.589844 C 337.664062 375.925781 341.164062 372.429688 345.828125 372.429688 C 350.492188 372.429688 352.824219 368.929688 352.824219 365.433594 L 352.824219 279.148438 C 352.824219 268.652344 343.496094 259.324219 333 259.324219 C 328.335938 259.324219 324.839844 255.828125 324.839844 251.164062 C 324.839844 246.5 328.335938 243 333 243 C 352.824219 243 369.148438 259.324219 369.148438 279.148438 L 369.148438 365.433594 C 369.148438 378.257812 358.652344 388.753906 345.828125 388.753906 Z M 345.828125 388.753906 " fill-opacity="1" fill-rule="evenodd"/><path fill="#424446" d="M 252.546875 318.792969 C 252.546875 318.792969 251.378906 318.792969 251.378906 318.792969 C 246.714844 318.792969 243.21875 314.128906 244.382812 309.464844 C 250.214844 272.152344 286.359375 243 328.335938 243 L 333 243 C 337.664062 243 341.164062 246.5 341.164062 251.164062 C 341.164062 255.828125 337.664062 259.324219 333 259.324219 L 328.335938 259.324219 C 294.523438 259.324219 265.371094 281.480469 260.707031 311.796875 C 259.542969 316.460938 256.042969 318.792969 252.546875 318.792969 Z M 252.546875 318.792969 " fill-opacity="1" fill-rule="evenodd"/><path fill="#424446" d="M 191.914062 342.113281 C 187.25 342.113281 183.75 338.613281 183.75 333.949219 L 183.75 298.96875 C 183.75 260.492188 214.066406 230.175781 252.546875 230.175781 C 257.210938 230.175781 260.707031 233.671875 260.707031 238.335938 L 260.707031 310.628906 C 260.707031 315.292969 257.210938 318.792969 252.546875 318.792969 C 247.882812 318.792969 244.382812 315.292969 244.382812 310.628906 L 244.382812 246.5 C 218.730469 251.164062 200.074219 272.152344 200.074219 298.96875 L 200.074219 333.949219 C 200.074219 338.613281 196.578125 342.113281 191.914062 342.113281 Z M 191.914062 342.113281 " fill-opacity="1" fill-rule="evenodd"/><path fill="#424446" d="M 261.875 373.59375 L 207.070312 373.59375 C 194.246094 373.59375 183.75 361.933594 183.75 349.109375 L 183.75 333.949219 C 183.75 329.285156 187.25 325.789062 191.914062 325.789062 C 196.578125 325.789062 200.074219 329.285156 200.074219 333.949219 L 200.074219 349.109375 C 200.074219 353.773438 203.574219 357.269531 207.070312 357.269531 L 261.875 357.269531 C 266.539062 357.269531 270.035156 360.769531 270.035156 365.433594 C 270.035156 368.929688 266.539062 373.59375 261.875 373.59375 Z M 261.875 373.59375 " fill-opacity="1" fill-rule="evenodd"/><path fill="#424446" d="M 434.445312 398.082031 C 388.96875 398.082031 352.824219 359.601562 352.824219 311.796875 L 352.824219 279.148438 C 352.824219 261.65625 366.816406 247.664062 383.140625 247.664062 L 390.136719 247.664062 C 394.800781 247.664062 398.296875 251.164062 398.296875 255.828125 C 398.296875 260.492188 394.800781 263.988281 390.136719 263.988281 L 383.140625 263.988281 C 374.976562 263.988281 369.148438 270.984375 369.148438 279.148438 L 369.148438 311.796875 C 369.148438 350.273438 398.296875 381.757812 434.445312 381.757812 C 437.941406 381.757812 442.605469 385.253906 442.605469 389.917969 C 442.605469 394.582031 437.941406 398.082031 434.445312 398.082031 Z M 434.445312 398.082031 " fill-opacity="1" fill-rule="evenodd"/><path fill="#424446" d="M 320.175781 259.324219 C 320.175781 259.324219 319.007812 259.324219 319.007812 259.324219 C 291.023438 254.660156 271.203125 230.175781 271.203125 203.355469 C 271.203125 177.703125 291.023438 157.882812 315.511719 157.882812 C 320.175781 157.882812 323.671875 161.378906 323.671875 166.042969 C 323.671875 170.707031 320.175781 174.207031 315.511719 174.207031 C 300.351562 174.207031 287.527344 187.03125 287.527344 203.355469 C 287.527344 223.179688 301.519531 239.503906 321.339844 243 C 326.003906 244.167969 329.503906 248.832031 328.335938 253.496094 C 327.171875 256.992188 323.671875 259.324219 320.175781 259.324219 Z M 320.175781 259.324219 " fill-opacity="1" fill-rule="evenodd"/></svg>