<svg xmlns="http://www.w3.org/2000/svg" xmlns:xlink="http://www.w3.org/1999/xlink" width="1056" zoomAndPan="magnify" viewBox="0 0 792 611.999999" height="816" preserveAspectRatio="xMidYMid meet" version="1.0"><defs><clipPath id="1ea6380a5d"><path d="M 99 5.84375 L 700.292969 5.84375 L 700.292969 605.84375 L 99 605.84375 Z M 99 5.84375 " clip-rule="nonzero"/></clipPath></defs><rect x="-79.2" width="950.4" fill="#ffffff" y="-61.2" height="734.399999" fill-opacity="1"/><rect x="-79.2" width="950.4" fill="#ffffff" y="-61.2" height="734.399999" fill-opacity="1"/><g clip-path="url(#1ea6380a5d)"><path fill="#ffb91d" d="M 678.808594 254.691406 L 450.890625 27.03125 C 437.207031 13.367188 419.023438 5.84375 399.679688 5.84375 C 380.335938 5.84375 362.152344 13.367188 348.472656 27.03125 L 120.550781 254.691406 C 92.320312 282.898438 92.320312 328.789062 120.550781 356.996094 L 348.472656 584.65625 C 362.152344 598.320312 380.335938 605.84375 399.679688 605.84375 C 419.023438 605.84375 437.207031 598.320312 450.890625 584.65625 L 678.808594 356.996094 C 692.484375 343.332031 700.015625 325.160156 700.015625 305.84375 C 700.015625 286.519531 692.484375 268.355469 678.808594 254.691406 " fill-opacity="1" fill-rule="nonzero"/></g><path fill="#1c242b" d="M 399.679688 24.96875 C 385.449219 24.96875 372.070312 30.5 362.011719 40.554688 L 134.089844 268.214844 C 113.320312 288.960938 113.320312 322.722656 134.089844 343.472656 L 362.011719 571.132812 C 372.070312 581.179688 385.449219 586.71875 399.679688 586.71875 C 413.910156 586.71875 427.289062 581.179688 437.347656 571.132812 L 665.269531 343.472656 C 675.328125 333.421875 680.871094 320.058594 680.871094 305.84375 C 680.871094 291.628906 675.328125 278.261719 665.269531 268.214844 L 437.347656 40.554688 C 427.289062 30.5 413.910156 24.96875 399.679688 24.96875 Z M 399.679688 594.371094 C 383.402344 594.371094 368.105469 588.035156 356.597656 576.539062 L 128.675781 348.878906 C 104.917969 325.148438 104.917969 286.535156 128.675781 262.804688 L 356.597656 35.144531 C 368.105469 23.644531 383.402344 17.316406 399.679688 17.316406 C 415.957031 17.316406 431.257812 23.648438 442.769531 35.144531 L 670.683594 262.804688 C 682.191406 274.300781 688.53125 289.582031 688.53125 305.84375 C 688.53125 322.101562 682.191406 337.382812 670.683594 348.878906 L 442.769531 576.539062 C 431.257812 588.035156 415.957031 594.371094 399.679688 594.371094 " fill-opacity="1" fill-rule="nonzero"/><path fill="#1c242b" d="M 436.328125 193.019531 C 434.84375 210.363281 419.570312 223.214844 402.214844 221.730469 C 384.851562 220.242188 371.992188 204.984375 373.476562 187.648438 C 374.960938 170.308594 390.242188 157.460938 407.597656 158.941406 C 424.949219 160.429688 437.816406 175.6875 436.328125 193.019531 " fill-opacity="1" fill-rule="nonzero"/><path fill="#1c242b" d="M 336.929688 286.332031 L 371.601562 257.144531 L 364.929688 288.046875 C 364.679688 289.542969 364.648438 290.667969 364.796875 292.066406 L 368.65625 318.054688 C 358.246094 307.640625 347.480469 296.878906 336.929688 286.332031 Z M 284.9375 234.339844 L 308.121094 195.851562 L 342.59375 210.914062 C 342.59375 210.914062 318.347656 231.511719 298.753906 248.164062 C 293.828125 243.230469 289.183594 238.589844 284.9375 234.339844 Z M 548.691406 425.292969 C 548.691406 425.292969 488.121094 355.25 470.695312 355.25 C 462.707031 355.25 447.722656 367.917969 433.117188 382.5 C 425.539062 374.917969 411.867188 361.253906 395.402344 344.789062 L 387.371094 290.785156 L 397.222656 245.058594 C 397.777344 241.019531 396.371094 237.453125 394.328125 234.890625 L 361.070312 195.445312 C 360.050781 194.34375 358.800781 193.429688 357.339844 192.792969 L 308.085938 171.269531 C 302.496094 169.285156 296.960938 171.058594 293.921875 175.777344 L 268.523438 217.933594 C 262.5625 211.976562 258.996094 208.40625 258.75 208.160156 C 256.992188 206.402344 254.136719 206.398438 252.382812 208.160156 C 250.617188 209.914062 250.617188 212.761719 252.605469 214.578125 L 263.796875 225.773438 C 259.597656 233.644531 261.644531 239.140625 266.851562 242.527344 C 270.453125 244.863281 275.925781 243.980469 279.535156 241.507812 L 291.96875 253.933594 C 283.46875 261.164062 277.117188 266.878906 275.246094 268.488281 C 271.105469 272.046875 270.207031 277.007812 270.207031 282.550781 L 270.207031 423.960938 C 270.207031 432.664062 277.511719 439.710938 286.21875 439.710938 C 294.929688 439.710938 302.238281 432.664062 302.238281 423.960938 L 302.238281 319.96875 L 331.601562 348.65625 L 331.601562 423.960938 C 331.601562 432.664062 337.390625 439.710938 346.101562 439.710938 C 354.820312 439.710938 361.242188 432.664062 361.242188 423.960938 C 361.242188 423.960938 361.617188 346.835938 361.199219 342.828125 C 360.726562 338.34375 359.875 334.722656 356.878906 331.558594 L 324.183594 297.082031 L 330.125 292.074219 L 370.855469 332.800781 L 373.238281 348.839844 C 374.0625 354.421875 379.898438 358.980469 386.023438 358.3125 C 388.761719 358.015625 391.117188 356.679688 392.804688 354.75 L 426.894531 388.839844 C 409.476562 406.945312 394.152344 425.625 394.152344 425.625 C 389.808594 430.191406 390.339844 434.5625 395 436.734375 C 400.710938 439.382812 540.394531 438.914062 547.890625 436.171875 C 552.660156 434.425781 553.152344 429.832031 548.691406 425.292969 " fill-opacity="1" fill-rule="nonzero"/></svg>