<svg xmlns="http://www.w3.org/2000/svg" xmlns:xlink="http://www.w3.org/1999/xlink" width="1056" zoomAndPan="magnify" viewBox="0 0 792 611.999999" height="816" preserveAspectRatio="xMidYMid meet" version="1.0"><defs><clipPath id="732dab1430"><path d="M 0 82.53125 L 792 82.53125 L 792 408 L 0 408 Z M 0 82.53125 " clip-rule="nonzero"/></clipPath><clipPath id="c4e7870d3c"><path d="M 100 434 L 692 434 L 692 550.53125 L 100 550.53125 Z M 100 434 " clip-rule="nonzero"/></clipPath></defs><g clip-path="url(#732dab1430)"><path fill="#1a4b6c" d="M 143.957031 145.046875 C 245.234375 140.019531 324.183594 114.53125 395.996094 82.53125 C 467.816406 114.53125 546.765625 140.019531 648.042969 145.046875 C 678.070312 198.167969 724.71875 245.757812 791.539062 286.621094 C 755.96875 327.074219 720.410156 367.519531 684.835938 407.976562 C 588.558594 407.976562 492.28125 407.976562 395.996094 407.976562 C 299.722656 407.976562 203.445312 407.976562 107.167969 407.976562 C 71.59375 367.519531 36.03125 327.074219 0.457031 286.621094 C 67.277344 245.757812 113.925781 198.167969 143.957031 145.046875 Z M 143.957031 145.046875 " fill-opacity="1" fill-rule="evenodd"/></g><path fill="#fec111" d="M 307.007812 167.792969 C 307.007812 319.710938 344.941406 331.222656 395.996094 347.296875 C 447.058594 331.222656 484.988281 319.710938 484.988281 167.792969 C 450.648438 178.515625 421.988281 168.410156 395.996094 148.484375 C 370.007812 168.410156 341.351562 178.515625 307.007812 167.792969 Z M 307.007812 167.792969 " fill-opacity="1" fill-rule="evenodd"/><g clip-path="url(#c4e7870d3c)"><path fill="#333333" d="M 684.289062 434.839844 C 689.316406 441.71875 691.96875 448.882812 691.96875 456.25 C 691.96875 508.296875 526.347656 550.484375 395.996094 550.484375 C 265.652344 550.484375 100.027344 508.296875 100.027344 456.25 C 100.027344 448.882812 102.683594 441.71875 107.707031 434.839844 Z M 684.289062 434.839844 " fill-opacity="1" fill-rule="evenodd"/></g><path fill="#000000" d="M 107.703125 407.972656 L 684.835938 407.972656 L 684.835938 434.839844 L 107.703125 434.839844 Z M 107.703125 407.972656 " fill-opacity="1" fill-rule="evenodd"/></svg>