<svg xmlns="http://www.w3.org/2000/svg" xmlns:xlink="http://www.w3.org/1999/xlink" width="1056" zoomAndPan="magnify" viewBox="0 0 792 611.999999" height="816" preserveAspectRatio="xMidYMid meet" version="1.0"><defs><clipPath id="6fda9ed537"><path d="M 90.382812 591 L 701.632812 591 L 701.632812 612 L 90.382812 612 Z M 90.382812 591 " clip-rule="nonzero"/></clipPath></defs><g clip-path="url(#6fda9ed537)"><path fill="#16182d" d="M 701.53125 612 L 90.484375 612 L 90.484375 591.679688 L 701.53125 591.679688 L 701.53125 612 " fill-opacity="1" fill-rule="nonzero"/></g><path fill="#16182d" d="M 677.175781 583.140625 L 114.839844 583.140625 L 114.839844 564.589844 L 677.175781 564.589844 L 677.175781 583.140625 " fill-opacity="1" fill-rule="nonzero"/><path fill="#16182d" d="M 652.285156 554.914062 L 139.726562 554.914062 L 139.726562 536.359375 L 652.285156 536.359375 L 652.285156 554.914062 " fill-opacity="1" fill-rule="nonzero"/><path fill="#16182d" d="M 377.773438 507.628906 L 412.71875 507.628906 L 412.71875 314.152344 L 377.773438 314.152344 L 377.773438 507.628906 " fill-opacity="1" fill-rule="nonzero"/><path fill="#16182d" d="M 433.71875 531.308594 L 356.769531 531.308594 C 355.792969 531.308594 355.003906 530.519531 355.003906 529.542969 L 355.003906 515.40625 C 355.003906 514.433594 355.792969 513.640625 356.769531 513.640625 L 433.71875 513.640625 C 434.695312 513.640625 435.488281 514.433594 435.488281 515.40625 L 435.488281 529.542969 C 435.488281 530.519531 434.695312 531.308594 433.71875 531.308594 " fill-opacity="1" fill-rule="nonzero"/><path fill="#16182d" d="M 433.71875 307.320312 L 356.769531 307.320312 C 355.792969 307.320312 355.003906 306.527344 355.003906 305.554688 L 355.003906 291.417969 C 355.003906 290.441406 355.792969 289.652344 356.769531 289.652344 L 433.71875 289.652344 C 434.695312 289.652344 435.488281 290.441406 435.488281 291.417969 L 435.488281 305.554688 C 435.488281 306.527344 434.695312 307.320312 433.71875 307.320312 " fill-opacity="1" fill-rule="nonzero"/><path fill="#16182d" d="M 571.273438 507.628906 L 606.21875 507.628906 L 606.21875 314.152344 L 571.273438 314.152344 L 571.273438 507.628906 " fill-opacity="1" fill-rule="nonzero"/><path fill="#16182d" d="M 627.222656 531.308594 L 550.269531 531.308594 C 549.292969 531.308594 548.503906 530.519531 548.503906 529.542969 L 548.503906 515.40625 C 548.503906 514.433594 549.292969 513.640625 550.269531 513.640625 L 627.222656 513.640625 C 628.199219 513.640625 628.988281 514.433594 628.988281 515.40625 L 628.988281 529.542969 C 628.988281 530.519531 628.199219 531.308594 627.222656 531.308594 " fill-opacity="1" fill-rule="nonzero"/><path fill="#16182d" d="M 627.222656 307.320312 L 550.269531 307.320312 C 549.292969 307.320312 548.503906 306.527344 548.503906 305.554688 L 548.503906 291.417969 C 548.503906 290.441406 549.292969 289.652344 550.269531 289.652344 L 627.222656 289.652344 C 628.199219 289.652344 628.988281 290.441406 628.988281 291.417969 L 628.988281 305.554688 C 628.988281 306.527344 628.199219 307.320312 627.222656 307.320312 " fill-opacity="1" fill-rule="nonzero"/><path fill="#16182d" d="M 184.269531 507.628906 L 219.21875 507.628906 L 219.21875 314.152344 L 184.269531 314.152344 L 184.269531 507.628906 " fill-opacity="1" fill-rule="nonzero"/><path fill="#16182d" d="M 240.21875 531.308594 L 163.269531 531.308594 C 162.292969 531.308594 161.503906 530.519531 161.503906 529.542969 L 161.503906 515.40625 C 161.503906 514.433594 162.292969 513.640625 163.269531 513.640625 L 240.21875 513.640625 C 241.191406 513.640625 241.984375 514.433594 241.984375 515.40625 L 241.984375 529.542969 C 241.984375 530.519531 241.191406 531.308594 240.21875 531.308594 " fill-opacity="1" fill-rule="nonzero"/><path fill="#16182d" d="M 240.21875 307.320312 L 163.269531 307.320312 C 162.292969 307.320312 161.503906 306.527344 161.503906 305.554688 L 161.503906 291.417969 C 161.503906 290.441406 162.292969 289.652344 163.269531 289.652344 L 240.21875 289.652344 C 241.191406 289.652344 241.984375 290.441406 241.984375 291.417969 L 241.984375 305.554688 C 241.984375 306.527344 241.191406 307.320312 240.21875 307.320312 " fill-opacity="1" fill-rule="nonzero"/><path fill="#16182d" d="M 664.175781 248.265625 L 127.839844 248.265625 C 122.539062 248.265625 121.039062 242.207031 125.90625 240.453125 L 391.703125 144.800781 L 396.007812 143.25 L 399.570312 144.53125 L 666.105469 240.453125 C 670.976562 242.207031 669.480469 248.265625 664.175781 248.265625 " fill-opacity="1" fill-rule="nonzero"/><path fill="#16182d" d="M 676.199219 280.117188 L 115.8125 280.117188 C 114.695312 280.117188 113.785156 279.207031 113.785156 278.082031 L 113.785156 261.828125 C 113.785156 260.703125 114.695312 259.796875 115.8125 259.796875 L 676.199219 259.796875 C 677.320312 259.796875 678.230469 260.703125 678.230469 261.828125 L 678.230469 278.082031 C 678.230469 279.207031 677.320312 280.117188 676.199219 280.117188 " fill-opacity="1" fill-rule="nonzero"/><path fill="#16182d" d="M 454.121094 40.515625 C 452.820312 40.535156 451.785156 41.753906 451.800781 43.242188 C 451.808594 44.246094 452.292969 45.109375 453.007812 45.5625 C 453.078125 45.609375 453.15625 45.652344 453.234375 45.691406 L 453.292969 45.71875 C 453.335938 45.738281 453.382812 45.757812 453.425781 45.773438 C 453.453125 45.78125 453.476562 45.792969 453.507812 45.796875 C 453.523438 45.804688 453.542969 45.8125 453.5625 45.816406 C 453.5625 45.816406 453.570312 45.820312 453.570312 45.820312 C 453.59375 45.828125 453.609375 45.832031 453.632812 45.835938 C 453.644531 45.835938 453.652344 45.84375 453.664062 45.84375 C 453.695312 45.851562 453.730469 45.859375 453.765625 45.867188 C 453.789062 45.871094 453.8125 45.875 453.835938 45.878906 C 453.855469 45.882812 453.875 45.882812 453.894531 45.882812 C 453.9375 45.890625 453.988281 45.898438 454.035156 45.898438 C 454.039062 45.902344 454.046875 45.902344 454.054688 45.902344 C 454.074219 45.902344 454.09375 45.902344 454.117188 45.902344 C 454.125 45.902344 454.140625 45.902344 454.152344 45.902344 L 454.179688 45.902344 C 454.277344 45.902344 454.375 45.894531 454.46875 45.875 C 454.5 45.871094 454.523438 45.871094 454.550781 45.867188 C 454.625 45.851562 454.707031 45.832031 454.78125 45.804688 C 454.796875 45.796875 454.8125 45.792969 454.832031 45.785156 C 454.835938 45.785156 454.835938 45.78125 454.835938 45.78125 C 454.84375 45.78125 454.847656 45.78125 454.847656 45.78125 C 454.863281 45.777344 454.878906 45.769531 454.890625 45.765625 C 454.949219 45.746094 455.007812 45.71875 455.0625 45.695312 L 455.078125 45.6875 C 455.167969 45.640625 455.261719 45.589844 455.34375 45.53125 C 456.046875 45.058594 456.515625 44.175781 456.503906 43.175781 C 456.484375 41.691406 455.417969 40.5 454.121094 40.515625 Z M 454.121094 40.515625 C 452.820312 40.535156 451.785156 41.753906 451.800781 43.242188 C 451.808594 44.246094 452.292969 45.109375 453.007812 45.5625 C 453.078125 45.609375 453.15625 45.652344 453.234375 45.691406 L 453.292969 45.71875 C 453.335938 45.738281 453.382812 45.757812 453.425781 45.773438 C 453.453125 45.78125 453.476562 45.792969 453.507812 45.796875 C 453.523438 45.804688 453.542969 45.8125 453.5625 45.816406 C 453.5625 45.816406 453.570312 45.820312 453.570312 45.820312 C 453.59375 45.828125 453.609375 45.832031 453.632812 45.835938 C 453.644531 45.835938 453.652344 45.84375 453.664062 45.84375 C 453.695312 45.851562 453.730469 45.859375 453.765625 45.867188 C 453.789062 45.871094 453.8125 45.875 453.835938 45.878906 C 453.855469 45.882812 453.875 45.882812 453.894531 45.882812 C 453.9375 45.890625 453.988281 45.898438 454.035156 45.898438 C 454.039062 45.902344 454.046875 45.902344 454.054688 45.902344 C 454.074219 45.902344 454.09375 45.902344 454.117188 45.902344 C 454.125 45.902344 454.140625 45.902344 454.152344 45.902344 L 454.179688 45.902344 C 454.277344 45.902344 454.375 45.894531 454.46875 45.875 C 454.5 45.871094 454.523438 45.871094 454.550781 45.867188 C 454.625 45.851562 454.707031 45.832031 454.78125 45.804688 C 454.796875 45.796875 454.8125 45.792969 454.832031 45.785156 C 454.835938 45.785156 454.835938 45.78125 454.835938 45.78125 C 454.84375 45.78125 454.847656 45.78125 454.847656 45.78125 C 454.863281 45.777344 454.878906 45.769531 454.890625 45.765625 C 454.949219 45.746094 455.007812 45.71875 455.0625 45.695312 L 455.078125 45.6875 C 455.167969 45.640625 455.261719 45.589844 455.34375 45.53125 C 456.046875 45.058594 456.515625 44.175781 456.503906 43.175781 C 456.484375 41.691406 455.417969 40.5 454.121094 40.515625 Z M 454.121094 40.515625 C 452.820312 40.535156 451.785156 41.753906 451.800781 43.242188 C 451.808594 44.246094 452.292969 45.109375 453.007812 45.5625 C 453.078125 45.609375 453.15625 45.652344 453.234375 45.691406 L 453.292969 45.71875 C 453.335938 45.738281 453.382812 45.757812 453.425781 45.773438 C 453.453125 45.78125 453.476562 45.792969 453.507812 45.796875 C 453.523438 45.804688 453.542969 45.8125 453.5625 45.816406 C 453.5625 45.816406 453.570312 45.820312 453.570312 45.820312 C 453.59375 45.828125 453.609375 45.832031 453.632812 45.835938 C 453.644531 45.835938 453.652344 45.84375 453.664062 45.84375 C 453.695312 45.851562 453.730469 45.859375 453.765625 45.867188 C 453.789062 45.871094 453.8125 45.875 453.835938 45.878906 C 453.855469 45.882812 453.875 45.882812 453.894531 45.882812 C 453.9375 45.890625 453.988281 45.898438 454.035156 45.898438 C 454.039062 45.902344 454.046875 45.902344 454.054688 45.902344 C 454.074219 45.902344 454.09375 45.902344 454.117188 45.902344 C 454.125 45.902344 454.140625 45.902344 454.152344 45.902344 L 454.179688 45.902344 C 454.277344 45.902344 454.375 45.894531 454.46875 45.875 C 454.5 45.871094 454.523438 45.871094 454.550781 45.867188 C 454.625 45.851562 454.707031 45.832031 454.78125 45.804688 C 454.796875 45.796875 454.8125 45.792969 454.832031 45.785156 C 454.835938 45.785156 454.835938 45.78125 454.835938 45.78125 C 454.84375 45.78125 454.847656 45.78125 454.847656 45.78125 C 454.863281 45.777344 454.878906 45.769531 454.890625 45.765625 C 454.949219 45.746094 455.007812 45.71875 455.0625 45.695312 L 455.078125 45.6875 C 455.167969 45.640625 455.261719 45.589844 455.34375 45.53125 C 456.046875 45.058594 456.515625 44.175781 456.503906 43.175781 C 456.484375 41.691406 455.417969 40.5 454.121094 40.515625 Z M 455.050781 46.605469 L 455.144531 46.582031 L 455.164062 46.566406 C 455.125 46.582031 455.089844 46.59375 455.050781 46.605469 Z M 454.195312 46.761719 L 454.152344 46.761719 C 454.105469 46.761719 454.058594 46.761719 454.011719 46.757812 C 454.074219 46.761719 454.128906 46.761719 454.1875 46.761719 C 454.222656 46.761719 454.253906 46.761719 454.285156 46.757812 C 454.253906 46.757812 454.226562 46.761719 454.195312 46.761719 Z M 453.015625 46.515625 L 453.023438 46.519531 C 453.066406 46.539062 453.113281 46.554688 453.152344 46.570312 C 453.109375 46.554688 453.0625 46.535156 453.015625 46.515625 " fill-opacity="1" fill-rule="nonzero"/><path fill="#16182d" d="M 486.378906 123.492188 C 486.355469 123.5 486.335938 123.507812 486.316406 123.511719 C 486.300781 123.515625 486.292969 123.519531 486.28125 123.527344 C 486.277344 123.527344 486.265625 123.527344 486.261719 123.53125 C 486.242188 123.539062 486.226562 123.542969 486.207031 123.554688 C 486.164062 123.574219 486.121094 123.59375 486.078125 123.613281 C 486.023438 123.636719 485.972656 123.664062 485.921875 123.699219 C 485.921875 123.699219 485.917969 123.699219 485.914062 123.699219 C 485.871094 123.730469 485.828125 123.753906 485.785156 123.785156 C 485.707031 123.835938 485.632812 123.894531 485.566406 123.957031 C 485.535156 123.988281 485.503906 124.015625 485.472656 124.046875 C 485.417969 124.09375 485.371094 124.148438 485.324219 124.203125 C 485.3125 124.214844 485.304688 124.230469 485.292969 124.242188 C 485.269531 124.269531 485.246094 124.296875 485.226562 124.324219 C 485.203125 124.351562 485.1875 124.375 485.167969 124.402344 C 485.167969 124.40625 485.164062 124.410156 485.164062 124.410156 C 485.152344 124.421875 485.144531 124.4375 485.136719 124.449219 C 485.132812 124.457031 485.125 124.464844 485.121094 124.472656 C 485.113281 124.488281 485.101562 124.5 485.097656 124.511719 C 485.089844 124.523438 485.082031 124.53125 485.078125 124.539062 C 485.027344 124.617188 484.984375 124.695312 484.945312 124.78125 C 484.550781 125.597656 484.535156 126.625 484.992188 127.484375 C 485.664062 128.757812 487.109375 129.160156 488.222656 128.390625 C 489.332031 127.621094 489.6875 125.964844 489.015625 124.695312 C 488.5625 123.835938 487.761719 123.375 486.945312 123.394531 C 486.84375 123.398438 486.746094 123.40625 486.644531 123.425781 C 486.644531 123.425781 486.636719 123.425781 486.632812 123.425781 C 486.589844 123.4375 486.542969 123.445312 486.496094 123.460938 C 486.457031 123.46875 486.417969 123.476562 486.378906 123.492188 " fill-opacity="1" fill-rule="nonzero"/><path fill="#16182d" d="M 454.523438 123.617188 C 454.484375 123.597656 454.445312 123.578125 454.402344 123.5625 C 454.382812 123.558594 454.367188 123.546875 454.351562 123.542969 C 454.3125 123.527344 454.277344 123.511719 454.238281 123.5 C 454.195312 123.488281 454.15625 123.476562 454.113281 123.464844 C 454.054688 123.449219 453.996094 123.4375 453.9375 123.425781 C 453.902344 123.421875 453.863281 123.414062 453.824219 123.410156 C 453.796875 123.40625 453.765625 123.40625 453.742188 123.402344 C 453.703125 123.398438 453.664062 123.394531 453.625 123.394531 C 453.570312 123.394531 453.519531 123.394531 453.464844 123.402344 C 453.453125 123.402344 453.4375 123.402344 453.429688 123.402344 C 453.410156 123.402344 453.390625 123.40625 453.371094 123.40625 C 453.371094 123.40625 453.367188 123.40625 453.363281 123.40625 C 453.363281 123.40625 453.359375 123.40625 453.359375 123.40625 C 453.351562 123.40625 453.34375 123.40625 453.335938 123.410156 C 453.328125 123.410156 453.320312 123.410156 453.316406 123.414062 C 453.308594 123.414062 453.300781 123.414062 453.292969 123.417969 C 453.285156 123.417969 453.269531 123.421875 453.265625 123.421875 C 453.214844 123.425781 453.167969 123.4375 453.125 123.445312 C 453.109375 123.453125 453.089844 123.457031 453.078125 123.460938 C 453.0625 123.460938 453.054688 123.464844 453.046875 123.46875 C 453.015625 123.476562 452.988281 123.484375 452.957031 123.492188 C 452.875 123.519531 452.792969 123.550781 452.714844 123.585938 C 452.667969 123.605469 452.625 123.628906 452.582031 123.652344 C 452.539062 123.675781 452.496094 123.699219 452.453125 123.730469 C 451.738281 124.179688 451.25 125.039062 451.230469 126.042969 C 451.207031 127.53125 452.242188 128.753906 453.542969 128.78125 C 454.84375 128.808594 455.914062 127.625 455.9375 126.136719 C 455.949219 125.136719 455.488281 124.253906 454.789062 123.777344 C 454.703125 123.714844 454.613281 123.664062 454.523438 123.617188 " fill-opacity="1" fill-rule="nonzero"/><path fill="#16182d" d="M 453.292969 45.71875 C 453.335938 45.738281 453.382812 45.757812 453.425781 45.773438 C 453.472656 45.792969 453.515625 45.804688 453.5625 45.816406 C 453.5625 45.816406 453.570312 45.820312 453.570312 45.820312 C 453.601562 45.832031 453.628906 45.835938 453.664062 45.84375 C 453.695312 45.851562 453.730469 45.859375 453.765625 45.867188 C 453.789062 45.871094 453.8125 45.875 453.835938 45.878906 C 453.855469 45.882812 453.875 45.882812 453.894531 45.882812 C 453.902344 45.886719 453.914062 45.886719 453.925781 45.890625 C 453.960938 45.894531 454 45.898438 454.035156 45.902344 C 454.039062 45.902344 454.046875 45.902344 454.054688 45.902344 C 454.058594 45.902344 454.066406 45.902344 454.074219 45.902344 C 454.097656 45.902344 454.125 45.902344 454.152344 45.902344 L 454.179688 45.902344 C 454.277344 45.902344 454.375 45.894531 454.46875 45.875 C 454.5 45.871094 454.523438 45.871094 454.550781 45.867188 C 454.625 45.851562 454.707031 45.832031 454.78125 45.804688 C 454.796875 45.796875 454.820312 45.792969 454.839844 45.78125 C 454.855469 45.78125 454.875 45.773438 454.890625 45.765625 C 454.949219 45.746094 455.007812 45.71875 455.0625 45.695312 L 455.078125 45.6875 C 455.167969 45.640625 455.261719 45.589844 455.34375 45.53125 C 456.046875 45.058594 456.515625 44.175781 456.503906 43.175781 C 456.484375 41.691406 455.417969 40.5 454.121094 40.515625 C 452.820312 40.535156 451.785156 41.753906 451.800781 43.242188 C 451.808594 44.246094 452.292969 45.109375 453.007812 45.5625 C 453.078125 45.609375 453.15625 45.652344 453.234375 45.691406 L 453.292969 45.71875 " fill-opacity="1" fill-rule="nonzero"/><path fill="#16182d" d="M 303.261719 124.695312 C 302.589844 125.964844 302.945312 127.621094 304.058594 128.390625 C 305.171875 129.160156 306.617188 128.757812 307.289062 127.484375 C 307.738281 126.625 307.730469 125.597656 307.332031 124.78125 C 307.292969 124.695312 307.242188 124.609375 307.191406 124.523438 C 307.183594 124.507812 307.171875 124.492188 307.160156 124.476562 C 307.117188 124.40625 307.070312 124.34375 307.019531 124.28125 C 306.988281 124.246094 306.960938 124.207031 306.925781 124.171875 C 306.914062 124.15625 306.898438 124.140625 306.886719 124.128906 C 306.851562 124.085938 306.8125 124.046875 306.773438 124.011719 C 306.75 123.992188 306.726562 123.96875 306.707031 123.949219 C 306.671875 123.921875 306.636719 123.890625 306.601562 123.863281 C 306.570312 123.835938 306.53125 123.808594 306.496094 123.785156 C 306.410156 123.726562 306.324219 123.675781 306.234375 123.628906 C 306.207031 123.613281 306.179688 123.601562 306.152344 123.589844 C 306.089844 123.5625 306.019531 123.53125 305.957031 123.511719 C 305.933594 123.5 305.910156 123.492188 305.886719 123.488281 C 305.882812 123.488281 305.875 123.484375 305.871094 123.484375 C 305.839844 123.472656 305.8125 123.464844 305.78125 123.460938 C 305.730469 123.445312 305.683594 123.433594 305.632812 123.425781 C 305.535156 123.40625 305.433594 123.398438 305.335938 123.394531 C 304.519531 123.375 303.71875 123.835938 303.261719 124.695312 " fill-opacity="1" fill-rule="nonzero"/><path fill="#16182d" d="M 339.84375 43.175781 C 339.851562 44.175781 339.386719 45.058594 338.679688 45.53125 C 338.597656 45.589844 338.503906 45.640625 338.417969 45.6875 L 338.402344 45.695312 C 338.347656 45.71875 338.285156 45.746094 338.230469 45.765625 C 338.210938 45.769531 338.195312 45.777344 338.179688 45.78125 C 338.160156 45.792969 338.144531 45.796875 338.128906 45.796875 C 338.050781 45.828125 337.972656 45.847656 337.890625 45.867188 C 337.867188 45.867188 337.835938 45.871094 337.808594 45.875 C 337.714844 45.894531 337.613281 45.902344 337.519531 45.902344 L 337.492188 45.902344 C 337.472656 45.902344 337.457031 45.902344 337.441406 45.902344 C 337.425781 45.902344 337.40625 45.902344 337.390625 45.902344 C 337.347656 45.898438 337.304688 45.894531 337.265625 45.890625 C 337.25 45.890625 337.234375 45.886719 337.21875 45.882812 C 337.203125 45.882812 337.191406 45.882812 337.175781 45.878906 C 337.152344 45.875 337.128906 45.871094 337.097656 45.867188 C 337.066406 45.859375 337.03125 45.851562 337 45.84375 C 336.96875 45.835938 336.941406 45.832031 336.910156 45.820312 C 336.90625 45.820312 336.90625 45.816406 336.90625 45.816406 C 336.855469 45.804688 336.808594 45.792969 336.765625 45.773438 C 336.71875 45.757812 336.675781 45.738281 336.632812 45.71875 L 336.574219 45.691406 C 336.496094 45.652344 336.417969 45.609375 336.34375 45.5625 C 335.632812 45.109375 335.148438 44.246094 335.136719 43.242188 C 335.121094 41.753906 336.160156 40.535156 337.460938 40.515625 C 338.757812 40.5 339.828125 41.691406 339.84375 43.175781 " fill-opacity="1" fill-rule="nonzero"/><path fill="#16182d" d="M 336.355469 46.515625 C 336.355469 46.515625 336.355469 46.519531 336.359375 46.519531 C 336.40625 46.539062 336.449219 46.554688 336.492188 46.570312 C 336.445312 46.554688 336.398438 46.535156 336.355469 46.515625 Z M 337.53125 46.761719 L 337.492188 46.761719 C 337.441406 46.761719 337.398438 46.761719 337.351562 46.757812 C 337.40625 46.761719 337.46875 46.761719 337.523438 46.761719 C 337.558594 46.761719 337.59375 46.761719 337.625 46.757812 C 337.59375 46.757812 337.5625 46.761719 337.53125 46.761719 Z M 338.390625 46.605469 L 338.484375 46.582031 L 338.503906 46.566406 C 338.46875 46.582031 338.429688 46.59375 338.390625 46.605469 " fill-opacity="1" fill-rule="nonzero"/><path fill="#16182d" d="M 492.953125 121.585938 L 486.863281 121.585938 L 487.382812 122.566406 C 488.324219 122.691406 489.15625 123.304688 489.65625 124.25 C 490.542969 125.925781 490.070312 128.113281 488.609375 129.125 C 488.121094 129.464844 487.570312 129.640625 487.003906 129.640625 C 485.910156 129.640625 484.917969 129 484.351562 127.925781 C 483.855469 126.992188 483.769531 125.847656 484.101562 124.839844 L 482.617188 122.03125 L 482.382812 121.585938 L 455.570312 121.585938 L 455.542969 123.339844 C 456.273438 124.019531 456.703125 125.054688 456.6875 126.152344 C 456.652344 128.078125 455.261719 129.640625 453.585938 129.640625 L 453.527344 129.640625 C 451.820312 129.605469 450.449219 127.984375 450.484375 126.023438 C 450.5 124.929688 450.960938 123.910156 451.710938 123.257812 L 451.738281 121.585938 L 426.558594 121.585938 L 426.324219 122.03125 L 424.839844 124.839844 C 425.171875 125.847656 425.085938 126.992188 424.589844 127.925781 C 424.027344 129 423.035156 129.640625 421.9375 129.640625 C 421.371094 129.640625 420.816406 129.464844 420.332031 129.125 C 418.871094 128.113281 418.398438 125.925781 419.285156 124.25 C 419.789062 123.304688 420.613281 122.691406 421.558594 122.566406 L 422.078125 121.585938 L 415.722656 121.585938 C 415.71875 121.738281 415.710938 121.886719 415.710938 122.039062 C 415.710938 133.214844 433.003906 142.265625 454.339844 142.265625 C 475.671875 142.265625 492.964844 133.214844 492.964844 122.039062 C 492.964844 121.886719 492.964844 121.738281 492.953125 121.585938 " fill-opacity="1" fill-rule="nonzero"/><path fill="#16182d" d="M 423.855469 124.523438 C 423.84375 124.507812 423.832031 124.492188 423.824219 124.476562 C 423.777344 124.40625 423.730469 124.34375 423.679688 124.28125 C 423.652344 124.246094 423.621094 124.207031 423.589844 124.171875 C 423.574219 124.15625 423.5625 124.140625 423.550781 124.128906 C 423.515625 124.085938 423.476562 124.046875 423.433594 124.011719 C 423.414062 123.992188 423.386719 123.96875 423.363281 123.949219 C 423.332031 123.921875 423.296875 123.890625 423.261719 123.863281 C 423.226562 123.835938 423.191406 123.808594 423.15625 123.785156 C 423.070312 123.726562 422.984375 123.675781 422.898438 123.628906 C 422.871094 123.613281 422.84375 123.601562 422.8125 123.589844 C 422.75 123.5625 422.683594 123.53125 422.621094 123.511719 C 422.597656 123.5 422.570312 123.492188 422.550781 123.488281 C 422.542969 123.488281 422.535156 123.484375 422.535156 123.484375 C 422.503906 123.472656 422.472656 123.464844 422.445312 123.460938 C 422.394531 123.445312 422.347656 123.433594 422.296875 123.425781 C 422.195312 123.40625 422.09375 123.398438 421.996094 123.394531 C 421.179688 123.375 420.378906 123.835938 419.925781 124.695312 C 419.253906 125.964844 419.613281 127.621094 420.71875 128.390625 C 421.832031 129.160156 423.277344 128.757812 423.949219 127.484375 C 424.40625 126.625 424.390625 125.597656 423.996094 124.78125 C 423.953125 124.695312 423.90625 124.609375 423.855469 124.523438 " fill-opacity="1" fill-rule="nonzero"/><path fill="#16182d" d="M 395.636719 40.835938 C 394.574219 40.835938 393.714844 41.816406 393.714844 43.03125 C 393.714844 44.246094 394.574219 45.230469 395.636719 45.230469 C 396.695312 45.230469 397.554688 44.246094 397.554688 43.03125 C 397.554688 41.816406 396.695312 40.835938 395.636719 40.835938 " fill-opacity="1" fill-rule="nonzero"/><path fill="#16182d" d="M 336.492188 46.570312 C 336.449219 46.554688 336.40625 46.539062 336.359375 46.519531 C 336.355469 46.519531 336.355469 46.515625 336.355469 46.515625 C 336.398438 46.535156 336.445312 46.554688 336.492188 46.570312 " fill-opacity="1" fill-rule="nonzero"/><path fill="#16182d" d="M 338.503906 46.566406 L 338.484375 46.582031 L 338.390625 46.605469 C 338.429688 46.59375 338.46875 46.582031 338.503906 46.566406 " fill-opacity="1" fill-rule="nonzero"/><path fill="#16182d" d="M 339.84375 43.175781 C 339.851562 44.175781 339.386719 45.058594 338.679688 45.53125 C 338.597656 45.589844 338.503906 45.640625 338.417969 45.6875 L 338.402344 45.695312 C 338.347656 45.71875 338.285156 45.746094 338.230469 45.765625 C 338.210938 45.769531 338.195312 45.777344 338.179688 45.78125 C 338.160156 45.792969 338.144531 45.796875 338.128906 45.796875 C 338.050781 45.828125 337.972656 45.847656 337.890625 45.867188 C 337.867188 45.867188 337.835938 45.871094 337.808594 45.875 C 337.714844 45.894531 337.613281 45.902344 337.519531 45.902344 L 337.492188 45.902344 C 337.472656 45.902344 337.457031 45.902344 337.441406 45.902344 C 337.425781 45.902344 337.40625 45.902344 337.390625 45.902344 C 337.347656 45.898438 337.304688 45.894531 337.265625 45.890625 C 337.25 45.890625 337.234375 45.886719 337.21875 45.882812 C 337.203125 45.882812 337.191406 45.882812 337.175781 45.878906 C 337.152344 45.875 337.128906 45.871094 337.097656 45.867188 C 337.066406 45.859375 337.03125 45.851562 337 45.84375 C 336.96875 45.835938 336.941406 45.832031 336.910156 45.820312 C 336.90625 45.820312 336.90625 45.816406 336.90625 45.816406 C 336.855469 45.804688 336.808594 45.792969 336.765625 45.773438 C 336.71875 45.757812 336.675781 45.738281 336.632812 45.71875 L 336.574219 45.691406 C 336.496094 45.652344 336.417969 45.609375 336.34375 45.5625 C 335.632812 45.109375 335.148438 44.246094 335.136719 43.242188 C 335.121094 41.753906 336.160156 40.535156 337.460938 40.515625 C 338.757812 40.5 339.828125 41.691406 339.84375 43.175781 " fill-opacity="1" fill-rule="nonzero"/><path fill="#16182d" d="M 339.84375 43.175781 C 339.851562 44.175781 339.386719 45.058594 338.679688 45.53125 C 338.597656 45.589844 338.503906 45.640625 338.417969 45.6875 L 338.402344 45.695312 C 338.347656 45.71875 338.285156 45.746094 338.230469 45.765625 C 338.210938 45.769531 338.203125 45.777344 338.1875 45.78125 C 338.179688 45.78125 338.179688 45.78125 338.179688 45.78125 C 338.175781 45.78125 338.171875 45.785156 338.171875 45.785156 C 338.15625 45.792969 338.144531 45.796875 338.128906 45.796875 C 338.050781 45.828125 337.972656 45.847656 337.890625 45.867188 C 337.867188 45.867188 337.835938 45.871094 337.808594 45.875 C 337.714844 45.890625 337.617188 45.902344 337.519531 45.902344 C 337.476562 45.902344 337.433594 45.902344 337.390625 45.902344 C 337.347656 45.898438 337.304688 45.894531 337.265625 45.890625 C 337.25 45.890625 337.234375 45.886719 337.21875 45.882812 C 337.203125 45.882812 337.191406 45.882812 337.175781 45.878906 C 337.152344 45.875 337.128906 45.871094 337.097656 45.867188 C 337.078125 45.863281 337.050781 45.855469 337.027344 45.851562 C 337.019531 45.847656 337.007812 45.847656 337 45.84375 C 336.992188 45.84375 336.980469 45.835938 336.972656 45.835938 C 336.949219 45.832031 336.929688 45.828125 336.910156 45.820312 C 336.90625 45.820312 336.90625 45.816406 336.90625 45.816406 C 336.882812 45.8125 336.863281 45.804688 336.84375 45.796875 C 336.820312 45.792969 336.789062 45.78125 336.765625 45.773438 C 336.71875 45.757812 336.675781 45.738281 336.632812 45.71875 L 336.574219 45.691406 C 336.496094 45.652344 336.417969 45.609375 336.34375 45.5625 C 335.632812 45.109375 335.148438 44.246094 335.136719 43.242188 C 335.121094 41.753906 336.160156 40.535156 337.460938 40.515625 C 338.757812 40.5 339.828125 41.691406 339.84375 43.175781 " fill-opacity="1" fill-rule="nonzero"/><path fill="#16182d" d="M 336.492188 46.570312 C 336.449219 46.554688 336.40625 46.539062 336.359375 46.519531 C 336.355469 46.519531 336.355469 46.515625 336.355469 46.515625 C 336.398438 46.535156 336.445312 46.554688 336.492188 46.570312 " fill-opacity="1" fill-rule="nonzero"/><path fill="#16182d" d="M 337.625 46.757812 C 337.59375 46.761719 337.558594 46.761719 337.523438 46.761719 C 337.46875 46.761719 337.40625 46.761719 337.351562 46.757812 C 337.398438 46.761719 337.441406 46.761719 337.492188 46.761719 L 337.53125 46.761719 C 337.5625 46.761719 337.59375 46.757812 337.625 46.757812 " fill-opacity="1" fill-rule="nonzero"/><path fill="#16182d" d="M 338.503906 46.566406 L 338.484375 46.582031 L 338.390625 46.605469 C 338.429688 46.59375 338.46875 46.582031 338.503906 46.566406 " fill-opacity="1" fill-rule="nonzero"/><path fill="#16182d" d="M 336.492188 46.570312 C 336.449219 46.554688 336.40625 46.539062 336.359375 46.519531 C 336.355469 46.519531 336.355469 46.515625 336.355469 46.515625 C 336.398438 46.535156 336.445312 46.554688 336.492188 46.570312 " fill-opacity="1" fill-rule="nonzero"/><path fill="#16182d" d="M 338.503906 46.566406 L 338.484375 46.582031 L 338.390625 46.605469 C 338.429688 46.59375 338.46875 46.582031 338.503906 46.566406 " fill-opacity="1" fill-rule="nonzero"/><path fill="#16182d" d="M 376.292969 121.585938 L 370.199219 121.585938 L 370.71875 122.566406 C 371.660156 122.691406 372.496094 123.304688 372.996094 124.25 C 373.878906 125.925781 373.410156 128.113281 371.949219 129.125 C 371.460938 129.464844 370.90625 129.640625 370.34375 129.640625 C 369.25 129.640625 368.253906 129 367.6875 127.925781 C 367.191406 126.992188 367.105469 125.847656 367.4375 124.839844 L 365.953125 122.03125 L 365.71875 121.585938 L 338.910156 121.585938 L 338.882812 123.339844 C 339.609375 124.019531 340.039062 125.054688 340.023438 126.152344 C 339.992188 128.078125 338.601562 129.640625 336.925781 129.640625 L 336.867188 129.640625 C 335.15625 129.605469 333.792969 127.984375 333.820312 126.023438 C 333.835938 124.929688 334.300781 123.910156 335.050781 123.257812 L 335.078125 121.585938 L 309.898438 121.585938 L 309.664062 122.03125 L 308.179688 124.839844 C 308.511719 125.847656 308.425781 126.992188 307.929688 127.925781 C 307.363281 129 306.371094 129.640625 305.277344 129.640625 C 304.710938 129.640625 304.15625 129.464844 303.667969 129.125 C 302.207031 128.113281 301.738281 125.925781 302.621094 124.25 C 303.125 123.304688 303.957031 122.691406 304.898438 122.566406 L 305.417969 121.585938 L 299.0625 121.585938 C 299.054688 121.738281 299.046875 121.886719 299.046875 122.039062 C 299.046875 133.214844 316.34375 142.265625 337.675781 142.265625 C 359.011719 142.265625 376.304688 133.214844 376.304688 122.039062 C 376.304688 121.886719 376.300781 121.738281 376.292969 121.585938 " fill-opacity="1" fill-rule="nonzero"/><path fill="#16182d" d="M 369.714844 123.492188 C 369.695312 123.5 369.675781 123.507812 369.652344 123.511719 C 369.644531 123.515625 369.628906 123.519531 369.621094 123.527344 C 369.613281 123.527344 369.605469 123.527344 369.597656 123.53125 C 369.578125 123.539062 369.5625 123.542969 369.542969 123.554688 C 369.5 123.574219 369.457031 123.59375 369.417969 123.613281 C 369.363281 123.636719 369.3125 123.664062 369.261719 123.699219 C 369.257812 123.699219 369.253906 123.699219 369.253906 123.699219 C 369.207031 123.730469 369.167969 123.753906 369.125 123.785156 C 369.046875 123.835938 368.972656 123.894531 368.902344 123.957031 C 368.871094 123.988281 368.839844 124.015625 368.804688 124.046875 C 368.757812 124.09375 368.707031 124.148438 368.664062 124.203125 C 368.652344 124.214844 368.636719 124.230469 368.632812 124.242188 C 368.605469 124.269531 368.582031 124.296875 368.566406 124.324219 C 368.542969 124.351562 368.527344 124.375 368.507812 124.402344 C 368.503906 124.40625 368.5 124.410156 368.5 124.410156 C 368.492188 124.421875 368.480469 124.4375 368.480469 124.449219 C 368.46875 124.457031 368.460938 124.464844 368.460938 124.472656 C 368.449219 124.488281 368.441406 124.5 368.433594 124.511719 C 368.425781 124.523438 368.421875 124.53125 368.417969 124.539062 C 368.367188 124.617188 368.324219 124.695312 368.285156 124.78125 C 367.886719 125.597656 367.878906 126.625 368.328125 127.484375 C 369.003906 128.757812 370.449219 129.160156 371.558594 128.390625 C 372.671875 127.621094 373.03125 125.964844 372.355469 124.695312 C 371.898438 123.835938 371.097656 123.375 370.28125 123.394531 C 370.183594 123.398438 370.082031 123.40625 369.984375 123.425781 C 369.980469 123.425781 369.972656 123.425781 369.972656 123.425781 C 369.925781 123.4375 369.882812 123.445312 369.835938 123.460938 C 369.796875 123.46875 369.753906 123.476562 369.714844 123.492188 " fill-opacity="1" fill-rule="nonzero"/><path fill="#16182d" d="M 307.761719 123.96875 L 309.023438 121.585938 L 335.863281 70.820312 L 336.632812 69.363281 L 336.609375 71.066406 L 335.824219 121.585938 L 335.808594 122.777344 C 336.164062 122.617188 336.539062 122.539062 336.921875 122.539062 L 336.976562 122.539062 C 337.378906 122.546875 337.777344 122.644531 338.144531 122.824219 L 338.160156 121.585938 L 338.945312 70.941406 L 338.96875 69.335938 L 339.699219 70.714844 L 339.699219 70.71875 L 366.59375 121.585938 L 367.851562 123.96875 C 368.085938 123.605469 368.390625 123.289062 368.734375 123.050781 C 369.078125 122.8125 369.457031 122.652344 369.851562 122.582031 L 369.324219 121.585938 L 339.773438 65.699219 L 339.613281 65.390625 L 339.175781 64.5625 L 339.046875 64.320312 L 338.917969 64.070312 L 338.742188 47.644531 L 338.734375 47.070312 L 336.953125 47.070312 C 336.761719 47.070312 336.578125 47.050781 336.394531 47.015625 L 336.421875 49.300781 L 336.582031 64.300781 L 336.441406 64.5625 L 336.007812 65.390625 L 335.945312 65.507812 L 306.292969 121.585938 L 305.765625 122.582031 C 306.160156 122.652344 306.539062 122.8125 306.882812 123.050781 C 307.226562 123.289062 307.527344 123.601562 307.761719 123.96875 " fill-opacity="1" fill-rule="nonzero"/><path fill="#16182d" d="M 337.859375 123.617188 C 337.820312 123.597656 337.78125 123.578125 337.738281 123.5625 C 337.722656 123.558594 337.707031 123.546875 337.6875 123.542969 C 337.648438 123.527344 337.609375 123.511719 337.578125 123.5 C 337.535156 123.488281 337.496094 123.476562 337.453125 123.464844 C 337.394531 123.449219 337.335938 123.4375 337.273438 123.425781 C 337.238281 123.421875 337.199219 123.414062 337.164062 123.410156 C 337.132812 123.40625 337.105469 123.40625 337.078125 123.402344 C 337.042969 123.398438 337.003906 123.394531 336.960938 123.394531 C 336.90625 123.394531 336.855469 123.394531 336.804688 123.402344 C 336.789062 123.402344 336.78125 123.402344 336.769531 123.402344 C 336.75 123.402344 336.730469 123.40625 336.710938 123.40625 C 336.707031 123.40625 336.703125 123.40625 336.703125 123.40625 C 336.699219 123.40625 336.699219 123.40625 336.699219 123.40625 C 336.6875 123.40625 336.683594 123.40625 336.675781 123.410156 C 336.667969 123.410156 336.660156 123.410156 336.652344 123.414062 C 336.648438 123.414062 336.640625 123.414062 336.632812 123.417969 C 336.621094 123.417969 336.613281 123.421875 336.601562 123.421875 C 336.554688 123.425781 336.507812 123.4375 336.460938 123.445312 C 336.445312 123.453125 336.425781 123.457031 336.414062 123.460938 C 336.402344 123.460938 336.390625 123.464844 336.382812 123.46875 C 336.355469 123.476562 336.324219 123.484375 336.300781 123.492188 C 336.214844 123.519531 336.132812 123.550781 336.050781 123.585938 C 336.007812 123.605469 335.960938 123.628906 335.917969 123.652344 C 335.875 123.675781 335.835938 123.699219 335.792969 123.730469 C 335.078125 124.179688 334.585938 125.039062 334.570312 126.042969 C 334.546875 127.53125 335.585938 128.753906 336.882812 128.78125 C 338.179688 128.808594 339.253906 127.625 339.273438 126.136719 C 339.289062 125.136719 338.828125 124.253906 338.125 123.777344 C 338.039062 123.714844 337.953125 123.664062 337.859375 123.617188 " fill-opacity="1" fill-rule="nonzero"/><path fill="#16182d" d="M 395.636719 40.835938 C 396.695312 40.835938 397.554688 41.816406 397.554688 43.03125 C 397.554688 44.246094 396.695312 45.230469 395.636719 45.230469 C 394.574219 45.230469 393.714844 44.246094 393.714844 43.03125 C 393.714844 41.816406 394.574219 40.835938 395.636719 40.835938 " fill-opacity="1" fill-rule="nonzero"/><path fill="#16182d" d="M 455.164062 46.566406 C 455.128906 46.582031 455.089844 46.59375 455.050781 46.605469 C 455.011719 46.621094 454.972656 46.632812 454.9375 46.644531 C 454.804688 46.683594 454.675781 46.714844 454.539062 46.730469 C 454.488281 46.742188 454.445312 46.75 454.394531 46.75 C 454.386719 46.75 454.382812 46.75 454.375 46.75 C 454.347656 46.753906 454.320312 46.757812 454.292969 46.757812 L 454.289062 46.757812 C 454.253906 46.757812 454.226562 46.761719 454.195312 46.761719 L 454.148438 46.761719 C 454.105469 46.761719 454.058594 46.761719 454.011719 46.753906 C 453.960938 46.753906 453.902344 46.75 453.851562 46.742188 C 453.84375 46.742188 453.835938 46.742188 453.824219 46.742188 C 453.78125 46.738281 453.734375 46.730469 453.6875 46.722656 C 453.613281 46.707031 453.542969 46.691406 453.464844 46.675781 C 453.4375 46.667969 453.414062 46.660156 453.386719 46.652344 C 453.339844 46.640625 453.300781 46.625 453.261719 46.613281 C 453.226562 46.597656 453.191406 46.589844 453.152344 46.570312 C 453.105469 46.554688 453.0625 46.535156 453.019531 46.515625 C 452.996094 46.503906 452.976562 46.5 452.957031 46.488281 C 452.84375 46.433594 452.742188 46.378906 452.648438 46.3125 C 452.511719 46.230469 452.382812 46.132812 452.261719 46.027344 C 451.515625 45.367188 451.0625 44.347656 451.050781 43.253906 C 451.035156 42.304688 451.351562 41.40625 451.929688 40.730469 C 452.511719 40.050781 453.285156 39.667969 454.109375 39.660156 L 454.148438 39.660156 C 455.839844 39.660156 457.234375 41.230469 457.253906 43.164062 C 457.265625 44.261719 456.828125 45.296875 456.101562 45.96875 C 455.980469 46.082031 455.855469 46.183594 455.722656 46.273438 C 455.617188 46.347656 455.496094 46.417969 455.371094 46.476562 C 455.363281 46.476562 455.363281 46.480469 455.355469 46.484375 C 455.292969 46.515625 455.226562 46.542969 455.164062 46.566406 Z M 395.636719 46.515625 C 393.953125 46.515625 392.589844 44.953125 392.589844 43.03125 C 392.589844 41.109375 393.953125 39.546875 395.636719 39.546875 C 397.3125 39.546875 398.675781 41.109375 398.675781 43.03125 C 398.675781 44.953125 397.3125 46.515625 395.636719 46.515625 Z M 339.433594 45.96875 C 339.316406 46.082031 339.191406 46.183594 339.0625 46.273438 C 338.953125 46.347656 338.832031 46.414062 338.710938 46.476562 C 338.703125 46.476562 338.699219 46.480469 338.691406 46.484375 C 338.632812 46.515625 338.570312 46.539062 338.503906 46.566406 L 338.484375 46.582031 L 338.390625 46.605469 C 338.351562 46.621094 338.316406 46.628906 338.277344 46.644531 C 338.144531 46.683594 338.007812 46.714844 337.871094 46.730469 C 337.828125 46.742188 337.78125 46.75 337.730469 46.75 C 337.726562 46.75 337.722656 46.75 337.714844 46.75 C 337.683594 46.753906 337.660156 46.757812 337.628906 46.757812 C 337.59375 46.761719 337.558594 46.761719 337.523438 46.761719 C 337.46875 46.761719 337.410156 46.761719 337.351562 46.753906 C 337.296875 46.753906 337.242188 46.75 337.191406 46.742188 C 337.179688 46.742188 337.167969 46.742188 337.164062 46.742188 C 337.117188 46.738281 337.070312 46.730469 337.027344 46.722656 C 336.992188 46.714844 336.960938 46.710938 336.929688 46.703125 C 336.917969 46.703125 336.898438 46.695312 336.882812 46.691406 C 336.855469 46.683594 336.828125 46.675781 336.804688 46.675781 C 336.773438 46.667969 336.753906 46.660156 336.726562 46.65625 C 336.683594 46.640625 336.640625 46.625 336.597656 46.613281 C 336.5625 46.597656 336.527344 46.589844 336.496094 46.570312 C 336.46875 46.5625 336.445312 46.554688 336.421875 46.542969 C 336.402344 46.535156 336.378906 46.527344 336.355469 46.519531 L 336.355469 46.515625 C 336.332031 46.503906 336.316406 46.5 336.296875 46.488281 C 336.183594 46.433594 336.082031 46.378906 335.984375 46.3125 C 335.851562 46.230469 335.722656 46.132812 335.601562 46.023438 C 334.855469 45.367188 334.398438 44.347656 334.386719 43.253906 C 334.378906 42.304688 334.691406 41.40625 335.269531 40.730469 C 335.847656 40.050781 336.625 39.667969 337.449219 39.660156 L 337.492188 39.660156 C 339.175781 39.660156 340.566406 41.230469 340.589844 43.164062 C 340.601562 44.261719 340.167969 45.296875 339.433594 45.96875 Z M 485.988281 121.585938 L 456.4375 65.699219 L 456.273438 65.390625 L 455.839844 64.558594 L 455.710938 64.324219 L 455.539062 64.003906 L 455.363281 47.648438 L 455.359375 46.894531 C 455.621094 46.796875 455.875 46.671875 456.101562 46.503906 C 456.332031 46.347656 456.546875 46.15625 456.734375 45.9375 C 457.398438 45.179688 457.785156 44.101562 457.710938 42.925781 C 457.585938 40.882812 456.003906 39.347656 454.210938 39.347656 L 399.570312 39.347656 L 399.570312 35.941406 C 399.570312 32.773438 401.8125 30.203125 404.582031 30.203125 C 407.507812 30.203125 409.601562 27.453125 409.601562 24.453125 C 409.601562 23.5 409.386719 22.515625 408.921875 21.59375 L 399.976562 3.84375 C 398.046875 0.0195312 393.222656 0.0195312 391.289062 3.84375 L 382.347656 21.59375 C 380.417969 25.417969 382.824219 30.203125 386.6875 30.203125 C 388.074219 30.203125 389.324219 30.84375 390.230469 31.886719 C 391.136719 32.921875 391.703125 34.359375 391.703125 35.941406 L 391.703125 39.347656 L 336.921875 39.347656 C 335.988281 39.347656 335.144531 39.78125 334.535156 40.480469 C 333.921875 41.179688 333.546875 42.140625 333.546875 43.207031 C 333.546875 44.808594 334.398438 46.183594 335.609375 46.765625 C 335.847656 46.878906 336.097656 46.964844 336.355469 47.015625 C 336.371094 47.019531 336.382812 47.023438 336.390625 47.023438 C 336.53125 47.050781 336.667969 47.0625 336.8125 47.066406 C 336.847656 47.070312 336.886719 47.070312 336.921875 47.070312 L 391.703125 47.070312 L 391.703125 143.328125 L 396.007812 141.777344 L 399.570312 143.058594 L 399.570312 47.070312 L 453.023438 47.070312 L 453.050781 49.300781 L 453.214844 64.363281 L 453.105469 64.558594 L 452.667969 65.390625 L 452.605469 65.507812 L 422.953125 121.585938 L 422.425781 122.582031 C 422.820312 122.652344 423.203125 122.8125 423.546875 123.050781 C 423.886719 123.289062 424.191406 123.601562 424.425781 123.972656 L 425.683594 121.585938 L 452.527344 70.820312 L 453.296875 69.363281 L 453.269531 71.066406 L 452.488281 121.585938 L 452.472656 122.777344 C 452.820312 122.621094 453.199219 122.539062 453.582031 122.539062 L 453.640625 122.539062 C 454.039062 122.550781 454.4375 122.644531 454.804688 122.824219 L 454.820312 121.585938 L 455.605469 70.941406 L 455.628906 69.335938 L 456.359375 70.714844 L 456.359375 70.71875 L 483.257812 121.585938 L 484.515625 123.972656 C 484.75 123.605469 485.046875 123.289062 485.394531 123.050781 C 485.742188 122.8125 486.121094 122.652344 486.515625 122.582031 L 485.988281 121.585938 " fill-opacity="1" fill-rule="nonzero"/><path fill="#16182d" d="M 397.554688 43.03125 C 397.554688 44.246094 396.695312 45.230469 395.636719 45.230469 C 394.574219 45.230469 393.714844 44.246094 393.714844 43.03125 C 393.714844 41.816406 394.574219 40.835938 395.636719 40.835938 C 396.695312 40.835938 397.554688 41.816406 397.554688 43.03125 " fill-opacity="1" fill-rule="nonzero"/><path fill="#16182d" d="M 397.554688 43.03125 C 397.554688 44.246094 396.695312 45.230469 395.636719 45.230469 C 394.574219 45.230469 393.714844 44.246094 393.714844 43.03125 C 393.714844 41.816406 394.574219 40.835938 395.636719 40.835938 C 396.695312 40.835938 397.554688 41.816406 397.554688 43.03125 " fill-opacity="1" fill-rule="nonzero"/></svg>