<svg xmlns="http://www.w3.org/2000/svg" xmlns:xlink="http://www.w3.org/1999/xlink" width="1056" zoomAndPan="magnify" viewBox="0 0 792 611.999999" height="816" preserveAspectRatio="xMidYMid meet" version="1.0"><defs><clipPath id="66c06b6919"><path d="M 151.347656 61.199219 L 640.347656 61.199219 L 640.347656 550.199219 L 151.347656 550.199219 Z M 151.347656 61.199219 " clip-rule="nonzero"/></clipPath></defs><rect x="-79.2" width="950.4" fill="#ffffff" y="-61.2" height="734.399999" fill-opacity="1"/><rect x="-79.2" width="950.4" fill="#ffffff" y="-61.2" height="734.399999" fill-opacity="1"/><g clip-path="url(#66c06b6919)"><path fill="#1a4789" d="M 640.347656 475.839844 C 640.347656 516.878906 607.085938 550.140625 566.046875 550.140625 L 225.671875 550.140625 C 184.636719 550.140625 151.367188 516.878906 151.367188 475.839844 L 151.367188 135.464844 C 151.367188 94.425781 184.636719 61.160156 225.671875 61.160156 L 566.046875 61.160156 C 607.082031 61.160156 640.347656 94.425781 640.347656 135.464844 Z M 640.347656 475.839844 " fill-opacity="1" fill-rule="nonzero"/></g><path fill="#ffffff" d="M 475.367188 343.644531 L 483.277344 282.335938 L 422.558594 282.335938 L 422.558594 243.1875 C 422.558594 225.4375 427.511719 213.339844 452.960938 213.339844 L 485.402344 213.320312 L 485.402344 158.488281 C 479.800781 157.742188 460.546875 156.070312 438.105469 156.070312 C 391.289062 156.070312 359.261719 184.648438 359.261719 237.125 L 359.261719 282.335938 L 306.316406 282.335938 L 306.316406 343.644531 L 359.261719 343.644531 L 359.261719 500.960938 L 422.558594 500.960938 L 422.558594 343.644531 Z M 475.367188 343.644531 " fill-opacity="1" fill-rule="nonzero"/></svg>