<?xml version="1.0" encoding="UTF-8"?>
<svg width="1200pt" height="1200pt" version="1.1" viewBox="0 0 1200 1200" xmlns="http://www.w3.org/2000/svg">
 <g>
  <path d="m1200 600c0 214.36-114.36 412.44-300 519.62-185.64 107.18-414.36 107.18-600 0-185.64-107.18-300-305.26-300-519.62s114.36-412.44 300-519.62c185.64-107.18 414.36-107.18 600 0 185.64 107.18 300 305.26 300 519.62" fill="#eb6863"/>
  <path d="m235.24 814.16c2.1367 10.223 7.7148 19.402 15.805 26.004 8.0898 6.6055 18.199 10.23 28.645 10.273h73.316c10.441-0.046875 20.551-3.6719 28.641-10.273 8.0898-6.6055 13.664-15.781 15.797-26.004l2.1484-10.457h-166.5z" fill="#fff"/>
  <path d="m244.29 785.91h0.003906c1.5039 0.75 3.2422 0.87109 4.8359 0.33984 1.5977-0.53516 2.9141-1.6797 3.6641-3.1836 22.91-45.938 51.836-103.71 63.543-126.68 11.699 22.965 40.629 80.738 63.547 126.68 1.5625 3.1328 5.3672 4.4062 8.5 2.8438 3.1328-1.5625 4.4062-5.3672 2.8438-8.4961l-0.24609-0.49609c-2.168-4.3477-18.211-36.504-34.129-68.27-10.004-19.969-18.004-35.879-23.777-47.285-3.4297-6.7891-6.1055-12.043-7.9453-15.621-0.98437-1.9141-1.7695-3.418-2.3164-4.4453v0.003907c-0.82031-2.8984-3.4648-4.9023-6.4766-4.9023-3.0117 0-5.6562 2-6.4727 4.8984-0.54688 1.0273-1.332 2.5312-2.3164 4.4492-1.8398 3.5742-4.5117 8.8281-7.9453 15.613-5.7734 11.414-13.77 27.324-23.777 47.289-15.906 31.746-31.941 63.883-34.125 68.262l-0.25 0.50391c-1.5625 3.1328-0.28906 6.9375 2.8398 8.5z" fill="#fff"/>
  <path d="m620.94 532.15c-5.1992 6.1797-12.863 9.75-20.938 9.75-8.0781 0-15.742-3.5703-20.941-9.75-1.6719-2.3867-4.9609-2.9648-7.3516-1.293-2.3867 1.6719-2.9648 4.9648-1.293 7.3516 7.1797 9 18.066 14.246 29.582 14.246s22.402-5.2461 29.582-14.246c1.6719-2.3867 1.0938-5.6758-1.293-7.3516-2.3828-1.6719-5.6758-1.0938-7.3477 1.293z" fill="#fff"/>
  <path d="m546.16 507.06h30.57l0.003907-17.137c-2.25-1.168-4.4102-2.5-6.4688-3.9727-2.7188-2.3711-5.1641-5.0391-7.2891-7.9531-5.957-7.9766-9.168-17.672-9.1484-27.629v-19.793c5.6445 1.0977 11.387 1.6445 17.137 1.6367 20.316 0 37.895-6.6094 46.355-16.211 3.375 3.6641 7.418 6.6523 11.914 8.8047 5.3711 2.6445 11.07 4.5586 16.949 5.6953v19.867c-0.007813 13.66-6.0391 26.621-16.484 35.426-0.37109 0.32031-0.76172 0.60938-1.1758 0.86719l-4.9844 3.2539v17.148h30.332c0.44922 0 0.89062-0.023437 1.3516-0.058594h19.059v-83.156l0.003906-0.003906c0-19.699-7.8242-38.594-21.754-52.523-13.934-13.93-32.824-21.758-52.523-21.758h-0.003906c-19.699 0-38.594 7.8281-52.523 21.758-13.93 13.93-21.754 32.824-21.754 52.523v83.156h19.059c0.46094 0.035156 0.92578 0.058594 1.375 0.058594z" fill="#fff"/>
  <path d="m800.41 803.7 2.1484 10.457c2.1367 10.223 7.7109 19.398 15.801 26.004 8.0898 6.6016 18.199 10.227 28.641 10.273h73.316c10.441-0.042969 20.555-3.668 28.645-10.273 8.0898-6.6016 13.668-15.781 15.805-26.004l2.1484-10.457z" fill="#fff"/>
  <path d="m890.14 641.29c-0.81641-2.8984-3.4609-4.8984-6.4727-4.8984-3.0117 0-5.6562 2.0039-6.4766 4.9023-0.54688 1.0234-1.332 2.5312-2.3164 4.4453-1.8398 3.5781-4.5156 8.832-7.9453 15.621-5.7734 11.406-13.77 27.32-23.777 47.285-15.918 31.766-31.961 63.922-34.129 68.27l-0.24609 0.49609v-0.003906c-1.5625 3.1289-0.28906 6.9336 2.8438 8.4961 3.1328 1.5625 6.9375 0.28906 8.5-2.8438 22.918-45.945 51.848-103.72 63.547-126.68 11.707 22.977 40.633 80.746 63.547 126.68h-0.003907c0.75 1.5039 2.0664 2.6484 3.6641 3.1836 1.5938 0.53125 3.332 0.41016 4.8359-0.33984h0.003907c3.1289-1.5625 4.4023-5.3672 2.8398-8.5l-0.25-0.50391c-2.1836-4.3789-18.219-36.516-34.125-68.262-10.004-19.965-18.004-35.875-23.777-47.289-3.4336-6.7852-6.1055-12.039-7.9453-15.613-0.98438-1.918-1.7695-3.4219-2.3164-4.4492z" fill="#fff"/>
  <path d="m890.83 583.82c-2.6094-3.7227-6.4414-6.418-10.824-7.6172-4.3867-1.1992-9.0547-0.82812-13.195 1.0508-30.34 13.621-93.449 38.973-93.449 38.973l-80.141-74.602-38.367-13.742-54.844 54.844-0.011719-0.015624-0.015625 0.015624-54.844-54.844-38.367 13.742-80.133 74.602s-63.109-25.352-93.449-38.973c-6.2227-2.8125-13.457-2.1719-19.086 1.6875-5.6289 3.8594-8.832 10.383-8.4492 17.195 0.38281 6.8164 4.3008 12.934 10.328 16.141l107.5 57.336c3.3398 1.7695 7.3711 1.6328 10.578-0.36719l81.656-49.98s0.48828 21.16 0.73047 24.504c0.60156 9.0352 1.7188 18.027 3.3438 26.938 3.4062 19.215 9.1211 38.547 6.9922 58.246-1.2773 9.7305-4.2188 19.172-8.6914 27.91-9.3047 20.43-19.031 40.676-28.637 60.922-0.24219 0.48438-0.48438 0.97266-0.73047 1.5195l-3.5859 7.4766-1.8242 3.832-2.5547 5.3516-1.8242 3.832c-0.48828 0.97266-0.73047 1.5195-0.73047 1.5195h0.0625l-4.3789 9.1211h252.23l-4.3789-9.1211h0.0625s-0.24219-0.54688-0.73047-1.5195l-1.8242-3.832-2.5547-5.3516-1.8242-3.832-3.5859-7.4766c-0.24219-0.54688-0.48828-1.0352-0.73047-1.5195-9.6055-20.246-19.336-40.496-28.637-60.922-4.4727-8.7383-7.4141-18.18-8.6914-27.91-2.1289-19.699 3.5859-39.035 6.9922-58.246 1.625-8.9102 2.7422-17.902 3.3438-26.938 0.24219-3.3438 0.73047-24.504 0.73047-24.504l81.656 49.98c3.207 2 7.2383 2.1367 10.578 0.36719l107.5-57.336c4.9258-2.6445 8.4883-7.2656 9.7891-12.703 1.3008-5.4336 0.21875-11.168-2.9766-15.754z" fill="#fff"/>
 </g>
</svg>
