<?xml version="1.0" encoding="UTF-8"?>
<svg width="1200pt" height="1200pt" version="1.1" viewBox="0 0 1200 1200" xmlns="http://www.w3.org/2000/svg">
 <g>
  <path d="m1200 600c0 214.36-114.36 412.44-300 519.62-185.64 107.18-414.36 107.18-600 0-185.64-107.18-300-305.26-300-519.62s114.36-412.44 300-519.62c185.64-107.18 414.36-107.18 600 0 185.64 107.18 300 305.26 300 519.62" fill="#eb6863"/>
  <path d="m350.5 627.78h-35.875l-0.18359 24.062c-0.023438 2.8906 1.4258 5.5977 3.8438 7.1836 5.8438 3.8242 16.293 10.633 16.918 10.762 0.92188 3.2852 2.9453 6.1562 5.7305 8.1289 2.7852 1.9727 6.1602 2.9336 9.5664 2.7148 3.4062 0.21875 6.7852-0.74219 9.5703-2.7148 2.7852-1.9727 4.8086-4.8438 5.7305-8.1289 0.625-0.13281 11.074-6.9375 16.918-10.762 2.418-1.5859 3.8672-4.293 3.8438-7.1836l-0.1875-24.059z" fill="#fff"/>
  <path d="m314.45 618.29c0.042969 0.11328 0.082031 0.23047 0.11328 0.34766h71.863c0.03125-0.11719 0.066406-0.23438 0.11328-0.34766 3.5156-9.8008 8.3242-19.09 14.297-27.621 7.2852-10.027 11.258-22.078 11.363-34.473 0.007813-16.406-6.4648-32.152-18.012-43.805-11.547-11.656-27.23-18.277-43.637-18.422h-0.14844c-16.398 0.15234-32.074 6.7773-43.613 18.434-11.539 11.652-18.012 27.391-18.004 43.793 0.10938 12.395 4.082 24.445 11.367 34.473 5.9688 8.5312 10.777 17.82 14.297 27.621z" fill="#fff"/>
  <path d="m254.16 741.7c3.0664 8.0117 8.4961 14.902 15.562 19.766 7.0703 4.8633 15.445 7.4648 24.027 7.4648h113.5c8.5781 0 16.957-2.6016 24.027-7.4648 7.0664-4.8633 12.492-11.754 15.562-19.766l18.027-47.09-228.74-0.003907z" fill="#fff"/>
  <path d="m849.41 499.94c-29.363-0.019531-56.703 14.957-72.5 39.711-15.793 24.754-17.855 55.855-5.4688 82.48 12.387 26.621 37.512 45.074 66.621 48.934s58.172-7.4102 77.07-29.883c18.895-22.477 25.008-53.043 16.211-81.059-8.8008-28.012-31.293-49.594-59.648-57.23-7.2695-1.9414-14.762-2.9336-22.285-2.9531zm30.641 34.887 2.1016 8.0625-19.621 32.422c2.4258 3.0273 3.7539 6.7891 3.7578 10.668 0.011719 1.418-0.15625 2.832-0.50391 4.207l24.039 25.441-0.40234 12.469-12.469-0.35156-24.039-25.441c-1.1367 0.22266-2.293 0.33984-3.4531 0.35156-4.4375 0.015625-8.6953-1.7344-11.844-4.8633-3.1445-3.1289-4.9219-7.3789-4.9336-11.812 0-4.4688 1.7617-8.7578 4.9023-11.934 3.1406-3.1797 7.4062-4.9922 11.875-5.043 0.98828 0.003906 1.9766 0.089844 2.9531 0.25l19.57-32.32z" fill="#fff"/>
  <path d="m735.14 694.6 18.027 47.09v0.003906c3.0664 8.0117 8.4961 14.902 15.562 19.766 7.0703 4.8633 15.449 7.4648 24.027 7.4648h113.5c8.582 0 16.957-2.6016 24.027-7.4648 7.0664-4.8633 12.496-11.754 15.562-19.766l18.027-47.09z" fill="#fff"/>
  <path d="m629.81 436.11h247.28l0.003906-11.664c-0.003906-10.66-4.2383-20.883-11.773-28.422-7.5391-7.5391-17.762-11.773-28.422-11.773h-124.78l-35.57-54.918h-153.09l-35.57 54.922-124.78-0.003906c-10.66 0-20.883 4.2383-28.422 11.773-7.5352 7.5391-11.77 17.762-11.773 28.422v11.668z" fill="#fff"/>
  <path d="m618.53 643.09c-41.496-17.301-53.418-27.703-53.418-46.641 0-15.195 11.105-32.965 42.199-32.965v0.003906c19.445-0.14062 38.562 5.0352 55.289 14.961l7.3633 4.3242 16.949-44.77-5.375-3.0391c-14.328-8.3633-30.188-13.77-46.641-15.895l-10.52-1.5195-0.003906-45.355h-43.598v48.16l-8.6484 2.5703c-38.809 11.57-61.836 41.262-61.836 79.137 0 48.859 39.16 70.953 81.59 87.668 13.641 4.7578 26.199 12.191 36.938 21.855 7.3164 7.0703 11.414 16.828 11.336 27.004 0 23.027-19.402 38.457-48.273 38.457-22.449-0.1875-44.383-6.7578-63.238-18.938l-7.832-5.1445-16.25 45.355 4.4414 3.2734h0.003906c17.5 11.09 37.277 18.082 57.859 20.457l10.637 1.5195v47.105h44.066v-49.562l8.6484-2.5703c40.328-12.156 65.227-44.066 65.227-83.227 0-53.77-38.805-76.797-76.914-92.227z" fill="#fff"/>
 </g>
</svg>
