<?xml version="1.0" encoding="UTF-8"?>
<svg width="1200pt" height="1200pt" version="1.1" viewBox="0 0 1200 1200" xmlns="http://www.w3.org/2000/svg">
 <g>
  <path d="m1200 600c0 214.36-114.36 412.44-300 519.62-185.64 107.18-414.36 107.18-600 0-185.64-107.18-300-305.26-300-519.62s114.36-412.44 300-519.62c185.64-107.18 414.36-107.18 600 0 185.64 107.18 300 305.26 300 519.62" fill="#eb6863"/>
  <path d="m461.26 738.16 2.9531-14.762h-232.03l2.9531 14.762c5.9023 29.52 31.883 50.773 61.992 50.773h102.14c30.109-0.58984 56.086-21.844 61.992-50.773z" fill="#fff"/>
  <path d="m735.79 723.39 2.9531 14.762c5.9023 29.52 31.883 50.773 61.992 50.773h102.14c30.109 0 56.09-21.254 61.992-50.773l2.9531-14.762z" fill="#fff"/>
  <path d="m452.4 686.2c-2.9531-5.9023-25.387-50.773-47.824-95.055-14.168-27.75-25.387-50.184-33.062-66.125-4.7227-9.4453-8.2656-16.531-11.219-21.844-1.1797-2.9531-2.3633-4.7227-2.9531-6.4961-1.7695-2.9531-3.543-7.0859-8.8555-7.0859s-7.6758 4.1328-8.8555 7.0859c-0.58984 1.1797-1.7695 3.543-2.9531 6.4961-2.3633 4.7227-6.4961 12.398-11.219 21.844-8.2656 15.941-19.484 38.375-33.062 66.125-23.023 43.691-45.457 88.562-48.41 95.055l-0.58984 0.58984c-1.1797 2.3633-1.1797 4.7227-0.58984 6.4961 0.58984 2.3633 2.3633 4.1328 4.7227 5.3125 4.1328 2.3633 9.4453 0.58984 11.809-4.1328 31.883-64.355 72.621-144.65 88.559-176.53 16.531 31.883 56.68 112.77 88.559 176.53 1.7695 2.9531 4.7227 4.7227 7.6758 4.7227 1.1797 0 2.9531-0.58984 4.1328-1.1797 2.3633-1.1797 3.543-2.9531 4.7227-5.3125 0.58984-2.3633 0.58984-4.7227-0.58984-6.4961z" fill="#fff"/>
  <path d="m956.61 686.79-0.58984-0.58984c-2.9531-5.9023-25.387-50.773-47.824-95.055-14.168-27.75-25.387-50.184-33.062-66.125-4.7227-9.4453-8.2656-16.531-11.219-21.844-1.1797-2.9531-2.3633-4.7227-2.9531-6.4961-1.7695-2.9531-3.543-7.0859-8.8555-7.0859s-7.6758 4.1328-8.8555 7.0859c-0.58984 1.1797-1.7695 3.543-2.9531 6.4961-2.3633 4.7227-6.4961 12.398-11.219 21.844-8.2656 15.941-19.484 38.375-33.062 66.125-22.434 44.281-44.281 89.152-47.824 95.055l-0.58594 0.58984c-2.3633 4.1328-0.58984 9.4453 4.1328 11.809 4.1328 2.3633 9.4453 0.58984 11.809-4.1328 24.797-49.594 70.258-141.11 88.559-176.53 16.531 31.883 56.68 112.77 88.559 176.53 1.7695 2.9531 4.7227 4.7227 7.6758 4.7227 1.1797 0 2.9531-0.58984 4.1328-1.1797 2.3633-1.1797 3.543-2.9531 4.7227-5.3125 0.59375-1.1797 0.003906-3.543-0.58594-5.9062z" fill="#fff"/>
  <path d="m726.94 850.92c-3.543-1.1797-47.23-11.219-67.305-17.121-2.3633-21.254-20.074-259.19-28.93-376.09h255.64c0-22.434-17.121-41.328-40.148-43.691l-220.81-18.895v-1.7695l11.809-47.23c2.9531-11.809 0-24.207-7.0859-33.652l-0.58984-0.58984c-7.0859-8.2656-18.305-12.988-29.523-12.988s-22.434 4.7227-30.109 14.168l-0.58984 0.58984c-7.0859 9.4453-10.035 21.844-7.0859 33.652l11.809 47.23v1.7695l-220.81 18.895c-22.434 1.7695-40.148 20.664-40.148 43.691h255.64c-8.8555 116.9-26.566 354.83-28.93 376.09-20.074 5.9023-63.762 15.941-67.305 17.121-15.941 4.1328-28.93 15.352-34.832 31.293l-7.0859 19.484h337.71l-7.0859-19.484c-5.3125-17.121-18.301-28.93-34.242-32.473z" fill="#fff"/>
 </g>
</svg>
