<?xml version="1.0" encoding="UTF-8"?>
<svg width="1200pt" height="1200pt" version="1.1" viewBox="0 0 1200 1200" xmlns="http://www.w3.org/2000/svg">
 <g>
  <path d="m1200 600c0 214.36-114.36 412.44-300 519.62-185.64 107.18-414.36 107.18-600 0-185.64-107.18-300-305.26-300-519.62s114.36-412.44 300-519.62c185.64-107.18 414.36-107.18 600 0 185.64 107.18 300 305.26 300 519.62" fill="#eb6863"/>
  <path d="m745.36 668.18h-337.46c-6.5195 0-11.809 5.2773-11.809 11.809s5.2891 11.809 11.809 11.809h337.46c6.5312 0 11.809-5.2773 11.809-11.809 0-6.5273-5.293-11.809-11.809-11.809z" fill="#fff"/>
  <path d="m396.09 621.1c0 6.5312 5.2891 11.809 11.809 11.809h296.93c6.5312 0 11.809-5.2773 11.809-11.809s-5.2773-11.809-11.809-11.809h-296.93c-6.5195 0-11.809 5.2812-11.809 11.809z" fill="#fff"/>
  <path d="m543.93 444.44h74.625c6.5312 0 11.809-5.2773 11.809-11.809s-5.2773-11.809-11.809-11.809h-74.625c-6.5195 0-11.809 5.2773-11.809 11.809s5.2891 11.809 11.809 11.809z" fill="#fff"/>
  <path d="m543.93 503.33h74.625c6.5312 0 11.809-5.2773 11.809-11.809s-5.2773-11.809-11.809-11.809h-74.625c-6.5195 0-11.809 5.2773-11.809 11.809s5.2891 11.809 11.809 11.809z" fill="#fff"/>
  <path d="m543.93 562.21h74.625c6.5312 0 11.809-5.2773 11.809-11.809s-5.2773-11.809-11.809-11.809h-74.625c-6.5195 0-11.809 5.2773-11.809 11.809s5.2891 11.809 11.809 11.809z" fill="#fff"/>
  <path d="m743.52 727.07h-335.62c-6.5195 0-11.809 5.2773-11.809 11.809s5.2891 11.809 11.809 11.809h335.62c6.5312 0 11.809-5.2773 11.809-11.809-0.003906-6.5273-5.2812-11.809-11.812-11.809z" fill="#fff"/>
  <path d="m659.38 785.95h-251.48c-6.5195 0-11.809 5.2773-11.809 11.809s5.2891 11.809 11.809 11.809h251.49c6.5312 0 11.809-5.2773 11.809-11.809-0.003906-6.5273-5.2812-11.809-11.812-11.809z" fill="#fff"/>
  <path d="m794.24 301.14h-339.12c-29.875 0-54.434 22.555-58.215 51.484-28.34 4.25-50.184 28.574-50.184 58.094v429.11c0 32.59 26.449 59.039 59.039 59.039h339.12c29.992 0 54.434-22.434 58.215-51.363 28.34-4.3672 50.184-28.695 50.184-58.215l0.003906-429.11c0-32.59-26.449-59.039-59.043-59.039zm-13.934 538.68c0 19.484-15.941 35.426-35.426 35.426l-339.12-0.003906c-19.484 0-35.426-15.941-35.426-35.426l0.003907-429.1c0-19.484 15.941-35.426 35.426-35.426h242.42c-0.23438 1.418-0.58984 2.7148-0.58984 4.0156v85.488c0 23.852 19.484 43.336 43.336 43.336h85.488c1.3008 0 2.5977-0.35547 3.8984-0.58984zm0-358.96c0 0.47266-0.11719 0.94531-0.23438 1.1797-0.47266 0.94531-1.418 2.4805-3.6602 2.4805h-85.492c-10.863 0-19.719-8.8555-19.719-19.719v-85.488c0-2.2422 1.5352-3.1875 2.4805-3.6602 1.5352-0.58984 3.0703-0.23438 4.25 0.94531l101.2 101.2c0.70703 0.70703 1.0625 1.418 1.1797 2.0078z" fill="#fff"/>
  <path d="m512.62 536.71v25.152c0 6.4961-5.1953 11.809-11.809 11.809h-95.883c-6.4961 0-11.809-5.3125-11.809-11.809v-25.152c0-26.098 21.254-47.23 47.23-47.23h25.031c26.102-0.003907 47.238 21.133 47.238 47.23z" fill="#fff"/>
  <path d="m490.07 445.67c0 20.43-16.648 37.078-37.195 37.078-20.43 0-37.078-16.648-37.078-37.078 0-20.547 16.648-37.195 37.078-37.195 20.543 0 37.195 16.648 37.195 37.195z" fill="#fff"/>
 </g>
</svg>
