<?xml version="1.0" encoding="UTF-8"?>
<svg width="1200pt" height="1200pt" version="1.1" viewBox="0 0 1200 1200" xmlns="http://www.w3.org/2000/svg">
 <g>
  <path d="m1200 600c0 214.36-114.36 412.44-300 519.62-185.64 107.18-414.36 107.18-600 0-185.64-107.18-300-305.26-300-519.62s114.36-412.44 300-519.62c185.64-107.18 414.36-107.18 600 0 185.64 107.18 300 305.26 300 519.62" fill="#eb6863"/>
  <path d="m470.72 353.18c-7.1406 13.043-11.699 27.336-13.43 42.102-1.8633 15.371 0.46094 30.957 6.7227 45.117 0.74609 1.7695 1.6055 3.4883 2.5781 5.1445 0.88281 1.6914 1.8594 3.3281 2.9336 4.9023 2.0273 3.2617 4.3477 6.3242 6.9375 9.1602 5.125 5.8164 11.348 10.562 18.312 13.969 6.8359 3.3789 14.402 5.0156 22.023 4.7656 7.1055-0.26172 14.008-2.4258 19.992-6.2656 0.42578-0.27734 0.62109-0.80078 0.47656-1.2891-0.14453-0.48828-0.58984-0.82031-1.0977-0.82422h-0.019531c-6.0273 0.027344-12-1.1211-17.586-3.3789-4.918-2.0898-9.3516-5.1719-13.02-9.0547-6.9062-7.5859-11.555-16.949-13.43-27.039-4.1875-19.613 1.5117-40.234 11.887-59.148 5.6172-9.668 12.125-18.793 19.445-27.246 3.7539-4.6602 7.8984-9.2461 11.918-14.168l6.0938-7.332 6.0977-7.7227c9.2188-11.094 16.004-24 19.918-37.883 1.7422-7.4141 1.8789-15.113 0.40625-22.582-1.4922-7.0039-4.6289-13.551-9.1523-19.098-0.49219-0.60156-1.2539-0.91797-2.0273-0.83984-1.2617 0.13672-2.1719 1.2656-2.0391 2.5273l0.003906 0.050781h0.003907c0.70312 5.9141 0.44531 11.902-0.76172 17.734-1.2461 5.1797-3.3594 10.113-6.2578 14.586-6.5234 9.1016-14.246 17.277-22.957 24.312l-6.9766 6.0625-7.0781 6.3555c-4.7695 4.1992-9.4258 8.7227-14.191 13.438-4.7031 4.7773-9.2812 9.9258-13.734 15.445l-0.003907 0.003906c-4.4883 5.7266-8.4961 11.812-11.988 18.195z" fill="#fff"/>
  <path d="m565.01 348.5c-4.8438 6.1875-9.1719 12.766-12.945 19.66-7.75 14.188-12.695 29.738-14.562 45.801-0.58984 5.5781 3.4531 10.582 9.0312 11.176 0.35938 0.039062 0.72266 0.058593 1.0859 0.058593 5.1914-0.007812 9.543-3.9258 10.09-9.0898 1.5898-13.445 5.7539-26.457 12.258-38.332 3.2305-5.8906 6.9336-11.512 11.082-16.801 3.4414-4.4297 2.6406-10.809-1.7852-14.254-4.4297-3.4414-10.809-2.6484-14.254 1.7812z" fill="#fff"/>
  <path d="m401.75 367.23c2.4531 1.1172 5.25 1.2109 7.7734 0.26562 2.5234-0.94922 4.5664-2.8594 5.6797-5.3125 12.75-28.055 34.793-56.25 65.52-83.797h0.003906c4.1758-3.7422 4.5273-10.168 0.78125-14.344-3.7422-4.1797-10.168-4.5273-14.344-0.78516-32.836 29.434-56.543 59.887-70.461 90.516v0.003906c-1.1133 2.4531-1.207 5.2461-0.26172 7.7695 0.94531 2.5234 2.8555 4.5664 5.3086 5.6836z" fill="#fff"/>
  <path d="m655.29 518.46-331.58 0.027344c-8.0859 0.39844-15.688 3.9805-21.145 9.9609-5.4531 5.9844-8.3203 13.883-7.9727 21.969v354.34c-0.27344 7.9297 2.6562 15.633 8.125 21.379 5.4727 5.7461 13.027 9.0469 20.961 9.1562h13.832c2.5117 8.7188 7.7852 16.383 15.035 21.84 7.2461 5.4531 16.074 8.4023 25.145 8.4023h223.56c9.0742 0 17.906-2.9531 25.156-8.4141s12.527-13.133 15.031-21.859l0.015626-0.058594 13.801 0.0625h0.003906c7.9688-0.14844 15.547-3.4922 21.023-9.2852 5.4766-5.793 8.3906-13.547 8.0898-21.516v-354.34c0.31641-8.0508-2.5625-15.898-8.0117-21.832-5.4492-5.9336-13.027-9.4688-21.074-9.8359z" fill="#fff"/>
  <path d="m816.87 584.76h-93.758v49.348h93.758c10.387 0.015625 20.348 4.1484 27.691 11.492 7.3477 7.3477 11.48 17.305 11.496 27.691-0.039063 36.102-13.121 70.973-36.836 98.195-23.715 27.219-56.465 44.953-92.223 49.934-1.2773 0.20312-2.582 0.34766-3.8906 0.49219v77.328h0.003906c9.3555 0.003906 18.363-3.543 25.211-9.9219 6.8477-6.375 11.02-15.113 11.684-24.445 41.793-11.738 78.613-36.801 104.86-71.383 26.242-34.582 40.477-76.785 40.535-120.2-0.023438-23.473-9.3594-45.977-25.957-62.574-16.598-16.598-39.102-25.934-62.574-25.957z" fill="#fff"/>
 </g>
</svg>
