<?xml version="1.0" encoding="UTF-8"?>
<svg width="1200pt" height="1200pt" version="1.1" viewBox="0 0 1200 1200" xmlns="http://www.w3.org/2000/svg">
 <g>
  <path d="m1200 600c0 214.36-114.36 412.44-300 519.62-185.64 107.18-414.36 107.18-600 0-185.64-107.18-300-305.26-300-519.62s114.36-412.44 300-519.62c185.64-107.18 414.36-107.18 600 0 185.64 107.18 300 305.26 300 519.62" fill="#eb6863"/>
  <path d="m594.69 587.6h-7.0859c-2.9531 0-4.7227-0.58984-5.3125-0.58984l-204.28-36.016v164.13c12.398-1.7695 24.797-2.9531 37.785-2.9531 73.211 0 137.56 31.883 174.76 79.703 37.785-47.82 102.73-79.699 175.94-79.699 12.988 0 25.977 1.1797 37.785 2.9531v-164.13l-204.28 36.012c-0.58984 0-2.9492 0.58984-5.3125 0.58984z" fill="#fff"/>
  <path d="m952.47 575.2v-90.922-1.1797c0-1.7695 0-2.9531-0.58984-4.7227-1.7695-4.7227-5.3125-8.2656-10.629-9.4453l-347.75-60.812h-2.3633-2.3633l-347.15 61.402c-5.3125 1.1797-8.8555 4.1328-10.629 9.4453-0.58984 1.1797-0.58984 2.9531-0.58984 4.7227 0 6.4961 4.7227 12.398 11.219 13.578l106.86 18.895 41.328 7.0859 198.96 34.832h2.3633 2.3633l198.96-34.832 41.328-7.0859 102.73-18.301v77.344l-17.121 98.598 1.1797 0.58984c7.6758 2.9531 15.941 4.1328 23.617 4.1328 7.6758 0 15.941-1.1797 23.617-4.1328l1.1797-0.58984z" fill="#fff"/>
 </g>
</svg>
