<?xml version="1.0" encoding="UTF-8"?>
<svg width="1200pt" height="1200pt" version="1.1" viewBox="0 0 1200 1200" xmlns="http://www.w3.org/2000/svg">
 <g>
  <path d="m1200 600c0 214.36-114.36 412.44-300 519.62-185.64 107.18-414.36 107.18-600 0-185.64-107.18-300-305.26-300-519.62s114.36-412.44 300-519.62c185.64-107.18 414.36-107.18 600 0 185.64 107.18 300 305.26 300 519.62" fill="#fff"/>
  <path d="m947.16 730.48-239.7-221.4 18.301-18.301c7.6758-7.6758 7.0859-20.074-1.1797-26.566l-8.2656-6.4961 22.434-22.434 7.0859 7.0859c14.168 14.168 37.785 14.168 51.957 0l7.0859-7.0859c14.168-14.168 14.168-37.785 0-51.957l-128.12-128.12c-14.168-14.168-37.785-14.168-51.957 0l-7.0859 7.0859c-14.168 14.168-14.168 37.785 0 51.957l7.0859 7.0859-34.242 34.242-10.035-7.6758c-7.0859-5.9023-17.711-5.3125-24.207 1.1797l-33.652 33.652-33.062 34.242c-6.4961 6.4961-7.0859 17.121-1.1797 24.207l7.6758 10.035-34.242 34.242-7.0859-7.0859c-14.168-14.168-37.785-14.168-51.957 0l-7.0859 7.0859c-14.168 14.168-14.168 37.785 0 51.957l127.53 128.12c14.168 14.168 37.785 14.168 51.957 0l7.0859-7.0859c14.168-14.168 14.168-37.785 0-51.957l-7.0859-7.0859 22.434-22.434 6.4961 8.2656c6.4961 8.2656 18.895 8.8555 26.566 1.1797l18.301-18.301 220.81 239.7c21.254 23.027 57.27 23.617 79.113 1.7695 21.848-22.43 21.258-58.445-1.7695-79.109z" fill="#eb6863"/>
  <path d="m429.96 716.9v-34.246c0-8.8555-7.0859-15.941-15.941-15.941-8.8555 0-15.941 7.0859-15.941 15.941v33.652c0 8.8555 7.0859 15.941 15.941 15.941 8.2656 0.59375 15.941-6.4922 15.941-15.348z" fill="#eb6863"/>
  <path d="m265.24 849.74h33.652c8.8555 0 15.941-7.0859 15.941-15.941s-7.0859-15.941-15.941-15.941h-33.652c-8.8555 0-15.941 7.0859-15.941 15.941 0.003907 8.2656 7.0859 15.941 15.941 15.941z" fill="#eb6863"/>
  <path d="m320.74 762.95c2.9531 2.9531 7.0859 4.7227 11.219 4.7227 4.1328 0 8.2656-1.7695 11.219-4.7227 6.4961-6.4961 6.4961-16.531 0-23.027l-24.207-24.207c-6.4961-6.4961-16.531-6.4961-23.027 0-6.4961 6.4961-6.4961 16.531 0 23.027z" fill="#eb6863"/>
  <path d="m594.1 883.39h-343.61c-8.2656 0-15.352 7.0859-15.352 15.352v41.328c0 8.2656 7.0859 15.352 15.352 15.352l343.61-0.003906c8.2656 0 15.352-7.0859 15.352-15.352v-41.328c0-8.2617-7.0859-15.348-15.352-15.348z" fill="#eb6863"/>
 </g>
</svg>
