<?xml version="1.0" encoding="UTF-8"?>
<svg width="1200pt" height="1200pt" version="1.1" viewBox="0 0 1200 1200" xmlns="http://www.w3.org/2000/svg">
 <g>
  <path d="m1200 600c0 214.36-114.36 412.44-300 519.62-185.64 107.18-414.36 107.18-600 0-185.64-107.18-300-305.26-300-519.62s114.36-412.44 300-519.62c185.64-107.18 414.36-107.18 600 0 185.64 107.18 300 305.26 300 519.62" fill="#fff"/>
  <path d="m624.21 735.79c-15.352-1.1797-12.398-15.941-9.4453-27.16 0 0 25.977-97.418 25.977-97.418 7.0859-27.75-13.578-54.906-41.918-54.906-19.484 0-37.195 12.988-41.918 32.473-3.543 14.168-33.652 138.15-34.242 138.75-4.1328 17.711-9.4453 40.148-1.7695 57.27 11.809 26.566 47.23 18.895 69.078 12.398 14.762-4.1328 28.93-10.629 42.508-18.301 14.168-8.8555 43.098-33.652 43.098-34.242l-2.9531-28.93c-11.809 9.4453-33.062 21.254-48.414 20.07z" fill="#eb6863"/>
  <path d="m634.84 396.9c-32.473-1.7695-64.355 27.16-65.535 60.223-0.58984 10.035 2.3633 19.484 7.0859 27.75 20.074 32.473 66.125 25.387 90.922 2.9531 33.062-29.523 10.625-88.562-32.473-90.926z" fill="#eb6863"/>
  <path d="m600 237.5c-200.14 0-362.5 162.36-362.5 362.5s162.95 362.51 362.51 362.51c200.14 0 362.51-162.95 362.51-362.51-0.003907-200.14-162.36-362.5-362.51-362.5zm0 647.08c-157.05 0-284.57-127.53-284.57-284.57s127.53-284.57 284.57-284.57 284.57 127.53 284.57 284.57-127.53 284.57-284.57 284.57z" fill="#eb6863"/>
 </g>
</svg>
