<?xml version="1.0" encoding="UTF-8"?>
<svg width="1200pt" height="1200pt" version="1.1" viewBox="0 0 1200 1200" xmlns="http://www.w3.org/2000/svg">
 <g>
  <path d="m1200 600c0 214.36-114.36 412.44-300 519.62-185.64 107.18-414.36 107.18-600 0-185.64-107.18-300-305.26-300-519.62s114.36-412.44 300-519.62c185.64-107.18 414.36-107.18 600 0 185.64 107.18 300 305.26 300 519.62" fill="#eb6863"/>
  <path d="m873.59 377.07c17.594 0 32-14.406 32-32v-19.367c0-17.594-14.406-31.883-32-31.883l-547.18 0.003906c-17.594 0-32 14.289-32 31.883v19.363c0 17.594 14.406 32 32 32h1.418v284.93l-1.418-0.003906c-17.594 0-32 14.289-32 31.883v19.719c0 17.711 14.406 32 32 32h95.645l-14.289 139.45c-1.6523 9.0938 3.543 17.711 12.398 20.43 1.7695 0.47266 3.6602 0.70703 5.4336 0.70703 6.8477 0 13.227-4.0156 16.176-10.746l65.77-149.84h50.895l21.844 75.453c1.3008 6.2578 5.3125 25.031 19.719 25.031s18.422-18.773 19.484-24.207l22.082-76.281h50.895l65.77 149.84c2.9531 6.7305 9.3281 10.746 16.176 10.746 1.7695 0 3.6602-0.23438 5.4336-0.70703 8.8555-2.7148 14.051-11.336 12.516-19.484l-14.406-140.4h95.645c17.594 0 32-14.289 32-32v-19.719c0-17.594-14.406-31.883-32-31.883h-1.418v-284.92zm0 308.54c4.6055 0 8.3828 3.6602 8.3828 8.2656v19.719c0 4.6055-3.7773 8.3828-8.3828 8.3828l-547.18 0.003907c-4.6055 0-8.3828-3.7773-8.3828-8.3828v-19.719c0-4.6055 3.7773-8.2656 8.3828-8.2656h13.227 0.11719 520.5 0.11719zm-314.45-162.71c3.1875 0 5.9023 2.5977 5.9023 5.9023 0 49.004-39.91 88.914-89.031 88.914-49.004 0-88.914-39.91-88.914-88.914 0-49.121 39.91-89.031 88.914-89.031 3.3047 0 5.9023 2.7148 5.9023 5.9023v77.223zm-46.758-36.367v-83.012c0-3.3047 2.5977-5.9023 5.9023-5.9023 49.004 0 88.914 39.91 88.914 88.914 0 3.3047-2.5977 5.9023-5.9023 5.9023h-83.012c-3.3047 0-5.9023-2.5977-5.9023-5.9023zm136.62-24.207h126.7c6.4961 0 11.809 5.3125 11.809 11.809 0 6.6133-5.3125 11.809-11.809 11.809h-126.7c-6.4961 0-11.809-5.1953-11.809-11.809 0-6.4961 5.3164-11.809 11.809-11.809zm-11.809-35.188c0-6.6133 5.3125-11.809 11.809-11.809h165.31c6.6133 0 11.809 5.1953 11.809 11.809 0 6.4961-5.1953 11.809-11.809 11.809h-165.31c-6.4922 0-11.809-5.3164-11.809-11.809zm11.809 82.301h167.2c6.4961 0 11.809 5.3125 11.809 11.809 0 6.4961-5.3125 11.809-11.809 11.809h-167.2c-6.4961 0-11.809-5.3125-11.809-11.809 0-6.4961 5.3164-11.809 11.809-11.809zm0 47.113h165.31c6.6133 0 11.809 5.3125 11.809 11.809 0 6.4961-5.1953 11.809-11.809 11.809h-165.31c-6.4961 0-11.809-5.3125-11.809-11.809 0-6.4922 5.3164-11.809 11.809-11.809zm0 46.996h126.7c6.4961 0 11.809 5.3125 11.809 11.809 0 6.6133-5.3125 11.809-11.809 11.809h-126.7c-6.4961 0-11.809-5.1953-11.809-11.809 0-6.4922 5.3164-11.809 11.809-11.809zm-322.59-250.09c-4.6055 0-8.3828-3.7773-8.3828-8.3828v-19.367c0-4.6055 3.7773-8.2656 8.3828-8.2656h547.18c4.6055 0 8.3828 3.6602 8.3828 8.2656v19.363c0 4.6055-3.7773 8.3828-8.3828 8.3828z" fill="#fff"/>
 </g>
</svg>
