<?xml version="1.0" encoding="UTF-8"?>
<svg width="1200pt" height="1200pt" version="1.1" viewBox="0 0 1200 1200" xmlns="http://www.w3.org/2000/svg">
 <g>
  <path d="m1200 600c0 214.36-114.36 412.44-300 519.62-185.64 107.18-414.36 107.18-600 0-185.64-107.18-300-305.26-300-519.62s114.36-412.44 300-519.62c185.64-107.18 414.36-107.18 600 0 185.64 107.18 300 305.26 300 519.62" fill="#eb6863"/>
  <path d="m800.04 660.46c4.3633-0.12109 8.2227-2.8555 9.7852-6.9297 1.5625-4.0742 0.52344-8.6875-2.6367-11.695-3.1602-3.0117-7.8203-3.8242-11.812-2.0625-3.9922 1.7578-6.5352 5.7461-6.4453 10.109 0.16406 5.9805 5.1289 10.707 11.109 10.578z" fill="#fff"/>
  <path d="m835.94 576.57h0.52734c0.72656 0.078125 1.4648 0.078125 2.1914 0 5.8242 0.078125 10.707-4.3906 11.148-10.199 0.4375-5.8086-3.7148-10.961-9.4844-11.762-5.7734-0.80078-11.172 3.0234-12.332 8.7305-1.1602 5.7109 2.3203 11.34 7.9492 12.852z" fill="#fff"/>
  <path d="m728.47 577.33 1.0586 0.60547v-0.003906c1.582 0.91797 3.3867 1.3867 5.2148 1.3633 4.3711 0 8.3125-2.6328 9.9844-6.6719s0.74609-8.6875-2.3438-11.777c-3.0898-3.0898-7.7383-4.0156-11.777-2.3438s-6.6719 5.6133-6.6719 9.9844c0.023438 3.5 1.707 6.7812 4.5352 8.8438z" fill="#fff"/>
  <path d="m677.69 646.55c-0.058594 4.4219 2.5625 8.4414 6.6328 10.168 4.0703 1.7266 8.7812 0.82031 11.918-2.2969 3.1367-3.1133 4.0781-7.8203 2.3789-11.902-1.6992-4.082-5.6992-6.7305-10.121-6.6992-5.9219 0.039062-10.727 4.8086-10.809 10.73z" fill="#fff"/>
  <path d="m938.79 340.41c5.0234-1.5898 9.4102-4.7422 12.523-8.9961 3.1094-4.2539 4.7852-9.3867 4.7812-14.656v-9.8242c0-6.5977-2.6172-12.918-7.2812-17.582-4.6641-4.6641-10.988-7.2812-17.582-7.2812h-662.46c-6.5938 0-12.918 2.6172-17.582 7.2812-4.6641 4.6641-7.2812 10.984-7.2812 17.582v9.8242c-0.003906 5.2695 1.668 10.402 4.7812 14.656 3.1133 4.2539 7.5 7.4062 12.523 8.9961 2.4375 0.80078 4.9883 1.207 7.5586 1.207v435.67c-2.5703 0-5.1211 0.40625-7.5586 1.207-5.0195 1.6016-9.3984 4.7578-12.508 9.0078s-4.7891 9.3789-4.7969 14.648v9.8984c0 6.5938 2.6172 12.918 7.2812 17.582 4.6641 4.6602 10.988 7.2812 17.582 7.2812h324.5c-0.78906 1.2148-1.207 2.6328-1.2109 4.082v19.574-0.003907c-5.543 2.2461-10.262 6.1367-13.52 11.152s-4.8984 10.91-4.6914 16.887c-0.43359 7.3594 2.0781 14.586 6.9844 20.09 4.9062 5.5 11.801 8.8242 19.16 9.2305 7.2812-0.52344 14.059-3.8945 18.871-9.3828 4.8086-5.4883 7.2617-12.652 6.8242-19.938 0.21094-5.9688-1.4141-11.855-4.6602-16.871-3.2422-5.0117-7.9453-8.9102-13.477-11.168v-19.57c-0.003906-1.4492-0.42188-2.8672-1.207-4.082h324.96c6.5938 0 12.918-2.6211 17.578-7.2812 4.6641-4.6641 7.2812-10.988 7.2812-17.582v-9.8984c-0.003907-5.2695-1.6836-10.398-4.7969-14.648-3.1094-4.25-7.4883-7.4062-12.508-9.0078-2.4375-0.80078-4.9883-1.207-7.5547-1.207v-435.67c2.5391-0.007813 5.0664-0.41406 7.4805-1.207zm-328.59 548.2c0 7.5586-4.8359 14.207-10.578 14.207s-10.656-6.5-10.656-14.207 4.8359-14.207 10.656-14.207c5.8164 0 10.578 6.5 10.578 14.207zm330.78-86.453v9.8984c0 5.3828-4.3633 9.75-9.75 9.75h-662.46c-5.3867 0-9.75-4.3672-9.75-9.75v-9.8984c0-5.3867 4.3633-9.75 9.75-9.75h662.46c2.5859 0 5.0664 1.0273 6.8945 2.8555s2.8555 4.3086 2.8555 6.8945zm-577.44-93.859v-181.98c0-4.1758 3.3828-7.5586 7.5586-7.5586h37.785c2.0039 0 3.9258 0.79688 5.3438 2.2148 1.4141 1.418 2.2109 3.3398 2.2109 5.3438v181.98h15.113l0.003907-111.47c0-4.1758 3.3828-7.5586 7.5547-7.5586h37.785c2.0039 0 3.9297 0.79688 5.3438 2.2148 1.418 1.418 2.2148 3.3398 2.2148 5.3438v111.47h15.113v-146.08c0-4.1719 3.3828-7.5547 7.5586-7.5547h37.785c2.0039 0 3.9258 0.79297 5.3438 2.2109 1.418 1.418 2.2148 3.3398 2.2148 5.3438v146.08h7.5586-0.003906c4.1758 0 7.5586 3.3828 7.5586 7.5547 0 4.1758-3.3828 7.5586-7.5586 7.5586h-228c-4.1719 0-7.5547-3.3828-7.5547-7.5586v-229.21c0-4.1719 3.3828-7.5586 7.5547-7.5586 4.1758 0 7.5586 3.3867 7.5586 7.5586v221.65zm345.29-139.51c0.015625-8.0117 3.7383-15.566 10.086-20.465 6.3438-4.8945 14.594-6.582 22.352-4.5664 7.7578 2.0117 14.145 7.5039 17.305 14.867s2.7344 15.777-1.1484 22.785l34.762 43.832c2.4375-0.81641 4.9883-1.25 7.5586-1.2852 2.1406 0.007813 4.2734 0.28516 6.3477 0.83203l17.836-37.105h-0.003906c-6.793-4.8047-10.863-12.582-10.945-20.902-0.082031-8.3203 3.8359-16.176 10.531-21.117 6.6953-4.9414 15.355-6.3633 23.285-3.8281 7.9258 2.5352 14.152 8.7188 16.738 16.629 2.5898 7.9102 1.2227 16.578-3.6758 23.309-4.8945 6.7266-12.723 10.699-21.043 10.672l-19.648 40.277c4.3203 4.6641 6.6992 10.801 6.6484 17.156 0 9.2617-4.9414 17.816-12.961 22.449-8.0195 4.6289-17.898 4.6289-25.922 0-8.0195-4.6328-12.957-13.188-12.957-22.449-0.046875-5.8398 1.9609-11.508 5.668-16.02l-33.402-41.941-0.003906-0.003907c-3.5938 1.8633-7.5859 2.8242-11.637 2.7969-2.2188 0-4.4258-0.28125-6.5742-0.83203l-22.219 33.555c5.457 4.8555 8.5664 11.816 8.5391 19.121 0.042968 6.9023-2.6641 13.539-7.5234 18.441-4.8594 4.9062-11.469 7.6797-18.371 7.707-6.9023 0.023437-13.535-2.6953-18.43-7.5625s-7.6523-11.48-7.668-18.387c-0.011718-6.9023 2.7188-13.527 7.5977-18.414 4.875-4.8867 11.496-7.6328 18.398-7.6328 1.207-0.11328 2.4219-0.11328 3.6289 0l23.199-35.141c-4.0859-4.6328-6.3438-10.598-6.3477-16.777zm-68.844 154.62c-4.1758 0-7.5586-3.3828-7.5586-7.5586v-229.21c0-4.1719 3.3828-7.5586 7.5586-7.5586 4.1719 0 7.5547 3.3867 7.5547 7.5586v221.65h220.44c4.1758 0 7.5586 3.3828 7.5586 7.5547 0 4.1758-3.3828 7.5586-7.5586 7.5586zm225.8 12.621c0 2.0039-0.79688 3.9258-2.2109 5.3438-1.418 1.418-3.3398 2.2109-5.3438 2.2109h-19.574c-4.1719 0-7.5586-3.3828-7.5586-7.5547 0-4.1758 3.3867-7.5586 7.5586-7.5586h19.574c2.0039 0 3.9258 0.79688 5.3438 2.2148 1.4141 1.418 2.2109 3.3398 2.2109 5.3438zm-39.07 0c0 2.0039-0.79688 3.9258-2.2109 5.3438-1.418 1.418-3.3398 2.2109-5.3438 2.2109h-29.246c-4.1758 0-7.5586-3.3828-7.5586-7.5547 0-4.1758 3.3828-7.5586 7.5586-7.5586h29.246c2.0039 0 3.9258 0.79688 5.3438 2.2148 1.4141 1.418 2.2109 3.3398 2.2109 5.3438zm-65.672 0c0 2.0039-0.79297 3.9258-2.2109 5.3438s-3.3398 2.2109-5.3438 2.2109h-26.68c-4.1719 0-7.5547-3.3828-7.5547-7.5547 0-4.1758 3.3828-7.5586 7.5547-7.5586h26.301c2.0039 0 3.9258 0.79688 5.3438 2.2148s2.2148 3.3398 2.2148 5.3438zm-53.277 0c0 2.0039-0.79688 3.9258-2.2109 5.3438-1.418 1.418-3.3398 2.2109-5.3438 2.2109h-22.672c-4.1758 0-7.5586-3.3828-7.5586-7.5547 0-4.1758 3.3828-7.5586 7.5586-7.5586h22.672c4.0234 0.20312 7.1836 3.5273 7.1797 7.5586zm-19.875-339.16-17.23 7.1797v31.363l5.3672 8.8438v-0.003906c2.168 3.5312 1.0898 8.1484-2.418 10.352-1.2031 0.74609-2.5898 1.1406-4.0078 1.1328-0.57422 0.074219-1.1602 0.074219-1.7383 0-0.88672 0.5625-1.8984 0.89844-2.9453 0.98438h-0.75781c-1.2188 0.015625-2.418-0.30078-3.4766-0.90625-0.91406 0.45312-1.9219 0.6875-2.9453 0.67969-1.125-0.007813-2.2344-0.26563-3.25-0.75781-3.7461-1.8008-5.3359-6.293-3.5508-10.051l4.6094-9.5234v-25.766l-14.434 6.0469-1.0586 32.418c-0.066407 3.5234-2.0742 6.7188-5.2148 8.3125-10.535 5.2422-22.094 8.1094-33.855 8.3867h-1.5859c-12.281-0.015625-24.391-2.8867-35.367-8.3867-3.1133-1.6133-5.0898-4.8086-5.1406-8.3125v-31.816l-46.703-18.895c-3.6172-1.5-5.9297-5.0781-5.8203-8.9922-0.14453-3.8984 2.1445-7.4844 5.7461-8.9922l84.641-35.441c2.1562-0.87109 4.5664-0.87109 6.7227 0l84.336 34.16 0.003906-0.003906c3.5 1.6445 5.7383 5.1641 5.7383 9.0312 0 3.8672-2.2383 7.3867-5.7383 9.0312zm-149.55 342.94c0 2.0039-0.79688 3.9258-2.2148 5.3438-1.418 1.418-3.3398 2.2148-5.3438 2.2148h-19.27c-4.1758 0-7.5586-3.3828-7.5586-7.5586 0-4.1719 3.3828-7.5586 7.5586-7.5586h19.27c2.0039 0 3.9258 0.79688 5.3438 2.2148 1.418 1.418 2.2148 3.3398 2.2148 5.3438zm-53.883 0c0 2.0039-0.79688 3.9258-2.2148 5.3438-1.4141 1.418-3.3398 2.2148-5.3438 2.2148h-37.785c-4.1719 0-7.5547-3.3828-7.5547-7.5586 0-4.1719 3.3828-7.5586 7.5547-7.5586h37.785c2.0039 0 3.9297 0.79688 5.3438 2.2148 1.418 1.418 2.2148 3.3398 2.2148 5.3438zm-72.094 0c0 2.0039-0.79688 3.9258-2.2148 5.3438-1.418 1.418-3.3398 2.2148-5.3438 2.2148h-33.703c-4.1758 0-7.5586-3.3828-7.5586-7.5586 0-4.1719 3.3828-7.5586 7.5586-7.5586h33.703c2.0039 0 3.9258 0.79688 5.3438 2.2148 1.418 1.418 2.2148 3.3398 2.2148 5.3438zm518.87-413.3h-662.46c-2.5938 0.019532-5.0859-1-6.918-2.832s-2.8516-4.3242-2.832-6.9141v-9.8242c-0.019532-2.5938 1-5.0859 2.832-6.918s4.3242-2.8516 6.918-2.832h662.46c2.5938-0.019531 5.082 1 6.918 2.832 1.832 1.832 2.8516 4.3242 2.832 6.918v9.8242c0.019531 2.5898-1 5.082-2.832 6.9141-1.8359 1.832-4.3242 2.8516-6.918 2.832z" fill="#fff"/>
  <path d="m529.95 389.08 37.332 15.113c0.57812-0.097656 1.1641-0.097656 1.7383 0l31.363 12.695 27.734-11.637c0.51562-0.44922 1.1016-0.80859 1.7383-1.0586l11.789-4.9141-43-10.879c-1.9453-0.5-3.6133-1.75-4.6328-3.4805-1.0234-1.7305-1.3125-3.7969-0.80859-5.7383 0.5-1.9492 1.75-3.6172 3.4805-4.6367 1.7305-1.0195 3.7969-1.3125 5.7422-0.80469l62.348 16.324 5.2891-2.1914-70.059-28.191z" fill="#fff"/>
 </g>
</svg>
