<?xml version="1.0" encoding="UTF-8"?>
<svg width="1200pt" height="1200pt" version="1.1" viewBox="0 0 1200 1200" xmlns="http://www.w3.org/2000/svg">
 <g>
  <path d="m1200 600c0 214.36-114.36 412.44-300 519.62-185.64 107.18-414.36 107.18-600 0-185.64-107.18-300-305.26-300-519.62s114.36-412.44 300-519.62c185.64-107.18 414.36-107.18 600 0 185.64 107.18 300 305.26 300 519.62" fill="#eb6863"/>
  <path d="m454.28 781.37-0.88672 65.762c-0.125 11.793 5.8047 22.824 15.715 29.215 23.902 15.492 66.398 43.16 68.832 43.602 3.543 24.566 30.102 43.379 62.191 44.266 32.535-0.88281 58.652-19.695 61.973-44.266 3.0977-0.44141 45.371-28.105 69.055-43.602h-0.003906c10-6.2812 15.902-17.41 15.492-29.215l-0.66406-65.762z" fill="#fff"/>
  <path d="m776.92 309.99c-46.691-47.031-110.08-73.699-176.35-74.195h-0.62109c-66.711 0.69141-130.46 27.633-177.45 74.988-46.992 47.359-73.438 111.32-73.609 178.04 0 49.117 15.273 95.141 46.539 140.55 24.289 34.684 43.793 72.48 57.992 112.37 0.35938 0.27344 0.58594 0.6875 0.62109 1.1367h292.13c0.20703-0.20703 0.20703-0.92969 0.51562-1.1367 14.359-39.859 33.926-77.645 58.199-112.37 31.371-45.402 46.23-91.426 46.23-140.55 0.078124-33.234-6.4414-66.152-19.176-96.852-12.738-30.695-31.438-58.559-55.02-81.977zm-176.87 313.39c-40.953-48.297-85.82-93.133-134.15-134.05 18.473-15.168 36.426-30.855 53.66-47.363h-0.003906c-4.6797-2.9883-9.9648-4.8906-15.477-5.5742-9.7891-1.1562-18.746-6.0781-24.973-13.723-7.7227-9.3672-10.586-21.828-7.7148-33.625 2.8672-11.797 11.125-21.555 22.285-26.332 11.164-4.7773 23.926-4.0156 34.438 2.0586 10.516 6.0703 17.555 16.742 18.996 28.797 0.46484 3.8281 1.5469 7.5586 3.1992 11.043 0.64844 1.4844 1.4453 2.9023 2.3711 4.2305 16.406-17.234 32.195-35.086 47.363-53.555 14.961 18.574 30.578 36.461 46.848 53.66l0.003906-0.003907c-4.4375 2.6992-9.3945 4.4219-14.551 5.0586-9.5781 1.2148-18.348 5.9844-24.57 13.367-6.2227 7.3789-9.4414 16.832-9.0195 26.477 0.42188 9.6445 4.4531 18.777 11.297 25.586 6.8438 6.8125 15.996 10.801 25.641 11.176 9.6484 0.375 19.082-2.8906 26.434-9.1484 7.3516-6.2578 12.078-15.051 13.25-24.633 0.46094-3.8203 1.5039-7.543 3.0938-11.043 0.51563-1.1367 1.2383-2.2695 1.8555-3.4062 17.234 16.406 35.188 31.988 53.762 46.953h0.003906c-51.137 37.723-96.324 82.906-134.04 134.05z" fill="#fff"/>
 </g>
</svg>
