<?xml version="1.0" encoding="UTF-8"?>
<svg width="1200pt" height="1200pt" version="1.1" viewBox="0 0 1200 1200" xmlns="http://www.w3.org/2000/svg">
 <g>
  <path d="m1200 600c0 214.36-114.36 412.44-300 519.62-185.64 107.18-414.36 107.18-600 0-185.64-107.18-300-305.26-300-519.62s114.36-412.44 300-519.62c185.64-107.18 414.36-107.18 600 0 185.64 107.18 300 305.26 300 519.62" fill="#eb6863"/>
  <path d="m716.74 563.76h-35.098c-0.83984 0.007813-1.5234 0.68359-1.543 1.5273v73.145h-0.066406v9.957h151.07v-168.34c-0.007813-0.83984-0.6875-1.5156-1.5234-1.5273h-35.098c-0.84375 0.007813-1.5273 0.68359-1.543 1.5273v141.79h-18.254v-89.742c-0.011719-0.83594-0.6875-1.5156-1.5273-1.5273h-35.098c-0.84375 0.011719-1.5273 0.6875-1.543 1.5273v89.742h-18.254v-56.551c-0.007813-0.83984-0.6875-1.5195-1.5273-1.5273z" fill="#fff"/>
  <path d="m379.08 535.32c-4.7539 6.0508-12.109 9.4766-19.801 9.2188-7.6914 0.25781-15.047-3.168-19.801-9.2188-1.582-2.2578-4.6953-2.8047-6.9531-1.2266-2.2539 1.582-2.8047 4.6953-1.2227 6.9531 6.6328 8.707 17.031 13.715 27.977 13.473 10.941 0.24219 21.34-4.7656 27.973-13.473 0.76953-1.082 1.0742-2.4297 0.84766-3.7383-0.22656-1.3086-0.96484-2.4727-2.0508-3.2344-1.0898-0.76562-2.4375-1.0625-3.7422-0.82812-1.3086 0.23437-2.4688 0.98047-3.2266 2.0742z" fill="#fff"/>
  <path d="m308.36 511.59h28.91v-16.207c-2.125-1.1055-4.168-2.3633-6.1172-3.7578-2.5703-2.2422-4.8828-4.7656-6.8906-7.5195-5.6328-7.5469-8.6719-16.711-8.6523-26.129v-18.719c5.3398 1.0391 10.766 1.5586 16.203 1.5469 19.215 0 35.836-6.25 43.836-15.332l0.003906 0.003907c3.1914 3.4648 7.0156 6.293 11.266 8.3281 5.0781 2.5 10.469 4.3086 16.027 5.3867v18.785c-0.007812 12.918-5.7109 25.176-15.59 33.5-0.34766 0.30078-0.71875 0.57812-1.1094 0.82031l-4.7148 3.0742v16.219h28.688c0.42578 0 0.83984-0.023438 1.2812-0.054688h18.023l-0.003907-78.641c0-18.629-7.3984-36.496-20.574-49.672-13.172-13.172-31.039-20.57-49.668-20.574-18.629 0.003906-36.496 7.4023-49.672 20.574-13.172 13.176-20.574 31.043-20.574 49.672v78.641h18.023c0.44141 0.03125 0.87891 0.054688 1.3047 0.054688z" fill="#fff"/>
  <path d="m634.29 584.17c-2.4688-3.5195-6.0898-6.0664-10.234-7.1992-4.1484-1.1367-8.5625-0.78516-12.477 0.99219-28.691 12.879-88.387 36.867-88.387 36.867l-75.781-70.551-36.281-12.992-51.863 51.863-51.289-51.289c-11.613 5.1172-23.227 10.195-34.844 15.238-6.1719 2.0938-11.738 5.668-16.215 10.406-4.918 5.7812-8.0352 12.879-8.9688 20.41l-8.3945 64.34-5.6328 43.121 2.1836 70.668 2.1289 66.641c0.11719 2.9844 1.1133 5.8711 2.8633 8.293 1.7461 2.4258 4.1719 4.2773 6.9688 5.332 1.4219 0.53516 2.9102 0.86328 4.4258 0.98047 0.38281 0.046875 0.76562 0.066406 1.1484 0.054687 1.8359 0.015625 3.6523-0.33984 5.3477-1.0352 1.1445-0.38281 2.2266-0.92578 3.2227-1.6094 3.7422-2.5547 6.1641-6.6406 6.6094-11.152 0-0.28906 0.058593-0.57422 0.058593-0.86328l2.5859-66.641 2.4727-64.457 7.7031-37.027c0.46094 3.9102 1.0938 7.8789 1.7812 11.785 0.80469 4.4844 1.7266 8.9688 2.6445 13.453l0.003907 0.003907c3.4648 13.59 4.8047 27.633 3.9688 41.629-1.3359 9.6719-4.3086 19.043-8.7969 27.715h-0.058594l-0.28906 6.8984h0.058593l-2.5859 66.871c-0.011719 0.55469-0.050782 1.1133-0.11719 1.668-0.41016 4.1484-1.875 8.1289-4.2539 11.555v0.17188h204.52s-33.004-69.172-41.801-88.488c-4.2305-8.2617-7.0117-17.188-8.2227-26.391-2.0117-18.629 3.3945-36.914 6.6133-55.082 1.5391-8.4258 2.5938-16.93 3.1641-25.473 0.23047-3.1641 0.69141-23.172 0.69141-23.172l77.219 47.262-0.003906 0.003906c3.0352 1.8867 6.8477 2.0195 10.008 0.34375l101.67-54.234c4.6562-2.5 8.0234-6.8711 9.2539-12.012 1.2305-5.1406 0.20703-10.562-2.8164-14.898z" fill="#fff"/>
  <path d="m951.45 448.24c7.3672 0.32812 13.719-5.1328 14.492-12.465h0.13281v-16.996h-421.02v15.68l0.050781 1.3164h0.13281c0.8125 7.293 7.1055 12.723 14.438 12.465h5.4023v132.38c8.5898-3.5586 17.312-7.2188 25.164-10.594v-121.79h330.66v230.43h-330.66v-29.617l-25.164 13.438v16.18h-5.4023c-7.3594-0.33203-13.703 5.1328-14.465 12.461h-0.15625v16.996l14.254-0.027344 0.21094 0.050782 163.42 0.003906c0.67578 5.7148 5.5234 10.016 11.277 10.012h42.738c5.7461-0.003906 10.578-4.3047 11.254-10.012l177.86-0.027344-0.003906-16.996h-0.13281c-0.77344-7.332-7.125-12.793-14.492-12.461h-5.375v-230.43z" fill="#fff"/>
 </g>
</svg>
