<svg xmlns="http://www.w3.org/2000/svg" xmlns:xlink="http://www.w3.org/1999/xlink" width="1080" zoomAndPan="magnify" viewBox="0 0 810 809.999993" height="1080" preserveAspectRatio="xMidYMid meet" version="1.0"><path fill="#000000" d="M 30.292969 403.5 L 39.292969 403.5 L 39.292969 406.5 L 30.292969 406.5 M 42.292969 403.5 L 51.292969 403.5 L 51.292969 406.5 L 42.292969 406.5 M 54.292969 403.5 L 63.292969 403.5 L 63.292969 406.5 L 54.292969 406.5 M 66.292969 403.5 L 75.292969 403.5 L 75.292969 406.5 L 66.292969 406.5 M 78.292969 403.5 L 87.292969 403.5 L 87.292969 406.5 L 78.292969 406.5 M 90.292969 403.5 L 99.292969 403.5 L 99.292969 406.5 L 90.292969 406.5 M 102.292969 403.5 L 111.292969 403.5 L 111.292969 406.5 L 102.292969 406.5 M 114.292969 403.5 L 123.292969 403.5 L 123.292969 406.5 L 114.292969 406.5 M 126.292969 403.5 L 135.292969 403.5 L 135.292969 406.5 L 126.292969 406.5 M 138.292969 403.5 L 147.292969 403.5 L 147.292969 406.5 L 138.292969 406.5 M 150.292969 403.5 L 159.292969 403.5 L 159.292969 406.5 L 150.292969 406.5 M 162.292969 403.5 L 171.292969 403.5 L 171.292969 406.5 L 162.292969 406.5 M 174.292969 403.5 L 183.292969 403.5 L 183.292969 406.5 L 174.292969 406.5 M 186.292969 403.5 L 195.292969 403.5 L 195.292969 406.5 L 186.292969 406.5 M 198.292969 403.5 L 207.292969 403.5 L 207.292969 406.5 L 198.292969 406.5 M 210.292969 403.5 L 219.292969 403.5 L 219.292969 406.5 L 210.292969 406.5 M 222.292969 403.5 L 231.292969 403.5 L 231.292969 406.5 L 222.292969 406.5 M 234.292969 403.5 L 243.292969 403.5 L 243.292969 406.5 L 234.292969 406.5 M 246.292969 403.5 L 255.292969 403.5 L 255.292969 406.5 L 246.292969 406.5 M 258.292969 403.5 L 267.292969 403.5 L 267.292969 406.5 L 258.292969 406.5 M 270.292969 403.5 L 279.292969 403.5 L 279.292969 406.5 L 270.292969 406.5 M 282.292969 403.5 L 291.292969 403.5 L 291.292969 406.5 L 282.292969 406.5 M 294.292969 403.5 L 303.292969 403.5 L 303.292969 406.5 L 294.292969 406.5 M 306.292969 403.5 L 315.292969 403.5 L 315.292969 406.5 L 306.292969 406.5 M 318.292969 403.5 L 327.292969 403.5 L 327.292969 406.5 L 318.292969 406.5 M 330.292969 403.5 L 339.292969 403.5 L 339.292969 406.5 L 330.292969 406.5 M 342.292969 403.5 L 351.292969 403.5 L 351.292969 406.5 L 342.292969 406.5 M 354.292969 403.5 L 363.292969 403.5 L 363.292969 406.5 L 354.292969 406.5 M 366.292969 403.5 L 375.292969 403.5 L 375.292969 406.5 L 366.292969 406.5 M 378.292969 403.5 L 387.292969 403.5 L 387.292969 406.5 L 378.292969 406.5 M 390.292969 403.5 L 399.292969 403.5 L 399.292969 406.5 L 390.292969 406.5 M 402.292969 403.5 L 411.292969 403.5 L 411.292969 406.5 L 402.292969 406.5 M 414.292969 403.5 L 423.292969 403.5 L 423.292969 406.5 L 414.292969 406.5 M 426.292969 403.5 L 435.292969 403.5 L 435.292969 406.5 L 426.292969 406.5 M 438.292969 403.5 L 447.292969 403.5 L 447.292969 406.5 L 438.292969 406.5 M 450.292969 403.5 L 459.292969 403.5 L 459.292969 406.5 L 450.292969 406.5 M 462.292969 403.5 L 471.292969 403.5 L 471.292969 406.5 L 462.292969 406.5 M 474.292969 403.5 L 483.292969 403.5 L 483.292969 406.5 L 474.292969 406.5 M 486.292969 403.5 L 495.292969 403.5 L 495.292969 406.5 L 486.292969 406.5 M 498.292969 403.5 L 507.292969 403.5 L 507.292969 406.5 L 498.292969 406.5 M 510.292969 403.5 L 519.292969 403.5 L 519.292969 406.5 L 510.292969 406.5 M 522.292969 403.5 L 531.292969 403.5 L 531.292969 406.5 L 522.292969 406.5 M 534.292969 403.5 L 543.292969 403.5 L 543.292969 406.5 L 534.292969 406.5 M 546.292969 403.5 L 555.292969 403.5 L 555.292969 406.5 L 546.292969 406.5 M 558.292969 403.5 L 567.292969 403.5 L 567.292969 406.5 L 558.292969 406.5 M 570.292969 403.5 L 579.292969 403.5 L 579.292969 406.5 L 570.292969 406.5 M 582.292969 403.5 L 591.292969 403.5 L 591.292969 406.5 L 582.292969 406.5 M 594.292969 403.5 L 603.292969 403.5 L 603.292969 406.5 L 594.292969 406.5 M 606.292969 403.5 L 615.292969 403.5 L 615.292969 406.5 L 606.292969 406.5 M 618.292969 403.5 L 627.292969 403.5 L 627.292969 406.5 L 618.292969 406.5 M 630.292969 403.5 L 639.292969 403.5 L 639.292969 406.5 L 630.292969 406.5 M 642.292969 403.5 L 651.292969 403.5 L 651.292969 406.5 L 642.292969 406.5 M 654.292969 403.5 L 663.292969 403.5 L 663.292969 406.5 L 654.292969 406.5 M 666.292969 403.5 L 675.292969 403.5 L 675.292969 406.5 L 666.292969 406.5 M 678.292969 403.5 L 687.292969 403.5 L 687.292969 406.5 L 678.292969 406.5 M 690.292969 403.5 L 699.292969 403.5 L 699.292969 406.5 L 690.292969 406.5 M 702.292969 403.5 L 711.292969 403.5 L 711.292969 406.5 L 702.292969 406.5 M 714.292969 403.5 L 723.292969 403.5 L 723.292969 406.5 L 714.292969 406.5 M 726.292969 403.5 L 735.292969 403.5 L 735.292969 406.5 L 726.292969 406.5 M 738.292969 403.5 L 747.292969 403.5 L 747.292969 406.5 L 738.292969 406.5 M 750.292969 403.5 L 759.292969 403.5 L 759.292969 406.5 L 750.292969 406.5 M 762.292969 403.5 L 771.292969 403.5 L 771.292969 406.5 L 762.292969 406.5 M 774.292969 403.5 L 778.472656 403.5 L 778.472656 406.5 L 774.292969 406.5 " fill-opacity="1" fill-rule="nonzero"/></svg>