<svg xmlns="http://www.w3.org/2000/svg" xmlns:xlink="http://www.w3.org/1999/xlink" width="1056" zoomAndPan="magnify" viewBox="0 0 792 611.999999" height="816" preserveAspectRatio="xMidYMid meet" version="1.0"><defs><clipPath id="a8276293b3"><path d="M 92.691406 0 L 695 0 L 695 346 L 92.691406 346 Z M 92.691406 0 " clip-rule="nonzero"/></clipPath><clipPath id="6cccab7b8e"><path d="M 96 148 L 699.414062 148 L 699.414062 611.480469 L 96 611.480469 Z M 96 148 " clip-rule="nonzero"/></clipPath></defs><g clip-path="url(#a8276293b3)"><path fill="#ffffff" d="M 694.03125 148.132812 L 96.621094 345.667969 L 92.691406 151.625 L 690.101562 -45.910156 L 694.03125 148.132812 " fill-opacity="1" fill-rule="nonzero"/></g><g clip-path="url(#6cccab7b8e)"><path fill="#97050c" d="M 699.414062 413.945312 L 102.007812 611.480469 L 96.621094 345.667969 L 694.03125 148.132812 L 699.414062 413.945312 " fill-opacity="1" fill-rule="nonzero"/></g><path fill="#00003d" d="M 179.351562 226.371094 L 180.007812 258.785156 C 183.609375 257.449219 185.894531 256.019531 186.859375 254.5 C 187.832031 252.980469 188.269531 249.882812 188.175781 245.203125 L 187.953125 234.398438 C 187.855469 229.441406 187.347656 226.582031 186.433594 225.828125 C 185.523438 225.074219 183.164062 225.253906 179.351562 226.371094 Z M 178.460938 182.578125 L 178.984375 208.339844 C 180.082031 207.929688 180.929688 207.625 181.535156 207.425781 C 184.046875 206.59375 185.632812 205.335938 186.289062 203.652344 C 186.953125 201.972656 187.210938 197.691406 187.070312 190.828125 C 187 187.199219 186.664062 184.753906 186.070312 183.488281 C 185.46875 182.21875 184.714844 181.546875 183.792969 181.464844 C 182.875 181.386719 181.097656 181.757812 178.460938 182.578125 Z M 152.476562 171.21875 L 178 162.78125 C 186.066406 160.113281 192.183594 158.835938 196.367188 158.9375 C 200.550781 159.046875 203.964844 160.925781 206.605469 164.585938 C 209.253906 168.25 210.675781 175.085938 210.875 185.09375 C 211.015625 191.863281 210.207031 196.882812 208.460938 200.148438 C 206.710938 203.414062 203.195312 206.632812 197.921875 209.824219 C 203.863281 209.4375 207.933594 210.726562 210.109375 213.679688 C 212.292969 216.640625 213.460938 221.886719 213.613281 229.425781 L 213.828125 240.167969 C 213.988281 247.992188 213.347656 254.042969 211.902344 258.316406 C 210.460938 262.589844 208.089844 265.96875 204.796875 268.449219 C 201.5 270.929688 194.710938 273.875 184.421875 277.277344 L 154.824219 287.066406 L 152.476562 171.21875 " fill-opacity="1" fill-rule="nonzero"/><path fill="#00003d" d="M 247.199219 159.851562 L 247.714844 185.613281 C 250.59375 184.65625 252.601562 183.527344 253.738281 182.21875 C 254.871094 180.902344 255.386719 177.699219 255.28125 172.59375 L 255.15625 166.226562 C 255.082031 162.554688 254.476562 160.324219 253.335938 159.550781 C 252.199219 158.773438 250.152344 158.875 247.199219 159.851562 Z M 221.210938 148.492188 L 239.316406 142.503906 C 251.390625 138.511719 259.578125 136.359375 263.875 136.042969 C 268.171875 135.730469 271.710938 137.378906 274.5 140.992188 C 277.277344 144.609375 278.773438 151.355469 278.972656 161.226562 C 279.160156 170.246094 278.328125 176.621094 276.488281 180.347656 C 274.644531 184.082031 270.933594 187.179688 265.355469 189.644531 C 270.453125 189.449219 273.894531 190.308594 275.6875 192.207031 C 277.480469 194.113281 278.609375 196.035156 279.078125 197.96875 C 279.542969 199.902344 279.871094 205.546875 280.0625 214.894531 L 280.679688 245.445312 L 256.921875 253.304688 L 256.140625 214.8125 C 256.011719 208.613281 255.519531 204.902344 254.660156 203.703125 C 253.796875 202.5 251.609375 202.480469 248.082031 203.644531 L 249.140625 255.878906 L 223.558594 264.335938 L 221.210938 148.492188 " fill-opacity="1" fill-rule="nonzero"/><path fill="#00003d" d="M 288.242188 126.328125 L 330.902344 112.222656 L 331.375 135.40625 L 314.292969 141.050781 L 314.742188 163.015625 L 330.722656 157.734375 L 331.167969 179.773438 L 315.183594 185.058594 L 315.703125 210.527344 L 334.480469 204.316406 L 334.949219 227.5 L 290.589844 242.175781 L 288.242188 126.328125 " fill-opacity="1" fill-rule="nonzero"/><path fill="#00003d" d="M 372.128906 173.574219 C 370.574219 160.878906 368.945312 145.089844 367.25 126.207031 C 365.09375 149.25 363.78125 166.011719 363.324219 176.488281 Z M 384.179688 94.605469 L 401.15625 205.613281 L 375.011719 214.257812 L 373.21875 193.886719 L 364.066406 196.914062 L 362.949219 218.246094 L 336.5 226.992188 L 347.199219 106.828125 L 384.179688 94.605469 " fill-opacity="1" fill-rule="nonzero"/><path fill="#00003d" d="M 464.144531 68.167969 L 450.527344 125.324219 L 467.882812 183.546875 L 441.449219 192.289062 L 430.082031 146.058594 L 431.089844 195.714844 L 405.507812 204.175781 L 403.15625 88.328125 L 428.742188 79.871094 L 429.65625 124.875 L 440.136719 76.101562 L 464.144531 68.167969 " fill-opacity="1" fill-rule="nonzero"/><path fill="#00003d" d="M 495.53125 57.785156 L 497.878906 173.632812 L 472.292969 182.089844 L 469.945312 66.246094 L 495.53125 57.785156 " fill-opacity="1" fill-rule="nonzero"/><path fill="#00003d" d="M 562.925781 35.503906 L 565.273438 151.347656 L 542.847656 158.761719 L 528.472656 110.496094 L 529.535156 163.160156 L 508.148438 170.230469 L 505.800781 54.386719 L 527.195312 47.316406 L 542.589844 94.734375 L 541.535156 42.574219 L 562.925781 35.503906 " fill-opacity="1" fill-rule="nonzero"/><path fill="#00003d" d="M 632.765625 55.335938 L 607.179688 63.800781 L 606.96875 53.28125 C 606.835938 46.652344 606.507812 42.578125 605.988281 41.070312 C 605.464844 39.566406 604.292969 39.105469 602.46875 39.714844 C 600.890625 40.230469 599.832031 41.304688 599.292969 42.921875 C 598.753906 44.542969 598.542969 48.3125 598.667969 54.222656 L 599.792969 109.824219 C 599.894531 115.019531 600.25 118.347656 600.851562 119.808594 C 601.453125 121.265625 602.601562 121.710938 604.300781 121.152344 C 606.167969 120.535156 607.414062 119.1875 608.046875 117.105469 C 608.679688 115.019531 608.9375 111.285156 608.828125 105.898438 L 608.550781 92.160156 L 603.382812 93.867188 L 603.027344 76.265625 L 632.984375 66.359375 L 634.25 128.539062 L 618.171875 133.855469 L 615.632812 126.335938 C 613.964844 130.488281 611.816406 133.898438 609.203125 136.566406 C 606.578125 139.238281 603.464844 141.164062 599.859375 142.359375 C 595.558594 143.78125 591.511719 143.878906 587.710938 142.667969 C 583.910156 141.449219 581 139.347656 578.984375 136.367188 C 576.960938 133.386719 575.671875 129.980469 575.101562 126.160156 C 574.535156 122.339844 574.171875 116.445312 574.011719 108.476562 L 573.3125 74.0625 C 573.085938 62.996094 573.429688 54.789062 574.34375 49.445312 C 575.253906 44.105469 578.070312 38.546875 582.785156 32.785156 C 587.5 27.027344 593.664062 22.886719 601.28125 20.367188 C 608.777344 17.890625 615.035156 17.648438 620.050781 19.636719 C 625.066406 21.628906 628.375 24.871094 629.976562 29.355469 C 631.574219 33.847656 632.472656 40.839844 632.664062 50.328125 L 632.765625 55.335938 " fill-opacity="1" fill-rule="nonzero"/><path fill="#faf5f3" d="M 251.527344 324.648438 L 255.695312 530.46875 L 215.851562 543.636719 L 190.3125 457.890625 L 192.207031 551.457031 L 154.207031 564.023438 L 150.035156 358.203125 L 188.042969 345.640625 L 215.394531 429.890625 L 213.519531 337.214844 L 251.527344 324.648438 " fill-opacity="1" fill-rule="nonzero"/><path fill="#faf5f3" d="M 269.773438 318.613281 L 345.566406 293.550781 L 346.40625 334.738281 L 316.0625 344.769531 L 316.851562 383.800781 L 345.25 374.410156 L 346.039062 413.5625 L 317.648438 422.953125 L 318.5625 468.210938 L 351.925781 457.183594 L 352.757812 498.367188 L 273.941406 524.433594 L 269.773438 318.613281 " fill-opacity="1" fill-rule="nonzero"/><path fill="#faf5f3" d="M 532.789062 231.644531 L 516.714844 444.152344 L 459.96875 462.921875 C 454.128906 433.019531 448.816406 398.558594 444.019531 359.539062 C 442.558594 377.433594 439.0625 414.808594 433.53125 471.660156 L 377.101562 490.320312 L 352.585938 291.234375 L 396.746094 276.625 L 403 346.855469 L 409.054688 414.742188 C 410.003906 378.261719 413.238281 329.796875 418.761719 269.347656 L 465.964844 253.742188 C 466.714844 259.554688 468.824219 281.632812 472.296875 319.988281 L 478.902344 396.636719 C 480.480469 345.960938 483.722656 295.835938 488.628906 246.246094 L 532.789062 231.644531 " fill-opacity="1" fill-rule="nonzero"/><path fill="#faf5f3" d="M 639.320312 259.128906 L 597.105469 273.085938 L 596.792969 257.835938 C 596.648438 250.710938 596.023438 246.359375 594.898438 244.761719 C 593.78125 243.171875 591.957031 242.796875 589.441406 243.628906 C 586.703125 244.53125 584.664062 246.53125 583.3125 249.628906 C 581.960938 252.71875 581.339844 256.933594 581.449219 262.277344 C 581.585938 269.148438 582.480469 274.058594 584.128906 277.015625 C 585.707031 279.996094 590.074219 282.773438 597.230469 285.351562 C 617.75 292.800781 630.730469 300.191406 636.171875 307.519531 C 641.605469 314.859375 644.527344 328.605469 644.941406 348.773438 C 645.238281 363.4375 644 374.726562 641.226562 382.636719 C 638.453125 390.550781 632.933594 398.238281 624.679688 405.703125 C 616.425781 413.167969 606.753906 418.734375 595.671875 422.398438 C 583.507812 426.417969 573.066406 427.144531 564.359375 424.566406 C 555.648438 421.988281 549.871094 416.9375 547.042969 409.429688 C 544.207031 401.917969 542.636719 390.453125 542.320312 375.023438 L 542.050781 361.554688 L 584.265625 347.59375 L 584.773438 372.636719 C 584.925781 380.34375 585.621094 385.113281 586.859375 386.917969 C 588.085938 388.738281 590.21875 389.136719 593.238281 388.136719 C 596.261719 387.136719 598.484375 384.992188 599.898438 381.710938 C 601.316406 378.425781 601.976562 374.035156 601.863281 368.523438 C 601.617188 356.402344 600.054688 348.945312 597.171875 346.140625 C 594.214844 343.363281 586.996094 339.480469 575.519531 334.488281 C 564.039062 329.40625 556.425781 325.488281 552.671875 322.714844 C 548.921875 319.949219 545.769531 315.449219 543.214844 309.207031 C 540.664062 302.96875 539.277344 294.386719 539.054688 283.453125 C 538.738281 267.691406 540.210938 255.601562 543.484375 247.175781 C 546.753906 238.757812 552.164062 231.234375 559.710938 224.601562 C 567.257812 217.96875 576.425781 212.863281 587.222656 209.296875 C 599.027344 205.390625 609.132812 204.308594 617.539062 206.054688 C 625.945312 207.800781 631.5625 211.632812 634.398438 217.5625 C 637.238281 223.492188 638.820312 234.640625 639.15625 250.992188 L 639.320312 259.128906 " fill-opacity="1" fill-rule="nonzero"/></svg>