<svg xmlns="http://www.w3.org/2000/svg" xmlns:xlink="http://www.w3.org/1999/xlink" width="1056" zoomAndPan="magnify" viewBox="0 0 792 611.999999" height="816" preserveAspectRatio="xMidYMid meet" version="1.0"><defs><clipPath id="58815526bf"><path d="M 574 38 L 668.585938 38 L 668.585938 304 L 574 304 Z M 574 38 " clip-rule="nonzero"/></clipPath><clipPath id="8bc9e20a6d"><path d="M 161 262 L 577 262 L 577 600.859375 L 161 600.859375 Z M 161 262 " clip-rule="nonzero"/></clipPath><clipPath id="33fa7e9bf9"><path d="M 269 11.359375 L 615 11.359375 L 615 342 L 269 342 Z M 269 11.359375 " clip-rule="nonzero"/></clipPath></defs><rect x="-79.2" width="950.4" fill="#ffffff" y="-61.2" height="734.399999" fill-opacity="1"/><rect x="-79.2" width="950.4" fill="#ffffff" y="-61.2" height="734.399999" fill-opacity="1"/><g clip-path="url(#58815526bf)"><path fill="#ef9d26" d="M 614.597656 38.628906 L 668.585938 303.402344 L 583.558594 287.191406 C 563.96875 201.863281 575.964844 119.136719 614.597656 38.628906 Z M 614.597656 38.628906 " fill-opacity="1" fill-rule="nonzero"/></g><g clip-path="url(#8bc9e20a6d)"><path fill="#f9b132" d="M 369.542969 438.273438 C 373.851562 432.945312 378.148438 427.613281 382.457031 422.28125 C 369.660156 419.785156 356.867188 417.28125 344.070312 414.785156 C 329.023438 411.855469 313.972656 408.910156 298.933594 405.964844 C 285.085938 403.269531 271.246094 400.574219 257.40625 397.867188 C 242.355469 394.933594 227.308594 391.988281 212.269531 389.042969 C 195.214844 385.71875 178.160156 382.390625 161.101562 379.054688 L 269.074219 287.191406 C 411.628906 233.851562 503.039062 271.785156 576.804688 341.234375 C 512.027344 427.695312 447.234375 514.144531 382.457031 600.601562 C 344.652344 587.992188 306.863281 575.382812 269.074219 562.78125 C 277.074219 552.867188 285.070312 542.949219 293.082031 533.035156 C 301.34375 522.789062 309.617188 512.539062 317.878906 502.292969 L 317.890625 502.292969 C 326.613281 491.472656 335.347656 480.644531 344.082031 469.828125 C 352.570312 459.304688 361.054688 448.796875 369.542969 438.273438 Z M 369.542969 438.273438 " fill-opacity="1" fill-rule="nonzero"/></g><g clip-path="url(#33fa7e9bf9)"><path fill="#ffc05a" d="M 614.597656 38.628906 C 604.246094 121.480469 593.898438 204.34375 583.558594 287.191406 C 581.304688 305.207031 579.050781 323.21875 576.804688 341.234375 C 474.222656 323.21875 371.65625 305.207031 269.074219 287.191406 L 306.863281 11.613281 C 409.445312 20.617188 512.027344 29.628906 614.597656 38.628906 Z M 614.597656 38.628906 " fill-opacity="1" fill-rule="nonzero"/></g><path fill="#e15c63" d="M 242.132812 425.117188 C 228.316406 413.742188 207.902344 415.714844 196.53125 429.546875 L 165.648438 467.082031 L 215.664062 508.300781 L 246.546875 470.765625 C 257.917969 456.941406 255.945312 436.503906 242.132812 425.117188 Z M 242.132812 425.117188 " fill-opacity="1" fill-rule="nonzero"/><path fill="#ffc05a" d="M 197.515625 479.351562 C 184.367188 468.507812 170.207031 467.285156 165.648438 467.082031 L 134.753906 504.632812 L 184.769531 545.847656 L 215.664062 508.300781 C 211.640625 491.734375 201.042969 482.257812 197.515625 479.351562 Z M 197.515625 479.351562 " fill-opacity="1" fill-rule="nonzero"/><path fill="#f9b132" d="M 180.355469 500.203125 C 194.167969 511.589844 196.140625 532.027344 184.769531 545.847656 C 173.398438 559.671875 152.984375 561.640625 139.167969 550.265625 C 125.367188 538.878906 123.382812 518.453125 134.753906 504.632812 C 146.136719 490.808594 166.550781 488.824219 180.355469 500.203125 Z M 180.355469 500.203125 " fill-opacity="1" fill-rule="nonzero"/><path fill="#655f68" d="M 449.453125 83.070312 C 447.714844 82.152344 445.585938 82.398438 444.109375 83.695312 L 400.917969 121.515625 C 398.945312 123.242188 398.746094 126.246094 400.472656 128.21875 C 402.199219 130.191406 405.199219 130.390625 407.171875 128.664062 L 441.03125 99.011719 L 420.933594 265.007812 C 420.617188 267.613281 422.472656 269.980469 425.074219 270.292969 C 425.269531 270.320312 425.460938 270.328125 425.652344 270.328125 C 428.019531 270.328125 430.066406 268.558594 430.359375 266.148438 L 451.949219 87.839844 C 452.183594 85.886719 451.191406 83.988281 449.453125 83.070312 Z M 449.453125 83.070312 " fill-opacity="1" fill-rule="nonzero"/><path fill="#655f68" d="M 405.085938 445.53125 L 372.714844 434.347656 C 371.65625 435.65625 370.601562 436.964844 369.542969 438.273438 L 366.363281 442.214844 L 401.984375 454.507812 C 402.496094 454.6875 403.019531 454.769531 403.535156 454.769531 C 405.503906 454.769531 407.34375 453.535156 408.023438 451.570312 C 408.878906 449.089844 407.5625 446.386719 405.085938 445.53125 Z M 405.085938 445.53125 " fill-opacity="1" fill-rule="nonzero"/><path fill="#655f68" d="M 378.640625 476.734375 L 347.253906 465.898438 C 346.199219 467.207031 345.140625 468.515625 344.082031 469.828125 L 340.902344 473.765625 L 375.542969 485.714844 C 376.054688 485.894531 376.578125 485.976562 377.089844 485.976562 C 379.058594 485.976562 380.898438 484.742188 381.578125 482.777344 C 382.433594 480.296875 381.117188 477.59375 378.640625 476.734375 Z M 378.640625 476.734375 " fill-opacity="1" fill-rule="nonzero"/><path fill="#655f68" d="M 354.511719 508.890625 L 321.089844 498.324219 C 320.023438 499.644531 318.957031 500.96875 317.890625 502.292969 L 317.878906 502.292969 L 314.667969 506.269531 L 351.648438 517.949219 C 352.125 518.097656 352.609375 518.167969 353.082031 518.167969 C 355.097656 518.167969 356.96875 516.875 357.609375 514.851562 C 358.398438 512.347656 357.011719 509.679688 354.511719 508.890625 Z M 354.511719 508.890625 " fill-opacity="1" fill-rule="nonzero"/><path fill="#655f68" d="M 331.578125 541.3125 L 296.253906 529.105469 C 295.195312 530.414062 294.140625 531.726562 293.082031 533.035156 L 289.902344 536.972656 L 328.480469 550.289062 C 328.996094 550.464844 329.519531 550.550781 330.03125 550.550781 C 332 550.550781 333.839844 549.316406 334.519531 547.351562 C 335.375 544.871094 334.058594 542.167969 331.578125 541.3125 Z M 331.578125 541.3125 " fill-opacity="1" fill-rule="nonzero"/><path fill="#655f68" d="M 253.515625 345.257812 C 251.605469 343.457031 248.601562 343.550781 246.804688 345.460938 C 234.140625 358.914062 219.402344 374.519531 206.726562 387.960938 L 212.269531 389.042969 C 214.105469 389.402344 215.945312 389.761719 217.78125 390.121094 C 229.769531 377.40625 241.738281 364.699219 253.71875 351.972656 C 255.515625 350.0625 255.425781 347.054688 253.515625 345.257812 Z M 253.515625 345.257812 " fill-opacity="1" fill-rule="nonzero"/><path fill="#655f68" d="M 299.378906 353.320312 C 297.46875 351.519531 294.464844 351.609375 292.667969 353.519531 L 251.871094 396.785156 L 257.40625 397.867188 C 259.242188 398.226562 261.082031 398.582031 262.917969 398.941406 L 299.578125 360.035156 C 301.375 358.128906 301.285156 355.121094 299.378906 353.320312 Z M 299.378906 353.320312 " fill-opacity="1" fill-rule="nonzero"/><path fill="#655f68" d="M 295.726562 405.339844 L 298.941406 405.964844 C 300.773438 406.324219 302.609375 406.679688 304.445312 407.039062 L 341.035156 368.207031 C 342.832031 366.296875 342.742188 363.292969 340.835938 361.492188 C 338.925781 359.691406 335.921875 359.78125 334.125 361.691406 L 293.402344 404.886719 Z M 295.726562 405.339844 " fill-opacity="1" fill-rule="nonzero"/><path fill="#655f68" d="M 344.070312 414.785156 C 345.910156 415.144531 347.746094 415.503906 349.582031 415.863281 L 358.125 406.796875 C 367.023438 397.351562 375.777344 388.0625 384.867188 378.40625 C 386.664062 376.496094 386.574219 373.488281 384.664062 371.691406 C 382.757812 369.890625 379.75 369.984375 377.953125 371.894531 C 368.867188 381.546875 360.113281 390.835938 351.214844 400.28125 L 338.496094 413.695312 Z M 344.070312 414.785156 " fill-opacity="1" fill-rule="nonzero"/></svg>